<svg version="1.1" id="Layer_1" xmlns="http://www.w3.org/2000/svg" xmlns:xlink="http://www.w3.org/1999/xlink" x="0px" y="0px"
	 width="100%" viewBox="0 0 560 576" enable-background="new 0 0 560 576" xml:space="preserve">
<path fill="#000000" opacity="1.000000" stroke="none" 
	d="
M171.444168,577.000000 
	C169.782578,575.685303 168.050262,575.580139 166.491074,575.037354 
	C153.615753,570.554871 147.237152,559.441528 149.758560,545.951599 
	C152.042862,533.730164 163.414062,525.031311 176.479721,525.959534 
	C186.692154,526.685059 195.295914,530.544434 199.792435,540.516479 
	C204.251694,550.405823 202.839554,559.684937 196.196442,568.160339 
	C192.008850,573.502991 185.798294,575.067993 179.318954,576.825928 
	C176.629440,577.000000 174.258896,577.000000 171.444168,577.000000 
M166.729630,560.733276 
	C171.040771,564.954529 175.969086,565.791138 181.368484,563.176208 
	C186.753525,560.568298 188.252823,555.902344 187.921982,550.289246 
	C187.480042,542.791138 182.778015,538.232971 175.405014,538.293884 
	C168.438965,538.351440 163.469574,543.550598 163.306366,550.820251 
	C163.228195,554.302795 164.280060,557.362488 166.729630,560.733276 
z"/>
<path fill="#000000" opacity="1.000000" stroke="none" 
	d="
M21.444164,577.000000 
	C17.042511,575.800354 13.036557,574.738464 9.139497,573.367188 
	C3.995880,571.557251 6.341181,568.077820 7.292502,564.754272 
	C8.398789,560.889404 10.514158,561.505432 13.356936,562.646362 
	C17.961977,564.494629 22.617537,566.577637 27.807812,565.064819 
	C29.552652,564.556213 31.582781,564.169434 31.604746,561.783752 
	C31.624552,559.632690 29.730019,559.171875 28.185467,558.716431 
	C24.844091,557.731079 21.423817,557.015198 18.075356,556.051697 
	C9.597143,553.612061 5.630752,549.077271 5.655642,541.998535 
	C5.681535,534.634277 9.845918,529.622437 18.142076,527.304932 
	C25.770744,525.173828 33.295620,526.021362 40.641994,528.691711 
	C46.264050,530.735291 42.469204,534.373962 41.892570,537.351807 
	C41.292091,540.452759 39.635231,541.279114 36.480007,539.898071 
	C32.685215,538.237122 28.604141,537.084167 24.372763,537.633118 
	C22.223793,537.911926 19.810858,538.697510 19.636732,541.297913 
	C19.466200,543.844604 21.898064,544.301147 23.779039,544.831787 
	C27.932295,546.003662 32.196102,546.822632 36.282974,548.182007 
	C43.080177,550.442810 46.248280,554.274170 46.221794,560.356567 
	C46.194851,566.543274 43.248283,571.206055 37.588364,573.833191 
	C35.044685,575.013977 32.267998,575.692749 29.298515,576.799683 
	C26.629442,577.000000 24.258884,577.000000 21.444164,577.000000 
z"/>
<path fill="#000000" opacity="1.000000" stroke="none" 
	d="
M229.444168,577.000000 
	C220.025558,574.587891 212.234177,570.830872 208.348526,561.428101 
	C203.804047,550.431030 206.905914,537.894043 216.357620,531.066223 
	C226.110489,524.020874 241.033844,524.254395 249.402069,531.670837 
	C251.212433,533.275269 253.919571,535.267578 250.760788,537.663574 
	C248.130096,539.658936 247.026535,545.840393 241.457169,541.430908 
	C236.264130,537.319397 229.701233,537.282166 225.270020,540.779053 
	C221.134155,544.042908 219.455063,551.232361 221.538895,556.755127 
	C224.511719,564.634033 233.876526,566.909241 241.026596,561.489746 
	C244.854568,558.588257 247.135025,559.310608 251.340515,564.466248 
	C254.183014,567.950989 250.610794,569.146118 249.057556,570.826355 
	C246.007660,574.125427 241.735382,575.302429 237.304474,576.819824 
	C234.629440,577.000000 232.258896,577.000000 229.444168,577.000000 
z"/>
<path fill="#000000" opacity="1.000000" stroke="none" 
	d="
M130.928680,436.445496 
	C118.127861,423.741089 105.625237,411.274719 93.163666,398.767426 
	C88.887299,394.475342 88.996925,389.636688 91.645210,384.550262 
	C96.260414,375.686066 100.736740,366.746765 105.512581,357.970276 
	C107.644135,354.053162 107.706421,350.666260 105.305206,346.818237 
	C95.801582,331.588226 89.090210,315.135986 84.485924,297.809875 
	C83.403999,293.738525 80.958275,291.324310 76.812271,290.171143 
	C67.997559,287.719360 59.266308,284.967194 50.503136,282.330505 
	C41.932930,279.751831 39.941406,277.181702 39.925728,268.441345 
	C39.897625,252.778503 39.900909,237.115585 39.927921,221.452759 
	C39.941853,213.376175 42.159245,210.297684 49.852509,208.067932 
	C58.961372,205.427856 68.096703,202.868500 77.274841,200.482971 
	C81.279861,199.442001 83.529198,197.138824 84.536095,193.186310 
	C89.047905,175.475525 95.921814,158.745361 105.710861,143.274704 
	C107.792435,139.984970 107.954933,136.903229 106.104126,133.436981 
	C101.554726,124.916748 97.133507,116.326782 92.755806,107.716530 
	C88.656586,99.653976 89.368004,95.838699 95.740250,89.471977 
	C106.229439,78.991882 116.670784,68.463913 127.144341,57.968147 
	C133.660294,51.438381 137.662018,50.939362 145.819717,55.454147 
	C154.271866,60.131901 162.778519,64.711403 171.220337,69.407524 
	C174.450027,71.204170 177.438919,71.165009 180.622345,69.213173 
	C195.795883,59.909863 212.195389,53.479191 229.350784,48.966785 
	C233.198853,47.954624 235.310623,45.890366 236.427414,42.168789 
	C239.200470,32.927914 242.165100,23.744312 245.077988,14.545688 
	C247.624939,6.502653 250.100006,4.669547 258.387543,4.664809 
	C273.883881,4.655949 289.380249,4.651541 304.876587,4.666806 
	C314.042755,4.675835 315.910431,6.160218 318.670471,15.080564 
	C321.424591,23.981630 324.414062,32.811543 327.055359,41.745079 
	C328.223785,45.696976 330.507233,47.882133 334.466858,48.921204 
	C351.799347,53.469551 368.245636,60.191025 383.579193,69.521454 
	C387.046600,71.631371 390.204163,70.793900 393.455688,68.981148 
	C401.747620,64.358353 410.040497,59.732841 418.426056,55.283749 
	C426.970886,50.750168 430.308594,51.381947 436.992615,58.093594 
	C447.574341,68.719032 458.206207,79.294510 468.812073,89.895905 
	C474.860138,95.941391 475.486053,99.082703 471.651276,106.800362 
	C467.427856,115.300179 463.088989,123.747223 458.584595,132.100876 
	C456.300598,136.336700 456.296906,140.092850 458.888550,144.240799 
	C468.404205,159.470688 475.040436,175.948151 479.461273,193.325882 
	C480.418915,197.090088 482.569550,199.248260 486.387695,200.299606 
	C496.010590,202.949326 505.567902,205.842209 515.122925,208.731903 
	C521.565125,210.680145 523.773621,213.055923 523.869141,219.806900 
	C524.111877,236.965271 524.057068,254.129837 523.923828,271.290375 
	C523.883667,276.468323 521.271423,279.991852 515.982361,281.448914 
	C506.362000,284.099121 496.837860,287.102844 487.198578,289.678497 
	C482.678406,290.886322 480.200836,293.296082 479.058350,297.941467 
	C474.858032,315.020020 468.439545,331.239075 458.991974,346.143555 
	C456.420105,350.200958 456.155731,353.853210 458.552063,358.210022 
	C463.365967,366.962128 467.770416,375.942505 472.229126,384.885895 
	C475.391815,391.229584 474.911591,394.624573 469.890503,399.734924 
	C458.446442,411.382507 446.855499,422.885651 435.377899,434.500519 
	C431.337494,438.589233 426.777863,439.458313 421.747467,436.830902 
	C412.891388,432.205231 404.057617,427.527649 395.349335,422.632019 
	C390.711304,420.024597 386.695648,419.713318 381.869873,422.670715 
	C367.870667,431.249908 352.755829,437.411224 336.780640,441.208954 
	C331.106689,442.557770 327.935394,445.315338 326.503967,451.121552 
	C324.316376,459.994690 321.413727,468.696442 318.678070,477.428131 
	C316.373383,484.784149 313.645721,486.940094 306.016327,487.006134 
	C290.187897,487.143188 274.357208,487.138184 258.528229,487.050598 
	C250.965622,487.008759 248.075562,484.800232 245.736053,477.609497 
	C242.698151,468.272186 239.674088,458.927338 236.868973,449.518677 
	C235.695145,445.581512 233.388947,443.324249 229.464813,442.290466 
	C211.820297,437.642120 195.016800,430.926788 179.346451,421.510437 
	C176.227356,419.636169 173.334183,420.269531 170.378677,421.873627 
	C161.742111,426.561035 153.096222,431.231720 144.424316,435.853302 
	C140.181656,438.114380 135.840469,439.713562 130.928680,436.445496 
M324.796814,410.170624 
	C361.292755,400.595947 391.335785,381.082550 414.968384,351.671906 
	C445.473236,313.708771 457.430603,270.352478 451.372009,222.289337 
	C447.946381,195.113663 438.197510,169.922714 421.457184,148.048599 
	C378.542267,91.972931 321.869629,67.699661 251.942291,78.850311 
	C210.590530,85.444290 175.909302,106.027641 149.380814,138.795731 
	C116.728882,179.127487 104.267487,225.487015 113.778107,276.406708 
	C132.022232,374.085419 227.824387,434.643097 324.796814,410.170624 
z"/>
<path fill="#000000" opacity="1.000000" stroke="none" 
	d="
M467.860596,546.941650 
	C470.380157,541.089050 472.866821,535.631042 475.074341,530.062378 
	C476.265015,527.058777 478.546570,526.679565 481.132202,526.973633 
	C484.526978,527.359680 488.822357,525.233582 490.871246,529.831055 
	C497.241058,544.123962 503.513031,558.460510 509.790558,572.794312 
	C510.031860,573.345215 509.939331,574.042297 510.039795,575.045105 
	C505.633698,576.232788 501.326141,575.567932 497.162170,575.135254 
	C495.130920,574.924194 494.725189,572.103760 494.201141,570.264221 
	C493.306061,567.122559 491.427795,566.004028 488.309570,566.237976 
	C486.156372,566.399597 483.955536,566.477905 481.820435,566.222351 
	C476.287964,565.560059 471.932709,566.398560 470.820007,573.001038 
	C470.421021,575.368469 468.234192,575.863647 466.127716,575.867065 
	C451.803223,575.890320 437.478607,575.880005 423.154053,575.879028 
	C420.571014,575.878845 419.300415,574.965088 419.348145,572.000122 
	C419.559906,558.844849 419.691376,545.683899 419.524078,532.529236 
	C419.469269,528.218140 420.755524,526.609375 425.198120,526.716370 
	C433.326416,526.912170 433.329590,526.691223 433.331360,534.972839 
	C433.333069,542.968445 433.518463,550.969666 433.269836,558.957397 
	C433.143646,563.010925 434.782501,564.270569 438.556091,564.087219 
	C442.711456,563.885437 446.884583,564.081177 451.046417,563.970581 
	C454.695984,563.873718 457.444244,564.726868 458.053711,569.342285 
	C461.272919,561.991638 464.492157,554.640930 467.860596,546.941650 
M480.421417,548.883362 
	C480.015503,550.901123 478.198914,552.667358 479.463928,555.400024 
	C481.857056,555.391357 484.399689,556.351746 487.085205,554.658081 
	C486.560760,550.715576 485.449127,547.143372 482.728851,543.651184 
	C481.894623,545.508789 481.288208,546.859131 480.421417,548.883362 
z"/>
<path fill="#000000" opacity="1.000000" stroke="none" 
	d="
M513.879883,546.000610 
	C513.843567,540.668945 513.867065,535.835815 513.753540,531.005859 
	C513.692261,528.399719 514.554016,526.817932 517.398254,526.841309 
	C525.559021,526.908264 533.740051,526.624390 541.875977,527.106262 
	C553.702271,527.806702 562.179199,536.132385 553.417969,549.626221 
	C555.686035,552.518799 558.694946,555.052673 559.292053,559.104187 
	C560.554321,567.668457 554.889099,574.465881 544.954163,575.163452 
	C535.995972,575.792419 526.979126,575.593506 517.987793,575.737732 
	C514.777100,575.789246 513.706604,574.082703 513.762756,570.992371 
	C513.911255,562.830383 513.856506,554.664673 513.879883,546.000610 
M535.437378,556.252380 
	C534.276917,556.252747 533.112732,556.313965 531.956787,556.241638 
	C528.843567,556.046753 527.955872,557.752808 527.947815,560.537659 
	C527.939636,563.359802 528.946472,564.972961 531.991028,564.854248 
	C533.480652,564.796143 534.980774,564.938477 536.465271,564.834656 
	C539.819031,564.600098 544.521973,565.458374 544.632080,560.633850 
	C544.756897,555.163757 539.735046,556.624573 535.437378,556.252380 
M530.965820,545.682190 
	C533.293274,545.663940 535.631531,545.779541 537.945190,545.591553 
	C540.471069,545.386292 542.592285,544.298889 542.553040,541.377625 
	C542.515808,538.606506 540.185120,537.962891 538.043030,537.570679 
	C536.427124,537.274841 534.728027,537.340027 533.070496,537.391602 
	C531.324890,537.445862 528.912415,536.758179 528.377930,539.072693 
	C527.861084,541.310852 526.995117,544.113586 530.965820,545.682190 
z"/>
<path fill="#000000" opacity="1.000000" stroke="none" 
	d="
M140.499771,533.601013 
	C147.110153,543.279480 145.927948,551.093506 136.636703,559.999817 
	C138.249771,565.345337 142.996033,569.146973 144.648987,574.555969 
	C137.846786,578.003479 131.351547,576.374146 127.741852,570.446411 
	C126.530365,568.456970 125.186501,566.545776 124.027855,564.527222 
	C122.686951,562.191101 120.559761,562.181152 118.361122,562.480042 
	C115.761925,562.833374 116.146866,564.964050 116.028580,566.741577 
	C115.984474,567.404419 116.025803,568.072693 116.023895,568.738525 
	C116.003899,575.698547 115.702774,575.992004 108.677414,575.903687 
	C101.842484,575.817810 101.705238,575.710083 101.689018,568.872803 
	C101.659798,556.555115 101.771561,544.235962 101.602432,531.920471 
	C101.552269,528.267700 102.807205,526.727417 106.479019,526.892822 
	C113.946350,527.229248 121.458916,526.170166 128.893341,527.597961 
	C133.218735,528.428711 137.237137,529.881531 140.499771,533.601013 
M122.097336,538.844421 
	C119.805214,538.982422 116.595642,537.502991 115.908958,540.984436 
	C115.259796,544.275635 113.867912,548.639099 116.975883,550.802856 
	C120.166000,553.023804 124.389549,551.636597 127.816788,549.765137 
	C130.018707,548.562805 131.045792,546.398193 130.485199,543.839294 
	C129.589493,539.750793 126.378555,539.065125 122.097336,538.844421 
z"/>
<path fill="#000000" opacity="1.000000" stroke="none" 
	d="
M309.658142,567.904419 
	C309.659882,555.597351 309.780823,543.772888 309.598053,531.953186 
	C309.537079,528.010742 310.980865,526.687195 314.839783,526.754822 
	C324.161346,526.918274 333.492126,526.918396 342.811432,526.680664 
	C346.935150,526.575500 348.140442,528.498474 347.898865,532.109924 
	C347.679932,535.383423 348.204254,539.112244 343.028656,538.990356 
	C338.202789,538.876587 333.370941,538.932556 328.543335,539.012451 
	C326.109497,539.052673 323.271515,538.598633 323.335938,542.549316 
	C323.397430,546.316650 326.104828,545.589172 328.326691,545.617310 
	C332.322083,545.667847 336.328064,545.785461 340.311829,545.560181 
	C343.452301,545.382690 345.315918,546.366516 344.819183,549.677124 
	C344.378693,552.612427 345.873810,556.933533 340.452057,556.971924 
	C336.289398,557.001404 332.126892,557.046021 327.964294,557.082947 
	C325.529968,557.104492 323.389343,557.108704 323.259369,560.631531 
	C323.116608,564.500305 325.511444,564.558472 328.094818,564.513306 
	C333.251923,564.423218 338.412689,564.310364 343.560913,564.014465 
	C348.350098,563.739136 348.852234,566.665222 348.991821,570.390015 
	C349.144196,574.456360 347.515289,575.920654 343.439606,576.038086 
	C333.450714,576.325806 323.499969,575.091064 313.495880,575.705261 
	C307.788635,576.055664 310.251587,571.215271 309.658142,567.904419 
z"/>
<path fill="#000000" opacity="1.000000" stroke="none" 
	d="
M258.678314,569.882690 
	C258.671753,557.081787 258.815369,544.767273 258.588043,532.459656 
	C258.508698,528.163940 259.805511,526.551453 264.252533,526.655640 
	C272.352020,526.845520 272.359314,526.616455 272.373871,534.837708 
	C272.379669,538.104980 272.374847,541.372253 273.519318,545.140137 
	C277.437561,540.970398 281.989441,537.224976 285.130371,532.534668 
	C290.263336,524.869507 297.257996,526.993774 304.667297,526.955505 
	C303.703705,530.965393 300.765228,532.588989 298.916321,534.985046 
	C295.377533,539.571045 288.673157,543.059570 288.414215,548.410461 
	C288.156311,553.741150 294.305420,557.980408 297.573792,562.744141 
	C300.279144,566.687317 303.240051,570.455139 306.147308,574.381165 
	C298.803467,577.837036 290.824280,576.031128 286.660522,570.344910 
	C284.009583,566.724670 281.358643,563.104370 278.682617,559.502686 
	C278.507233,559.266724 278.117065,559.190247 277.636658,558.940918 
	C272.935760,561.230164 272.012085,565.402832 272.409607,570.123291 
	C272.726166,573.882202 271.401398,575.989990 267.394379,575.357605 
	C263.911896,574.807983 258.214630,577.891052 258.678314,569.882690 
z"/>
<path fill="#000000" opacity="1.000000" stroke="none" 
	d="
M71.195297,563.152954 
	C66.670692,562.718262 66.199493,565.148132 66.216789,568.422363 
	C66.229210,570.771729 67.595406,574.093994 64.897362,575.271790 
	C61.401791,576.797791 57.370701,576.392639 53.637894,575.387085 
	C51.908772,574.921265 51.894432,573.108826 51.889229,571.607788 
	C51.841934,557.965759 51.837669,544.323669 51.783409,530.681702 
	C51.773552,528.203735 52.928493,526.911255 55.363350,526.929504 
	C63.166588,526.988037 70.996948,526.158691 78.762466,527.554382 
	C89.775642,529.533875 95.400749,535.628906 95.308617,545.451721 
	C95.221161,554.774536 89.305840,560.888428 78.588600,562.589600 
	C76.301422,562.952637 73.959419,562.970398 71.195297,563.152954 
M66.354797,540.211853 
	C66.320824,543.017700 66.267319,545.823547 66.260132,548.629456 
	C66.255753,550.341431 66.974846,551.483276 68.842567,551.596924 
	C71.836594,551.779175 74.806229,551.717590 77.597336,550.437500 
	C79.772728,549.439758 80.755478,547.675842 80.824867,545.300110 
	C80.893318,542.956665 80.231209,540.886292 78.018578,539.944946 
	C74.351997,538.385010 70.553040,537.287476 66.354797,540.211853 
z"/>
<path fill="#000000" opacity="1.000000" stroke="none" 
	d="
M364.888916,552.022583 
	C364.892914,551.360962 364.898560,551.194458 364.893646,551.028259 
	C364.785553,547.383423 365.858307,543.066772 364.265930,540.264954 
	C362.307861,536.819763 357.595184,539.251831 354.117584,539.019348 
	C348.814789,538.664978 350.000214,534.948608 349.728027,531.785645 
	C349.419128,528.195923 350.785980,526.669495 354.539246,526.717957 
	C365.847992,526.864075 377.166870,527.006897 388.467926,526.676331 
	C395.075073,526.483093 393.165070,531.301208 393.718445,534.566528 
	C394.423370,538.726379 391.491882,539.012817 388.389313,539.010681 
	C378.423004,539.003906 379.250122,538.126160 379.213776,548.676697 
	C379.189117,555.828979 379.095337,562.983948 379.255951,570.132690 
	C379.340607,573.900757 378.074097,575.536133 374.075806,575.443237 
	C363.780212,575.204041 364.968842,576.580444 364.880005,566.489868 
	C364.838989,561.832886 364.881165,557.175232 364.888916,552.022583 
z"/>
<path fill="#000000" opacity="1.000000" stroke="none" 
	d="
M382.718811,120.233871 
	C415.473572,146.705475 435.597137,180.452682 441.843872,221.640045 
	C447.490845,258.872955 440.782074,294.304504 421.159485,326.776459 
	C394.488068,370.912933 355.570312,397.674225 304.554443,404.931030 
	C218.170868,417.218842 141.983734,360.070068 124.202827,281.244202 
	C104.380905,193.370224 159.106461,106.464027 251.789505,88.036713 
	C299.893127,78.472725 343.508118,90.469604 382.718811,120.233871 
M285.243896,179.307083 
	C277.703583,174.725677 270.180176,170.116150 262.616180,165.574188 
	C258.546967,163.130737 254.940750,159.646271 249.569397,160.110046 
	C248.068207,160.239685 246.660889,159.063889 246.015488,157.665482 
	C243.201126,151.567505 236.589432,150.690781 231.865677,147.234314 
	C230.988724,146.592621 229.918716,146.860733 229.153580,147.690460 
	C225.321579,151.845795 220.032669,155.644684 218.822693,160.909042 
	C217.068893,168.539490 215.316956,176.552078 216.679596,184.575012 
	C217.323166,188.364197 215.822861,190.288849 212.426498,191.178391 
	C210.563568,191.666321 208.384338,191.564346 207.789032,193.983978 
	C208.527008,195.576431 209.941055,196.212219 211.190338,196.992096 
	C238.591904,214.097763 266.550385,230.248215 294.800262,245.907745 
	C298.514465,247.966599 301.419647,248.884583 304.688507,245.185883 
	C305.864380,243.855408 308.212982,243.193573 310.116241,242.960693 
	C312.911652,242.618637 314.097595,241.213669 314.823883,238.685776 
	C317.715424,228.621506 320.571198,218.540359 323.810150,208.585846 
	C325.056488,204.755478 323.623627,203.033066 320.756622,200.832275 
	C309.888000,192.489182 297.103882,187.368988 285.243896,179.307083 
M292.952087,333.490631 
	C297.959442,335.733887 302.967285,337.976074 307.973938,340.220886 
	C310.343262,341.283203 312.532440,341.847870 314.863312,339.786865 
	C316.966339,337.927338 319.197968,338.631104 321.068695,340.523529 
	C324.523163,344.018005 328.878326,346.112305 333.113251,348.427856 
	C335.663879,349.822449 337.709595,349.531891 339.911682,347.687103 
	C345.012360,343.414185 350.305878,339.370911 355.392395,335.081787 
	C358.811707,332.198486 363.084808,329.877014 365.012268,325.777771 
	C369.322357,316.611389 373.245758,307.246155 376.231995,297.537109 
	C377.288849,294.100922 376.511139,291.680389 372.851593,289.908783 
	C355.938721,281.720947 339.166504,273.243103 322.309967,264.938019 
	C317.927124,262.778656 311.072540,265.793549 309.497833,270.528015 
	C303.354187,288.999268 296.301056,307.134918 288.867767,325.108124 
	C286.942993,329.762085 287.856201,331.865265 292.952087,333.490631 
M355.407867,276.014709 
	C361.281372,278.775482 367.134644,281.580444 373.034607,284.283569 
	C378.122925,286.614868 378.870453,286.284698 380.302948,280.908325 
	C383.822906,267.697083 385.085602,254.124634 386.647430,240.599991 
	C386.968658,237.818344 385.598785,236.315659 383.310425,235.128174 
	C378.289246,232.522522 373.290924,229.866684 368.359253,227.096054 
	C358.203186,221.390366 348.146484,215.506439 337.951172,209.872665 
	C332.089661,206.633652 329.168579,207.936127 327.339142,214.128342 
	C324.842377,222.579544 322.420349,231.054138 319.796448,239.465729 
	C318.862396,242.460175 318.257660,244.928604 320.922821,247.602615 
	C322.898804,249.585175 323.863831,252.687363 323.115753,255.520264 
	C322.188385,259.031860 324.014160,260.278015 326.625519,261.567627 
	C336.027863,266.210907 345.373932,270.968292 355.407867,276.014709 
M229.319382,305.245422 
	C211.200363,294.336426 193.678177,282.544556 176.879669,269.690704 
	C174.338074,267.745911 172.145126,266.521210 171.322235,271.036774 
	C169.111526,283.167603 167.904755,295.383057 168.289551,307.733398 
	C168.344803,309.507172 168.883270,310.942108 170.176773,312.165161 
	C180.468323,321.896088 191.207748,331.078247 202.937881,339.056152 
	C204.522995,340.134216 206.116577,341.005920 207.924759,339.548279 
	C211.458069,336.699982 214.565552,337.398041 217.616943,340.448303 
	C218.602036,341.433014 219.753357,342.633392 222.356110,342.112640 
	C225.995758,334.145874 230.006729,325.785980 233.651718,317.269440 
	C237.267593,308.820953 237.984558,310.329895 229.319382,305.245422 
M220.034210,233.398300 
	C214.825912,222.612885 209.643158,211.815033 204.398804,201.047180 
	C201.691437,195.488327 199.549362,195.293533 195.651154,200.216873 
	C194.836273,201.246033 194.233597,202.459854 193.632797,203.639343 
	C186.971085,216.717514 181.774368,230.380463 177.279129,244.334946 
	C176.350296,247.218307 176.178009,249.689316 178.063889,252.312073 
	C179.780182,254.698990 180.251221,257.679901 179.325012,260.436310 
	C178.298370,263.491516 179.116104,265.269745 181.681641,267.052002 
	C191.655396,273.980469 201.480988,281.121918 211.419342,288.102051 
	C212.825470,289.089630 214.173279,290.613800 216.758789,289.918488 
	C219.093216,282.254486 219.452271,274.134003 219.674515,266.054657 
	C219.888229,258.285797 219.655701,258.289032 227.115204,255.399673 
	C228.021561,255.048630 229.032776,254.722443 229.382751,253.027985 
	C226.500076,246.960739 223.436539,240.512848 220.034210,233.398300 
M291.518738,141.946716 
	C294.093414,143.584595 296.019409,146.300079 299.457184,146.958267 
	C300.557892,144.493408 301.524139,142.197266 304.474884,141.700653 
	C314.255890,140.054459 322.334351,134.446625 330.432404,129.410507 
	C334.814301,126.685410 338.082703,124.712830 342.571045,128.591309 
	C344.170624,122.190804 343.804138,116.300285 343.354187,109.681747 
	C336.878632,112.104805 332.753693,110.440086 331.248291,103.930367 
	C331.126190,103.402374 330.410797,102.834213 329.843323,102.613869 
	C323.774994,100.257721 317.552490,97.843414 310.986176,98.724388 
	C300.512329,100.129623 290.646973,103.711456 281.408112,108.891068 
	C279.677032,109.861565 277.375732,110.743683 276.892029,112.646935 
	C275.571503,117.842583 275.851166,123.229256 276.237213,128.530579 
	C276.476105,131.810989 279.843872,132.637070 281.930267,134.405457 
	C284.849884,136.880066 287.947357,139.144836 291.518738,141.946716 
M228.988251,339.381561 
	C228.222412,341.676636 226.678558,343.753510 226.808746,346.451630 
	C230.327255,348.357574 234.743271,349.506866 232.824585,355.108246 
	C232.290833,356.666473 234.065765,357.285095 235.250870,357.794403 
	C242.875809,361.071136 250.551071,364.232330 258.147369,367.573395 
	C260.876923,368.773926 262.323761,367.923828 263.736481,365.485260 
	C269.156189,356.130249 273.955963,346.473175 278.444061,336.645447 
	C279.757843,333.768585 279.092957,332.263702 276.227966,330.834412 
	C268.353455,326.905975 260.673492,322.589691 252.853729,318.548431 
	C249.073593,316.594818 245.574951,314.015289 240.982849,312.704254 
	C237.025391,321.492584 233.154236,330.089264 228.988251,339.381561 
M231.135498,245.420303 
	C234.085190,252.190170 234.060364,252.137543 240.615112,249.045624 
	C242.889496,247.972778 244.944992,246.679062 246.921570,245.119232 
	C249.227509,243.299469 251.930481,242.793808 254.035889,245.382233 
	C261.249054,254.250229 272.707458,256.996033 281.025208,264.256439 
	C281.832489,264.961121 282.943359,264.432465 283.881134,264.064209 
	C288.370972,262.301239 292.899292,260.628906 297.338013,258.745453 
	C300.850677,257.254913 300.361359,255.248398 297.680359,253.267410 
	C297.016479,252.776855 296.240631,252.438507 295.519501,252.024536 
	C275.178864,240.348099 254.821533,228.700607 234.507309,216.978378 
	C227.065231,212.683960 219.725555,208.212067 212.339172,203.821152 
	C212.034775,204.064529 211.730392,204.307922 211.425995,204.551315 
	C217.892776,217.948059 224.359558,231.344803 231.135498,245.420303 
M295.399353,179.874863 
	C298.441956,181.236893 299.407074,179.392471 299.613159,176.925018 
	C300.070099,171.454224 300.227295,165.956848 300.751587,160.493805 
	C301.095612,156.909409 299.632416,154.538437 296.901459,152.430908 
	C289.385071,146.630341 281.912811,140.766495 274.584381,134.731857 
	C272.142029,132.720673 269.926910,132.271591 267.482513,134.200897 
	C261.185791,139.170761 255.259476,139.027054 249.574783,133.210083 
	C249.012344,132.634552 248.169678,132.329025 247.447998,131.913940 
	C246.478012,131.356033 245.446808,131.358948 244.671051,132.125778 
	C241.298599,135.459412 237.258240,138.185989 234.487061,142.743652 
	C237.873642,144.880478 240.798996,148.126663 244.045029,148.487396 
	C251.140167,149.275909 254.881943,154.188202 260.005219,157.920883 
	C271.007904,165.937180 283.116608,172.435440 295.399353,179.874863 
M426.786865,233.491943 
	C428.353973,231.707474 428.645630,229.773956 427.869049,227.487671 
	C425.787750,221.359924 423.908813,215.163345 421.818085,209.038971 
	C420.715668,205.809708 420.181946,202.269028 417.123749,199.247559 
	C412.107178,204.567505 408.298798,200.388184 404.240479,197.614120 
	C402.731781,196.582855 401.241425,195.498138 399.632690,194.645386 
	C396.200531,192.826126 394.551727,190.655273 395.447083,186.270462 
	C396.590759,180.669556 394.680176,179.240921 388.111267,179.796295 
	C388.834076,184.540649 389.752563,189.243729 390.207916,193.991211 
	C390.552521,197.584717 391.138550,200.523117 394.462341,202.932159 
	C398.693634,205.998901 399.175690,212.118683 395.381104,215.704391 
	C390.019867,220.770508 392.890289,226.882492 392.351654,232.545227 
	C392.222168,233.906494 393.729614,234.762268 394.931427,235.349899 
	C403.440155,239.510376 411.914429,243.786102 421.087372,246.332962 
	C425.148804,247.460602 426.700592,245.874100 425.756317,241.800461 
	C425.139038,239.137360 424.738129,236.568665 426.786865,233.491943 
M353.709686,197.239502 
	C349.151764,199.546860 344.593842,201.854218 339.046478,204.662460 
	C355.074890,214.086304 370.033875,223.128067 386.305939,230.752121 
	C387.730408,224.633438 389.247559,219.644943 383.510284,215.313293 
	C379.648560,212.397690 379.509766,207.120377 383.023499,203.820267 
	C386.152618,200.881363 385.923401,197.697662 385.508331,194.257004 
	C385.130768,191.127609 384.382690,188.044510 383.855225,184.931290 
	C382.446411,176.616226 378.360901,173.665588 369.496399,174.645294 
	C368.759125,178.355698 367.914978,181.935745 369.322144,185.849030 
	C370.605316,189.417419 368.822906,192.232544 365.025635,192.828644 
	C361.125793,193.440857 357.786743,195.184021 353.709686,197.239502 
M411.778015,326.452911 
	C412.470154,325.007599 413.650543,323.761902 413.687042,321.351959 
	C409.138000,323.712677 404.844208,325.776703 400.721558,328.139252 
	C398.062439,329.663086 395.923798,329.745544 393.519318,327.616943 
	C391.040131,325.422241 388.156738,323.690399 385.605377,321.569305 
	C382.653473,319.115234 380.569611,319.539276 377.521973,322.057465 
	C369.838043,328.406555 365.044952,336.633240 360.773407,345.307281 
	C359.214539,348.472778 356.313751,350.986267 355.761383,354.969666 
	C360.084808,356.223511 364.254242,355.808624 368.342010,356.011047 
	C379.958282,356.586304 389.763092,352.444336 398.122284,344.444153 
	C403.476318,339.320007 407.317383,333.094849 411.778015,326.452911 
M278.140717,278.464569 
	C277.636139,284.071106 276.664642,289.608032 277.906799,295.319305 
	C278.591370,298.466766 276.542023,300.776001 273.243286,301.234467 
	C270.695160,301.588654 268.424652,302.145996 266.774231,304.678223 
	C271.528687,311.846436 276.493744,318.762939 282.079468,325.247772 
	C284.168182,323.725739 284.765076,321.948486 285.467682,320.294373 
	C292.686798,303.299164 298.832245,285.898712 304.969971,268.495178 
	C305.546143,266.861450 306.063110,265.353943 304.552917,263.911346 
	C303.005432,262.433167 301.380707,262.498749 299.508240,263.233185 
	C294.556824,265.175323 289.673767,267.432617 284.555695,268.768524 
	C279.631500,270.053833 277.516876,272.601929 278.140717,278.464569 
M157.682953,215.179993 
	C155.674454,217.502808 152.901978,219.212128 151.701675,222.084763 
	C152.911987,223.807755 154.435181,224.671555 155.980545,225.122894 
	C160.656647,226.488617 161.535965,229.235413 160.561737,233.849792 
	C159.447525,239.127243 159.600143,244.603378 160.839111,250.312057 
	C163.214050,249.318146 165.024765,247.934433 166.838760,247.930130 
	C170.740479,247.920914 171.804779,245.657455 172.748337,242.543152 
	C176.907532,228.815231 182.125870,215.483124 188.615234,202.689835 
	C190.372131,199.226196 189.053940,197.397125 186.308243,195.775299 
	C183.682114,194.224106 181.591873,190.869690 177.920212,194.841904 
	C171.592819,201.687256 164.788406,208.091690 157.682953,215.179993 
M421.401733,254.429077 
	C422.533173,252.251648 421.340942,251.712494 419.440125,251.042374 
	C414.117493,249.165970 408.876129,247.051346 403.642883,244.931473 
	C399.710999,243.338760 396.058807,241.035706 391.504669,239.932327 
	C390.059479,255.031693 388.255554,269.733215 384.702667,284.234863 
	C392.855469,284.412201 397.226288,273.003265 406.087280,279.464722 
	C412.191589,271.702362 416.483246,263.260437 421.401733,254.429077 
M163.667206,294.351807 
	C163.534454,286.662933 165.206772,279.151825 165.974335,271.552002 
	C166.152512,269.787689 166.545517,268.275696 164.624069,267.287872 
	C160.599335,265.218750 159.317596,261.515961 158.896072,257.381134 
	C158.620407,254.677170 157.018692,253.097412 154.612030,252.499359 
	C152.255981,251.913834 142.772934,257.344360 142.652878,259.660828 
	C142.294159,266.582886 140.414734,273.997833 143.840454,280.307465 
	C148.575500,289.028595 155.260178,296.495422 162.289902,303.893402 
	C164.021866,300.899170 163.469910,298.027405 163.667206,294.351807 
M295.159546,351.687714 
	C293.130493,345.683716 288.192535,341.800293 284.379517,335.699219 
	C278.794312,347.475555 273.521484,358.137115 267.795410,368.560883 
	C266.772766,370.422516 268.466431,371.194061 269.947662,371.690582 
	C278.582733,374.584778 287.302399,377.129211 297.606232,378.306427 
	C293.425781,374.964935 294.146667,371.411865 294.871246,367.855225 
	C295.908905,362.761841 295.949249,357.636383 295.159546,351.687714 
M134.468628,212.073746 
	C135.539703,214.751862 134.747391,218.106689 137.874954,220.734039 
	C139.620911,217.144958 144.874847,218.855804 146.235672,214.150681 
	C149.700745,202.169998 154.439468,190.670914 160.213531,179.607101 
	C160.834915,178.416489 161.559464,177.191895 160.216736,176.019440 
	C157.385818,173.547470 154.531967,171.101730 151.514954,168.496201 
	C148.563248,171.595032 147.000504,175.113541 145.350891,178.481445 
	C140.248108,188.899323 134.951859,199.289139 134.468628,212.073746 
M185.348312,143.854568 
	C188.183853,140.813431 190.837921,137.571930 193.908707,134.790512 
	C196.682007,132.278564 196.386444,129.659683 194.421158,127.372665 
	C192.423370,125.047775 189.701447,125.348938 187.287231,127.259636 
	C176.412399,135.866394 166.473541,145.432556 158.511230,156.822861 
	C154.052368,163.201416 156.422623,168.662766 164.416275,171.251083 
	C170.839996,162.071426 177.290237,152.790588 185.348312,143.854568 
M195.158752,345.710876 
	C196.741531,345.377106 198.496674,345.299530 199.088547,342.727600 
	C189.167587,335.576752 179.845627,327.448639 169.839630,319.969055 
	C172.143784,337.600128 175.965149,354.386871 189.980759,367.636505 
	C191.852951,361.586090 192.052094,356.461029 191.376022,351.310852 
	C191.020676,348.603973 191.756393,346.737885 195.158752,345.710876 
M253.690781,381.187256 
	C255.216248,378.560883 257.862762,376.538208 258.319214,373.173187 
	C250.623322,369.832184 243.169510,366.649658 235.764862,363.356476 
	C232.624313,361.959717 231.439453,363.144745 231.403061,366.245148 
	C231.387482,367.572571 231.166595,368.939972 231.407471,370.219818 
	C232.048401,373.625336 231.118484,376.058533 227.751572,377.406403 
	C226.327774,377.976349 224.934067,378.860352 225.472229,380.733521 
	C228.139465,390.017059 235.593781,395.096558 244.793686,390.099396 
	C248.311142,388.188812 250.743042,384.849640 253.690781,381.187256 
M380.333862,167.692429 
	C375.179810,150.052017 368.683167,133.059402 356.442780,118.901413 
	C354.365692,116.498917 352.339203,113.879036 348.505615,112.756615 
	C348.289337,119.053024 348.459259,124.858688 347.370148,130.563477 
	C347.155273,131.689041 347.144135,133.071747 348.229706,133.780151 
	C354.564819,137.914215 359.972168,143.686951 367.574249,145.591049 
	C371.818420,146.654099 373.420837,149.193863 371.883087,152.807007 
	C370.185669,156.795166 370.469055,160.941971 369.611359,164.964401 
	C369.231903,166.744125 369.326782,168.642242 371.405762,168.949707 
	C374.428589,169.396790 377.286072,172.205414 380.531616,169.817734 
	C380.758514,169.650772 380.533997,168.870193 380.333862,167.692429 
M223.027145,136.369415 
	C225.507874,137.223831 227.272629,140.647324 230.526733,138.697372 
	C240.570236,132.679062 244.969772,120.271927 240.852112,108.554710 
	C230.707367,112.554504 221.931595,118.689407 213.598724,125.435127 
	C211.350266,127.255318 211.733139,129.890793 214.647430,131.514999 
	C217.254761,132.968140 219.820801,134.495392 223.027145,136.369415 
M420.263977,266.672058 
	C417.682007,270.951996 415.361511,275.421204 412.440857,279.455994 
	C409.786041,283.123505 411.039459,284.931458 414.463745,286.745178 
	C417.817291,288.521423 422.084320,289.238434 423.049469,293.962646 
	C430.522949,288.047089 436.144867,263.014587 432.772308,251.985779 
	C429.397980,251.747528 427.234009,253.195251 425.811859,256.341187 
	C424.305939,259.672455 422.378967,262.813416 420.263977,266.672058 
M207.019867,155.423523 
	C209.429337,156.283829 211.499878,160.210876 214.303329,157.365891 
	C218.319717,153.289993 221.683990,148.571487 225.650925,143.731796 
	C220.574203,140.751373 216.279892,137.326935 211.386520,135.630188 
	C207.117905,134.150070 201.764923,134.475693 198.196960,137.729050 
	C192.980591,142.485474 188.519745,148.070480 183.736893,153.302338 
	C184.719330,153.653137 185.377930,153.538513 185.810425,153.163269 
	C193.336487,146.633530 200.101349,148.300552 207.019867,155.423523 
M398.738953,160.731400 
	C390.767609,148.522278 381.527863,137.441589 370.072418,128.257065 
	C376.482666,140.613602 381.674530,153.379639 384.890442,166.797897 
	C386.272919,172.566330 389.127167,174.960663 395.059113,174.809296 
	C395.089508,170.026947 400.385590,170.383621 402.884216,167.385910 
	C401.563141,165.256058 400.347198,163.295700 398.738953,160.731400 
M369.435699,361.238220 
	C364.630554,360.831940 359.780670,360.697296 355.037415,359.915527 
	C352.278748,359.460876 350.761139,360.299561 349.116364,362.302094 
	C344.108917,368.398621 338.915527,374.342438 333.855469,380.274231 
	C347.276245,381.742340 375.035492,369.952820 382.026581,359.882385 
	C378.261597,360.319458 374.320709,360.776947 369.435699,361.238220 
M170.159805,344.895966 
	C168.057510,338.573944 166.493896,332.134094 165.314285,325.564514 
	C164.525040,321.169067 165.336746,316.021088 162.704285,312.501495 
	C157.243393,305.200256 150.862244,298.587311 144.227768,290.965759 
	C148.797409,313.242615 155.746841,333.266327 171.895279,350.643555 
	C171.149796,348.021271 170.798248,346.784668 170.159805,344.895966 
M275.224976,378.453125 
	C272.364594,377.603699 269.489685,376.799408 266.650116,375.885193 
	C265.293671,375.448456 263.956146,375.156982 263.042084,376.472809 
	C258.761749,382.634399 254.300766,388.654633 248.262894,394.663361 
	C264.658844,395.973389 277.806061,390.053925 291.499664,383.003967 
	C285.801910,381.426514 280.895691,380.068207 275.224976,378.453125 
M357.586945,186.279541 
	C350.916351,181.620651 344.245758,176.961761 336.702484,171.693375 
	C336.178406,180.534393 335.699188,187.934067 335.318542,195.338806 
	C335.137238,198.865616 336.967010,199.317215 339.727448,197.909332 
	C345.631927,194.897919 351.518524,191.851303 357.418945,188.831879 
	C358.442535,188.308105 359.132111,187.742065 357.586945,186.279541 
M356.340363,179.102585 
	C358.158539,180.165207 359.669678,181.894745 362.917450,181.780350 
	C363.351654,173.253204 365.525299,164.828812 364.190643,155.452988 
	C355.830292,159.198822 348.565033,163.237152 341.125366,167.939056 
	C345.968201,172.472458 351.067291,175.308533 356.340363,179.102585 
M310.099365,153.587784 
	C308.196350,153.152267 306.967560,154.332550 306.859558,155.831909 
	C306.321777,163.296417 304.875732,170.752548 305.751190,179.156387 
	C314.098389,175.464081 321.306641,171.533783 328.926239,166.525909 
	C322.372375,161.964249 316.560669,157.919159 310.099365,153.587784 
M327.935547,198.139114 
	C330.982086,197.892822 330.325409,195.271713 330.513092,193.593475 
	C331.084961,188.480270 331.373352,183.329834 331.596100,178.186264 
	C331.670380,176.471115 332.304901,174.510574 330.134369,172.586075 
	C323.126251,176.434479 315.971039,180.363632 307.844360,184.826279 
	C314.968323,189.607025 321.137543,193.747070 327.935547,198.139114 
M331.559204,160.893570 
	C333.816254,152.662903 334.071228,144.343658 333.292969,135.324249 
	C325.255676,138.700119 318.478180,142.586945 311.215088,147.149216 
	C317.902557,152.523590 324.120239,157.097824 331.559204,160.893570 
M338.980408,143.516266 
	C338.560455,149.585693 338.140503,155.655121 337.640381,162.883026 
	C345.846771,158.323151 353.514984,155.076447 360.876099,149.952789 
	C353.893219,144.894394 347.659271,140.330597 340.916534,136.753754 
	C338.751587,138.614883 339.431122,140.785309 338.980408,143.516266 
M157.198578,197.646072 
	C155.413040,202.916962 152.787338,207.910629 151.442886,214.742905 
	C159.643173,206.468781 166.971497,199.084549 174.277069,191.677826 
	C174.711365,191.237549 174.962799,190.616882 175.610504,189.583847 
	C170.082199,188.952148 172.176071,180.851456 165.664841,180.823563 
	C162.385574,185.776932 160.042358,191.416946 157.198578,197.646072 
M249.507782,99.133995 
	C250.547379,98.427994 252.117996,98.844086 252.939774,97.531448 
	C236.833557,99.796227 210.333694,110.453667 201.244415,118.414215 
	C202.751175,118.519478 204.287796,118.188522 205.296875,118.771179 
	C210.383698,121.708321 213.914124,118.725616 217.737854,116.028679 
	C227.413864,109.204033 237.767563,103.604874 249.507782,99.133995 
M226.647964,286.923706 
	C232.170593,284.128326 237.927338,281.737640 243.501068,277.809174 
	C237.318863,273.766632 232.336548,269.281586 226.183487,266.032196 
	C223.678574,272.844208 224.680878,279.272461 223.502274,285.410370 
	C223.168777,287.147156 224.310379,287.786499 226.647964,286.923706 
M307.663879,385.461609 
	C304.557434,385.240234 300.884338,383.838745 298.446350,385.009460 
	C289.649017,389.233856 281.072998,393.917389 271.820740,397.217072 
	C286.122314,397.775208 299.648163,395.468994 312.121674,388.053680 
	C311.000977,386.217316 309.639404,386.007080 307.663879,385.461609 
M249.331665,302.676849 
	C249.556107,304.048737 250.434799,305.021515 251.720505,304.468079 
	C257.246826,302.089203 262.668671,299.482025 268.382294,295.882324 
	C262.411041,290.909790 257.036011,287.032898 250.589249,282.992035 
	C250.197220,290.053558 248.948639,295.885681 249.331665,302.676849 
M263.089844,268.587616 
	C265.342957,267.085663 268.288116,266.561462 270.263336,263.772888 
	C264.521637,259.907227 259.102936,256.259033 252.571899,251.861938 
	C252.670013,259.927582 250.423141,266.563019 251.833771,273.647003 
	C256.175140,272.670563 259.126068,270.394867 263.089844,268.587616 
M270.318604,270.244934 
	C265.112244,273.019226 259.905884,275.793488 253.705872,279.097260 
	C259.854858,283.251740 264.698608,287.517151 270.846161,290.510040 
	C273.678894,283.957794 272.428619,277.524963 273.323669,271.383606 
	C273.535095,269.933105 272.334839,269.441101 270.318604,270.244934 
M247.094971,264.798248 
	C247.794250,260.761688 248.210785,256.740356 246.662033,252.015091 
	C240.524506,255.027023 234.663345,257.344543 228.564163,261.378845 
	C234.783401,265.767944 240.173950,269.572205 246.279465,273.881042 
	C246.564499,270.245422 246.744339,267.951508 247.094971,264.798248 
M232.194016,289.649475 
	C230.519653,290.819519 228.251083,291.211700 226.884842,293.556335 
	C232.376816,297.299683 237.351517,301.343872 243.825058,304.600708 
	C244.649933,297.310211 245.847061,290.675751 245.200363,283.146973 
	C240.530899,285.472046 236.679443,287.389832 232.194016,289.649475 
M266.986450,99.218262 
	C265.601288,99.573044 264.016541,99.549210 263.011627,101.544189 
	C266.851349,103.567955 269.924103,108.599487 274.664612,106.544029 
	C281.412415,103.618202 287.891449,99.972473 294.751892,96.885567 
	C291.051147,96.365196 287.427826,96.043182 283.885040,96.440117 
	C278.468628,97.046959 273.107758,98.149963 266.986450,99.218262 
M255.316681,314.298523 
	C260.747772,316.879272 265.560669,320.771027 272.045868,322.427826 
	C271.222748,318.562347 268.782104,316.227295 266.968994,313.596863 
	C261.194061,305.218628 261.140289,305.251526 252.573288,311.059814 
	C252.343552,311.215607 252.266663,311.596893 252.107162,311.894135 
	C252.531937,313.156830 253.818375,313.316437 255.316681,314.298523 
M339.004211,387.351135 
	C341.523438,386.391113 344.042633,385.431061 346.561859,384.471039 
	C334.955414,386.812500 321.836945,384.093292 312.304779,394.969849 
	C321.748596,394.043732 330.092163,391.096527 339.004211,387.351135 
M132.103027,274.706543 
	C133.764694,283.594849 135.897766,292.329742 140.400833,301.706482 
	C140.638367,288.644043 136.809769,275.656433 130.562592,266.981445 
	C131.032013,269.369202 131.477936,271.637390 132.103027,274.706543 
M407.558716,319.079254 
	C409.091400,318.180054 411.065857,317.946777 412.193726,315.881409 
	C408.923828,312.680176 405.156219,310.218353 400.591827,307.747131 
	C400.242706,312.888000 399.935486,317.411377 399.620331,322.051788 
	C402.720459,322.114319 404.641296,320.274414 407.558716,319.079254 
M381.116150,306.540192 
	C381.112518,308.058594 381.500610,309.470947 383.362518,308.621185 
	C386.759125,307.071136 390.381500,305.819550 393.494263,302.583618 
	C389.721344,299.689484 386.522400,296.553101 381.143860,294.699615 
	C381.143860,298.885101 381.143860,302.321014 381.116150,306.540192 
M177.357056,169.347809 
	C177.510666,172.892242 176.633392,176.522186 177.872971,180.308060 
	C182.214462,178.721710 185.644608,176.549088 189.169708,173.889679 
	C186.531021,170.651825 182.967590,169.082703 179.978851,166.818054 
	C177.892578,165.237228 177.485687,166.874451 177.357056,169.347809 
M195.557999,187.911591 
	C195.776657,189.427490 194.624771,191.209503 196.820129,192.755936 
	C200.213638,190.745728 204.529327,190.068451 208.055344,186.518188 
	C204.242767,183.489822 201.037109,180.610748 196.607666,178.902832 
	C196.259476,181.952896 195.961075,184.566803 195.557999,187.911591 
M180.506348,185.742111 
	C183.662018,188.294266 186.831635,190.822861 191.177277,192.286880 
	C191.887238,187.634201 192.047409,183.386307 191.292435,178.616714 
	C187.129135,180.737671 183.116669,182.054123 180.506348,185.742111 
M315.614136,258.297363 
	C318.248413,254.011124 317.308258,250.290100 313.267029,249.423111 
	C310.882996,248.911652 308.527374,249.210388 307.130524,251.531174 
	C305.846832,253.663895 305.607178,256.065399 307.394470,257.989258 
	C309.596924,260.360077 312.306549,260.401825 315.614136,258.297363 
M407.802795,301.182465 
	C406.628510,301.996460 404.970978,302.307220 404.662628,304.410645 
	C407.802155,306.965363 410.744232,309.989166 415.489105,311.223145 
	C415.833893,306.472534 416.145203,302.182922 416.471710,297.683929 
	C412.917603,298.040558 410.858276,299.901184 407.802795,301.182465 
M385.746765,316.279572 
	C388.695923,318.269012 391.419342,320.654480 395.216522,322.025360 
	C395.856445,317.240234 396.102783,312.919739 395.445984,307.871643 
	C391.947205,309.716858 388.890778,311.282745 385.882965,312.937134 
	C384.629761,313.626434 383.558014,314.519501 385.746765,316.279572 
M200.581696,157.269302 
	C199.059006,156.486084 197.847763,156.892639 197.659058,158.575180 
	C197.267731,162.064285 196.683472,165.609894 197.970551,169.282059 
	C202.257095,168.056000 205.614456,165.849243 209.822479,163.304428 
	C206.582703,161.153275 203.885605,159.362442 200.581696,157.269302 
M211.747345,174.554688 
	C211.463623,172.704697 212.653885,170.629410 210.828979,168.791077 
	C206.971817,170.100159 203.383759,171.813751 199.969666,174.720032 
	C203.532516,177.634659 206.693481,180.403778 210.824158,181.900406 
	C212.182816,179.678589 211.453522,177.475098 211.747345,174.554688 
M387.379608,289.435181 
	C386.458374,290.117920 385.102112,290.855499 386.590759,292.050507 
	C389.348602,294.264374 391.919037,296.888214 395.907806,297.568176 
	C397.691589,293.614319 398.340485,289.828644 396.930206,285.730072 
	C393.371185,285.988342 390.794373,287.880127 387.379608,289.435181 
M401.302856,294.276276 
	C401.526001,295.613678 400.633881,297.315338 402.726440,298.211090 
	C406.309814,296.641479 410.129517,295.288696 413.480713,291.874176 
	C409.718536,289.659454 407.093201,286.340759 402.472687,286.049591 
	C401.564545,288.585236 401.359589,291.018768 401.302856,294.276276 
M192.495102,167.898636 
	C192.705261,164.156204 193.349472,160.414001 192.718582,156.255157 
	C188.532394,157.563614 184.728348,158.792511 181.233429,162.020264 
	C184.915375,164.671585 187.567017,168.115799 192.495102,167.898636 
M319.772125,347.479919 
	C319.355988,351.250031 317.592010,354.970062 319.118439,359.119720 
	C323.226196,357.993988 326.632660,356.351044 329.578827,353.185364 
	C326.659485,350.561066 323.831116,348.417847 319.772125,347.479919 
M310.813416,368.655121 
	C308.238586,370.257507 305.031586,370.895050 302.627716,373.722534 
	C306.053162,376.100464 309.125610,378.233398 312.512726,380.584747 
	C314.413635,376.425629 313.678711,372.619873 313.488159,368.909393 
	C313.433441,367.843506 312.224762,368.194183 310.813416,368.655121 
M427.417816,210.195953 
	C428.956848,214.504166 430.495880,218.812363 432.034912,223.120575 
	C432.147491,220.132721 432.017456,217.286972 431.397430,214.552338 
	C430.221680,209.366776 428.837555,204.224258 427.381226,199.109070 
	C426.941833,197.565689 426.164093,195.532867 423.948822,196.638138 
	C422.003998,197.608505 423.378723,199.272278 423.839752,200.571503 
	C424.897186,203.551407 426.069946,206.490387 427.417816,210.195953 
M329.382416,369.736816 
	C330.788544,370.487701 331.471130,369.922241 331.864136,368.503082 
	C332.745789,365.319366 333.120148,362.156158 332.055389,358.598236 
	C328.184814,359.986267 324.530670,361.061615 321.627960,364.394897 
	C324.243164,366.224579 326.524933,367.820984 329.382416,369.736816 
M303.531616,357.265198 
	C302.662109,356.952026 302.054443,355.831116 300.373688,356.642181 
	C301.013611,360.030518 298.246460,364.734314 301.424622,366.957825 
	C304.110718,368.837128 307.546997,365.105438 310.495483,363.486816 
	C310.689697,363.380249 310.683289,362.908203 310.875519,362.240204 
	C308.681946,360.731750 306.395966,359.159760 303.531616,357.265198 
M213.068100,369.123108 
	C212.709320,372.123871 211.621735,375.152222 213.070526,378.383911 
	C216.841766,377.011566 220.172485,375.738617 223.437988,373.362366 
	C220.981354,370.426117 217.916809,368.786621 215.044296,366.928253 
	C213.071472,365.651886 213.363327,367.418274 213.068100,369.123108 
M216.671112,346.063171 
	C215.580856,345.622681 214.534027,345.702667 214.433334,347.049072 
	C214.181808,350.412048 213.468185,353.797058 214.188080,357.528900 
	C218.170471,355.811340 221.711548,354.274963 225.151169,351.575958 
	C222.255920,349.662445 219.767120,348.017548 216.671112,346.063171 
M307.855865,349.154755 
	C306.770752,350.007751 304.932068,350.142334 304.990265,352.268951 
	C307.458984,354.817261 310.303619,356.885162 314.345642,358.459778 
	C314.606201,354.302795 315.282684,350.689575 314.228455,346.986359 
	C311.853638,346.789673 310.293732,348.232422 307.855865,349.154755 
M203.487808,363.297211 
	C204.320892,362.603455 205.804901,362.583160 205.844162,360.806244 
	C203.447083,358.279144 200.597290,356.208771 196.602692,354.535919 
	C196.242523,358.668793 195.923370,362.330902 195.594711,366.101990 
	C198.751160,366.384766 200.694946,364.632385 203.487808,363.297211 
M317.979889,375.114899 
	C318.010101,376.719330 316.947388,378.313049 318.043549,380.201416 
	C321.811554,379.658813 324.873444,377.637726 328.223724,375.380829 
	C325.523315,372.317383 322.823334,369.903168 319.141388,368.772430 
	C317.830322,370.673065 318.381958,372.574402 317.979889,375.114899 
M206.901245,345.820343 
	C204.516144,347.159668 201.594131,347.660950 199.609283,350.219299 
	C202.677856,352.752228 205.104095,355.677917 209.823502,356.221619 
	C209.823502,352.990814 209.799057,350.187775 209.832657,347.385468 
	C209.852829,345.703796 209.378891,344.749817 206.901245,345.820343 
M226.440094,357.478424 
	C222.503738,357.580475 219.655670,359.774750 216.540955,362.213562 
	C219.632187,364.780151 222.176300,367.286926 226.061859,368.419403 
	C227.081390,364.818420 227.201050,361.457092 226.440094,357.478424 
M406.169952,163.005264 
	C407.179962,164.134064 407.908142,166.213470 410.293640,163.763672 
	C405.621338,156.655380 401.162628,149.368179 393.647369,144.490082 
	C397.693573,150.482239 401.739807,156.474411 406.169952,163.005264 
M208.691055,368.538208 
	C208.594086,367.425049 208.806015,365.717316 206.914673,366.657379 
	C204.172638,368.020203 201.121597,368.977570 198.792221,371.459930 
	C201.288147,374.440216 204.188324,376.102753 207.601166,377.179382 
	C209.406494,374.563873 208.347275,371.818329 208.691055,368.538208 
M350.424683,352.006683 
	C353.072388,348.191040 355.905182,344.482056 358.049225,339.237305 
	C352.583252,343.918915 347.887360,347.940948 342.861084,352.246002 
	C345.673065,353.385406 347.775574,354.570099 350.424683,352.006683 
M172.775848,255.845139 
	C171.065720,253.704956 169.070663,253.036026 166.802567,254.926331 
	C165.043213,256.392639 164.729919,258.393311 165.822388,260.302765 
	C166.823578,262.052673 168.664185,262.700104 170.561539,261.945587 
	C173.023560,260.966553 174.216995,259.159271 172.775848,255.845139 
M337.290527,363.366394 
	C337.488098,364.726501 336.651123,366.256287 338.080688,367.690674 
	C340.683197,364.803589 343.659637,362.357208 344.913025,358.527557 
	C339.034821,356.351868 338.180756,356.842651 337.290527,363.366394 
M154.323715,242.952927 
	C156.212357,240.274857 155.672180,237.365662 155.416870,233.789276 
	C152.447113,235.124283 149.805191,235.878555 147.570221,238.099640 
	C149.139664,240.545700 151.322342,241.933792 154.323715,242.952927 
M150.451019,231.266251 
	C151.278641,230.579498 152.785522,230.581543 152.758957,228.767807 
	C150.747253,227.024643 148.505814,225.521683 145.367157,225.040924 
	C144.424225,227.879150 143.794189,230.462341 144.956039,233.131134 
	C147.068542,233.358215 148.449326,232.406235 150.451019,231.266251 
M131.054703,241.126312 
	C133.144638,240.186111 135.360977,239.461288 137.225601,237.579880 
	C135.401382,235.066010 133.173004,233.424347 129.932358,232.463516 
	C129.419571,235.650757 128.257050,238.446869 131.054703,241.126312 
M148.308304,249.922531 
	C149.217453,249.105698 150.866180,249.092850 151.063736,247.246811 
	C149.213043,245.381638 147.380188,243.385056 144.050903,242.940002 
	C143.240067,245.833313 142.929108,248.445908 143.825653,251.040161 
	C145.505325,251.780197 146.533813,250.693985 148.308304,249.922531 
M132.122498,252.977524 
	C132.252335,258.229797 135.006027,262.521027 137.461243,268.122101 
	C137.596207,261.704681 139.355652,255.947784 132.122498,252.977524 
M139.676987,245.693222 
	C139.533234,244.595840 140.087723,243.363174 138.851730,242.236298 
	C136.238937,242.841934 133.896866,244.042969 131.927811,246.256912 
	C134.032303,248.333481 135.868225,250.196304 138.567413,250.703323 
	C140.021881,249.439072 139.511826,247.842789 139.676987,245.693222 
M246.325485,119.372932 
	C246.487198,120.611267 245.873672,122.036911 247.357269,123.155510 
	C249.860931,122.583336 251.887772,121.030869 254.263275,119.329330 
	C252.127548,117.080414 250.026855,115.459335 247.383484,114.769127 
	C245.927261,115.961853 246.505829,117.381599 246.325485,119.372932 
M403.865692,185.327667 
	C405.216278,184.454788 406.927673,184.050262 407.917999,181.955719 
	C405.730072,180.530701 403.800049,178.644089 401.044495,177.894150 
	C399.998108,180.138382 400.373871,182.133484 400.327789,184.067932 
	C400.271790,186.416031 401.639801,186.337189 403.865692,185.327667 
M140.700775,227.247772 
	C137.640076,222.543808 136.016266,227.357971 133.271469,227.944717 
	C135.241867,230.555054 137.057556,232.295685 139.940750,232.936584 
	C140.925613,231.228653 140.581131,229.541443 140.700775,227.247772 
M264.339661,130.769836 
	C265.563599,130.038986 267.230896,129.724457 267.181427,127.621338 
	C265.495514,125.940094 263.664612,124.397057 261.167419,123.891006 
	C259.815216,125.747559 260.439911,127.619705 260.337708,129.373077 
	C260.154785,132.510315 261.833618,132.086258 264.339661,130.769836 
M266.635834,121.917473 
	C268.022064,122.639275 269.043274,124.329788 271.112488,123.570602 
	C271.913971,121.195389 271.933746,118.816246 271.252411,116.392738 
	C265.529785,117.640038 264.668121,118.525459 266.635834,121.917473 
M410.022644,193.673355 
	C410.501434,191.600311 411.049042,189.528900 410.161652,187.181488 
	C407.290100,187.616058 405.212555,189.272675 402.552368,191.200378 
	C405.369232,192.389099 406.564331,195.471069 410.022644,193.673355 
M267.780670,112.030373 
	C267.197113,108.533821 264.542297,107.919342 261.498840,107.212952 
	C261.372467,109.989906 260.903534,112.362694 261.789307,114.700058 
	C264.178894,114.747276 265.681488,113.375015 267.780670,112.030373 
M250.987228,126.190834 
	C250.014877,129.195221 250.692307,129.862167 256.144684,131.084656 
	C256.912964,128.742340 256.940033,126.447884 256.216827,124.153625 
	C254.114990,123.760422 252.925034,125.080673 250.987228,126.190834 
M415.273865,175.267670 
	C415.373810,176.374817 415.043274,178.126938 416.485718,178.105911 
	C418.760071,178.072754 420.814972,177.003815 422.451630,174.733673 
	C420.215851,173.178192 418.429047,171.547195 415.651794,170.862534 
	C415.502930,172.325653 415.389526,173.440323 415.273865,175.267670 
M254.091232,107.677818 
	C253.043045,108.659637 251.332565,108.840828 250.622101,110.715324 
	C252.069382,112.413658 253.763321,113.764778 256.194366,113.970222 
	C258.581238,108.794930 258.218445,107.316597 254.091232,107.677818 
M414.376160,189.381927 
	C414.487579,191.143936 413.780975,193.003067 415.072510,194.866058 
	C417.305176,194.375336 419.340332,193.599686 421.573608,191.194031 
	C418.613251,190.780792 417.990265,186.645035 414.376160,189.381927 
M408.357971,170.958313 
	C407.050659,172.029404 404.882568,171.974655 404.118744,174.320282 
	C406.155457,175.195038 407.397430,177.396561 409.909851,177.413635 
	C411.763855,171.700562 411.763855,171.700562 408.357971,170.958313 
M424.263733,180.569153 
	C421.708282,180.550919 419.713501,181.702744 417.669220,183.503754 
	C419.442078,185.322906 420.924866,186.959442 423.446594,187.245056 
	C425.052948,185.293839 424.690918,183.156906 424.263733,180.569153 
M300.132202,342.331329 
	C298.551727,341.679199 297.025116,340.779846 295.075836,341.000214 
	C298.213776,347.540558 299.572815,348.053619 303.765198,344.220459 
	C302.700317,343.646698 301.716553,343.116608 300.132202,342.331329 
M391.503021,208.947723 
	C390.300323,206.899750 388.754089,206.813721 387.211304,208.424942 
	C386.273651,209.404160 386.549835,210.717529 387.683594,211.315857 
	C389.511383,212.280441 391.159454,212.166962 391.503021,208.947723 
M221.686569,386.199585 
	C222.437759,384.138184 221.471924,382.547028 219.783066,381.827850 
	C218.655594,381.347748 217.208679,381.994507 217.032303,383.732788 
	C218.024536,385.252808 219.600555,385.748993 221.686569,386.199585 
M202.990311,129.392380 
	C204.895554,129.637009 205.915131,128.755371 205.640091,126.889389 
	C205.431381,125.473427 204.109589,125.033287 202.970139,125.523880 
	C201.161285,126.302704 201.200592,127.675690 202.990311,129.392380 
M171.894272,169.815689 
	C170.451981,171.710159 168.289337,173.476578 170.759323,177.125381 
	C172.325439,174.257004 172.851852,172.184464 171.894272,169.815689 
z"/>
</svg>