<svg version="1.1" id="Layer_1" xmlns="http://www.w3.org/2000/svg" xmlns:xlink="http://www.w3.org/1999/xlink" x="0px" y="0px"
	 width="100%" viewBox="0 0 1024 1024" enable-background="new 0 0 1024 1024" xml:space="preserve">
<path fill="#000000" opacity="1.000000" stroke="none" 
	d="
M656.344177,659.190796 
	C645.622742,655.157349 636.461853,648.968079 626.753784,643.841003 
	C621.681519,641.162231 617.517700,640.793335 612.375854,643.918213 
	C598.207275,652.529236 582.921692,658.681213 566.767578,662.497681 
	C561.859253,663.657227 559.122437,666.210876 557.796387,671.219971 
	C555.328796,680.541016 552.309998,689.719910 549.388000,698.915771 
	C547.219543,705.740234 544.555847,707.871033 537.404724,707.939697 
	C521.410706,708.093262 505.413696,708.102234 489.419464,707.976135 
	C481.735962,707.915588 479.072632,705.785583 476.708527,698.477295 
	C473.686981,689.136719 470.689819,679.786255 467.861359,670.386108 
	C466.677979,666.453125 464.271576,664.298157 460.354340,663.260437 
	C442.880188,658.631226 426.247375,651.918884 410.686188,642.668396 
	C407.620331,640.845886 404.703583,641.032410 401.696686,642.649841 
	C393.190491,647.225281 384.667694,651.769897 376.171173,656.363220 
	C367.765442,660.907471 364.729370,660.565674 358.064148,653.907166 
	C347.220276,643.074341 336.421204,632.196350 325.639282,621.301758 
	C320.050537,615.654602 319.363129,612.262268 322.872009,605.189941 
	C327.386566,596.090393 332.086517,587.079102 336.896088,578.131592 
	C338.761414,574.661499 338.670197,571.611145 336.609161,568.317383 
	C326.994019,552.951538 320.181458,536.363953 315.443115,518.909424 
	C314.280609,514.627075 311.827637,512.207642 307.435394,511.040619 
	C298.596344,508.691956 289.876007,505.894409 281.115417,503.253204 
	C273.109985,500.839661 270.906738,497.911896 270.896240,489.539215 
	C270.876587,473.877045 270.885223,458.214722 270.923828,442.552612 
	C270.944611,434.108002 273.005066,431.325287 281.190979,428.953278 
	C289.820160,426.452789 298.439789,423.878448 307.172394,421.791504 
	C312.217712,420.585785 314.613312,417.859100 315.872406,412.890106 
	C320.194824,395.832184 327.104492,379.791473 336.388550,364.843689 
	C338.693634,361.132355 338.870361,357.872620 336.896027,354.121857 
	C332.629852,346.017151 328.522614,337.828918 324.307739,329.696991 
	C319.546844,320.511688 320.065826,317.175812 327.384796,309.859253 
	C337.754089,299.493378 348.074707,289.078766 358.454346,278.723297 
	C364.631622,272.560333 368.543182,272.051819 376.287170,276.277252 
	C384.767609,280.904541 393.257996,285.514435 401.696686,290.216919 
	C405.246155,292.194916 408.522583,292.147766 412.036652,290.007202 
	C426.940002,280.928955 442.979462,274.490112 459.846680,270.169373 
	C464.271667,269.035828 466.598175,266.615845 467.817932,262.321747 
	C470.363495,253.360291 473.262329,244.499710 475.962830,235.581558 
	C478.325165,227.780121 481.084412,225.669479 489.257690,225.664795 
	C505.086548,225.655716 520.915466,225.643448 536.744263,225.679337 
	C544.712830,225.697403 547.023254,227.476379 549.353271,234.995407 
	C552.160217,244.053696 555.117371,253.067200 557.790405,262.164490 
	C559.040710,266.419830 561.462891,268.969635 565.796265,270.115784 
	C582.941528,274.650696 599.360657,280.964081 614.427856,290.490662 
	C618.032471,292.769745 621.398560,291.590363 624.774902,289.722229 
	C632.935608,285.206909 641.133240,280.757538 649.344116,276.333862 
	C657.555847,271.909729 661.580261,272.583984 668.003113,279.054504 
	C678.214417,289.341583 688.498047,299.556915 698.756348,309.797394 
	C706.291260,317.319244 706.765259,319.747711 702.069763,329.094543 
	C697.808777,337.576599 693.486938,346.030304 689.033508,354.412323 
	C687.195618,357.871674 687.358276,360.894653 689.402588,364.226166 
	C698.960571,379.802551 706.020569,396.461578 710.467102,414.197052 
	C711.463623,418.171600 713.765320,420.355499 717.757996,421.438202 
	C727.069519,423.963257 736.297729,426.797791 745.545837,429.553467 
	C752.782837,431.709869 754.955322,434.219543 755.023499,441.645508 
	C755.176331,458.305786 755.162048,474.969055 755.037720,491.629730 
	C754.991821,497.780701 752.751282,500.700775 746.718262,502.560059 
	C736.860962,505.597931 726.945862,508.461578 716.991699,511.164734 
	C713.333618,512.158142 711.288574,514.208923 710.404236,517.800537 
	C705.994141,535.711487 699.261841,552.669495 689.339783,568.276306 
	C687.241577,571.576782 687.224731,574.600342 689.073425,578.077454 
	C693.842407,587.047485 698.389526,596.136536 702.954041,605.213867 
	C706.550659,612.366394 706.087158,615.498901 700.391602,621.271729 
	C689.274780,632.539368 678.060364,643.710571 666.917480,654.952515 
	C664.095642,657.799438 660.979431,659.792053 656.344177,659.190796 
M433.857635,316.402527 
	C430.403046,318.413666 426.867798,320.299011 423.505859,322.454681 
	C364.825195,360.080719 337.916687,414.269928 342.768158,483.221344 
	C345.570862,523.054932 363.017822,557.412720 391.077179,586.014221 
	C440.109253,635.993713 515.609314,651.389954 579.641113,622.920959 
	C641.414124,595.456116 676.443115,546.952209 683.272400,479.815887 
	C687.405151,439.188812 676.545471,401.416473 651.966064,368.348114 
	C621.118347,326.846527 579.790100,302.731232 528.309082,297.638306 
	C495.485413,294.391083 463.989563,300.810699 433.857635,316.402527 
z"/>
<path fill="#000000" opacity="1.000000" stroke="none" 
	d="
M712.246704,747.945312 
	C720.788086,747.966309 720.700012,748.004395 723.962585,755.548035 
	C728.852234,766.853760 733.889832,778.095581 738.839844,789.375366 
	C739.690369,791.313660 740.940796,793.153687 740.786987,795.647705 
	C736.799255,796.946350 732.817078,796.410400 728.916626,796.158813 
	C726.485840,796.001953 726.108215,793.529541 725.529114,791.694885 
	C724.462402,788.315491 722.403442,786.856079 718.822937,787.251038 
	C716.683716,787.487061 714.479858,787.459778 712.334351,787.250610 
	C707.266785,786.756409 703.085938,787.340698 701.966553,793.512085 
	C701.556580,795.772400 699.616516,796.420532 697.353271,796.412659 
	C683.027405,796.362732 668.701233,796.358521 654.375488,796.419312 
	C651.657104,796.430847 650.536804,795.490173 650.563232,792.622437 
	C650.687561,779.130127 650.698975,765.635986 650.621643,752.143250 
	C650.602600,748.820862 652.156006,747.680359 655.195862,747.807556 
	C656.692749,747.870178 658.198242,747.911621 659.692078,747.826782 
	C663.113159,747.632629 664.407532,749.176086 664.356262,752.592407 
	C664.221069,761.585815 664.517029,770.588867 664.242554,779.575867 
	C664.099915,784.249146 665.766541,785.926208 670.364380,785.407288 
	C673.825378,785.016602 677.359375,785.311218 680.836365,785.014038 
	C685.431824,784.621399 688.343323,786.046204 688.884888,791.279053 
	C694.375122,778.465759 699.949463,765.687378 705.295227,752.814087 
	C706.592834,749.689209 708.171570,747.615112 712.246704,747.945312 
M715.061768,766.031555 
	C714.573364,765.266602 713.813110,764.580322 713.271667,765.704651 
	C711.725098,768.916077 710.129822,772.143372 709.498840,775.969360 
	C712.681580,776.786560 715.445557,777.241028 718.207153,775.689575 
	C718.179382,772.186279 716.349854,769.514099 715.061768,766.031555 
z"/>
<path fill="#000000" opacity="1.000000" stroke="none" 
	d="
M769.907471,796.350037 
	C762.930603,796.348633 756.434814,796.183960 749.952087,796.403076 
	C745.994019,796.536804 744.731689,794.970276 744.780945,791.125916 
	C744.942871,778.480408 744.936096,765.830383 744.784363,753.184570 
	C744.739380,749.440002 745.835205,747.605957 749.854370,747.760620 
	C758.320190,748.086609 766.847351,746.963257 775.257751,748.502380 
	C788.082397,750.849365 791.648254,759.626160 784.208801,770.198547 
	C784.262268,770.512207 784.209106,770.967651 784.397705,771.116394 
	C789.290771,774.975891 791.489136,779.871399 789.881165,786.044373 
	C788.154541,792.673340 782.906189,794.971313 776.861877,795.990295 
	C774.745972,796.347046 772.552246,796.242493 769.907471,796.350037 
M758.980103,779.091919 
	C758.802063,781.493591 757.837891,784.739502 760.893860,785.439880 
	C765.002869,786.381592 769.409424,786.501465 773.546570,784.930176 
	C775.268005,784.276306 776.023071,782.820129 775.843811,780.967224 
	C775.662659,779.094421 774.522278,777.657593 772.788513,777.568054 
	C768.284485,777.335571 763.671509,776.140808 758.980103,779.091919 
M771.933777,765.705444 
	C774.570007,761.766052 773.921021,759.515747 769.666016,758.678833 
	C767.588318,758.270203 765.390503,758.501526 763.252014,758.365356 
	C760.366028,758.181580 759.019653,759.345154 759.018555,762.372070 
	C759.017395,765.482178 760.172302,767.020447 763.405090,766.783386 
	C766.021973,766.591553 768.697693,767.102539 771.933777,765.705444 
z"/>
<path fill="#000000" opacity="1.000000" stroke="none" 
	d="
M347.417419,784.871704 
	C347.186035,786.913208 347.063232,788.574524 347.028992,790.237610 
	C346.896423,796.681458 346.726257,796.855896 340.136902,796.876648 
	C332.803040,796.899719 332.694336,796.801208 332.686615,789.363525 
	C332.674347,777.531128 332.871918,765.693909 332.580170,753.868652 
	C332.463501,749.139465 334.274414,747.632629 338.693848,747.877991 
	C345.501770,748.255798 352.343201,747.337280 359.146179,748.470459 
	C366.578430,749.708496 372.540527,752.923706 374.681793,760.637146 
	C376.705597,767.927429 375.568726,774.558960 369.009125,779.352600 
	C366.830139,780.944946 367.831207,782.431030 368.861633,784.046082 
	C371.262939,787.809875 373.635834,791.591736 376.047272,795.408997 
	C368.285522,799.082764 362.237701,797.214233 358.109467,790.516479 
	C356.047028,787.170410 354.980469,782.267761 349.238892,783.520935 
	C348.639374,783.651672 348.122070,784.159424 347.417419,784.871704 
M357.087036,760.271912 
	C356.447052,760.105652 355.815857,759.856689 355.165497,759.787415 
	C352.268341,759.478760 348.745300,758.244629 347.125916,761.540955 
	C345.593872,764.659790 345.488617,768.766052 347.361816,771.568787 
	C348.976990,773.985535 352.515045,772.531494 355.235291,772.115356 
	C355.560150,772.065613 355.871582,771.933594 356.194824,771.866455 
	C359.055145,771.271912 361.025421,769.654114 361.550934,766.729980 
	C362.101196,763.668213 360.526062,761.696594 357.087036,760.271912 
z"/>
<path fill="#000000" opacity="1.000000" stroke="none" 
	d="
M430.471405,784.190796 
	C424.952301,795.507263 411.896240,799.161621 400.233124,796.828552 
	C389.122009,794.605896 381.823730,786.462708 380.537811,775.747925 
	C379.246582,764.989441 383.906769,755.320190 392.739563,750.430847 
	C402.405243,745.080383 415.792603,746.176697 424.241333,753.010620 
	C431.996735,759.283752 435.118744,770.479675 431.908997,780.598999 
	C431.558441,781.704224 431.067444,782.764893 430.471405,784.190796 
M397.667480,781.803223 
	C402.212036,785.851685 407.205231,787.010010 412.766205,784.035828 
	C417.659790,781.418579 419.646912,776.750977 418.861084,769.964600 
	C418.198761,764.244812 414.604095,760.301880 409.233398,759.404175 
	C402.988495,758.360291 397.660919,761.033386 395.378540,766.578796 
	C393.249908,771.750610 394.130096,776.652771 397.667480,781.803223 
z"/>
<path fill="#000000" opacity="1.000000" stroke="none" 
	d="
M530.393616,755.389771 
	C527.039612,759.121521 524.071472,762.740723 520.760742,766.013306 
	C518.341858,768.404358 518.474792,770.380493 520.415833,772.908203 
	C524.879395,778.720947 529.195374,784.647217 533.552917,790.540955 
	C534.620544,791.984924 535.987427,793.271729 536.326538,795.150146 
	C528.792725,798.478821 521.699036,796.571838 516.949707,790.356873 
	C514.255554,786.831421 512.283386,782.704285 508.769287,779.751587 
	C504.390411,782.133423 503.179199,785.698486 503.301453,790.255188 
	C503.464661,796.336548 503.256927,796.067627 496.194122,796.416138 
	C491.246460,796.660278 489.424683,795.184143 489.565033,789.997742 
	C489.898438,777.676575 489.893097,765.333496 489.552124,753.012390 
	C489.386749,747.036560 493.095947,747.813049 496.763885,747.711060 
	C500.500061,747.607300 503.885590,747.486877 503.414429,752.964661 
	C503.060364,757.080933 503.344452,761.252014 504.472778,766.225098 
	C508.578400,761.876465 512.754395,757.591675 516.772095,753.163269 
	C521.890503,747.521484 527.168213,746.178284 535.160767,748.867004 
	C534.696472,751.715088 532.147644,753.072937 530.393616,755.389771 
z"/>
<path fill="#000000" opacity="1.000000" stroke="none" 
	d="
M306.558746,747.972046 
	C314.875488,749.156616 322.032288,751.358093 325.105133,759.846008 
	C328.934723,770.424377 323.335541,780.739807 312.339813,783.194702 
	C308.763702,783.993164 305.119934,784.388367 301.444733,784.146851 
	C298.507935,783.953979 297.085968,785.164490 297.278351,788.203491 
	C297.383179,789.858765 297.223572,791.529236 297.285492,793.189087 
	C297.378479,795.682739 296.214752,796.893494 293.745117,796.910889 
	C293.080444,796.915527 292.415955,796.943481 291.751312,796.958862 
	C282.858337,797.164795 282.837616,797.149719 282.832794,788.376648 
	C282.826477,776.905518 283.029938,765.429199 282.734222,753.965698 
	C282.606873,749.029114 284.528076,747.511230 289.154114,747.743835 
	C294.793671,748.027405 300.454773,747.883362 306.558746,747.972046 
M304.855682,759.475647 
	C303.866516,759.441345 302.874329,759.341370 301.888824,759.386780 
	C299.993988,759.474121 297.386047,758.887085 297.358734,761.803101 
	C297.326202,765.278687 295.456299,769.743164 298.808105,771.966431 
	C301.793640,773.946838 305.889587,772.809509 309.200165,771.006836 
	C311.502716,769.753052 312.036774,767.534180 311.808868,765.045349 
	C311.464508,761.284851 308.635193,760.384827 304.855682,759.475647 
z"/>
<path fill="#000000" opacity="1.000000" stroke="none" 
	d="
M557.561096,766.631592 
	C562.490356,766.661133 566.987244,766.815186 571.472412,766.649963 
	C575.123474,766.515442 575.568359,768.645325 575.368469,771.433899 
	C575.169556,774.210388 576.450928,777.884644 571.564941,777.921326 
	C567.406250,777.952576 563.247437,778.012512 559.088928,777.996765 
	C556.332031,777.986328 554.170227,778.324951 554.278442,781.992920 
	C554.378418,785.384277 556.391968,785.662537 558.948303,785.594543 
	C564.099976,785.457642 569.264465,785.533936 574.401367,785.189941 
	C578.536804,784.913025 579.535522,786.844604 579.464355,790.539490 
	C579.399170,793.924561 579.730042,796.690552 574.745667,796.512695 
	C564.941895,796.162842 555.116516,796.290649 545.302734,796.421631 
	C541.887085,796.467163 540.579590,795.276978 540.615601,791.797241 
	C540.749939,778.821838 540.758362,765.843445 540.625000,752.868103 
	C540.587524,749.223083 541.925354,747.789001 545.570557,747.825684 
	C554.885803,747.919495 564.206238,747.924683 573.518250,747.699890 
	C577.724487,747.598450 578.501282,749.667542 578.409241,753.250000 
	C578.318909,756.767090 578.585205,760.045471 573.523376,759.924316 
	C567.392212,759.777466 561.254822,759.889465 554.801636,759.889465 
	C554.669067,762.610413 552.591736,765.627441 557.561096,766.631592 
z"/>
<path fill="#000000" opacity="1.000000" stroke="none" 
	d="
M254.705872,778.396729 
	C250.896042,777.587585 247.501175,776.773682 244.352783,775.203369 
	C234.909760,770.493713 233.773422,758.094055 242.107574,751.673279 
	C250.494034,745.212280 265.509552,746.487915 272.667114,750.125732 
	C277.497223,752.580566 273.056122,755.899841 272.708801,758.767883 
	C272.361450,761.636353 270.491760,761.811157 267.921143,760.925964 
	C263.711090,759.476135 259.437683,757.859924 254.816971,758.877075 
	C252.975403,759.282532 251.123947,759.911560 250.902557,762.126160 
	C250.661194,764.540344 252.693161,765.151428 254.411636,765.651123 
	C258.395325,766.809448 262.485321,767.614990 266.440186,768.856628 
	C273.787018,771.163269 277.062042,775.119995 277.259949,781.487183 
	C277.444824,787.435303 273.529999,793.119446 267.127319,795.496582 
	C257.945648,798.905579 248.795624,797.982361 239.900040,794.351685 
	C234.512878,792.153015 237.613724,788.415466 238.603973,785.126404 
	C239.763260,781.275879 242.185883,782.686218 244.526489,783.676392 
	C248.681183,785.433777 252.900314,787.119568 257.518280,786.369202 
	C259.571808,786.035461 262.217285,785.671509 262.463776,782.976868 
	C262.733643,780.026306 259.916138,779.980957 257.985352,779.264587 
	C257.053406,778.918823 256.066650,778.720825 254.705872,778.396729 
z"/>
<path fill="#000000" opacity="1.000000" stroke="none" 
	d="
M478.565552,751.325562 
	C480.598633,753.188171 483.965179,754.398743 482.812317,757.170349 
	C481.652618,759.958374 479.039795,762.231323 476.289917,763.823669 
	C474.670685,764.761292 473.628082,762.975586 472.449097,762.173401 
	C467.026886,758.483704 460.563843,758.318726 456.176453,761.787781 
	C451.723419,765.308777 450.228210,772.380066 452.713898,778.163269 
	C455.573700,784.816895 463.214539,787.332703 469.890015,784.028259 
	C472.081024,782.943604 473.563995,779.491638 476.059937,780.525146 
	C479.174347,781.814819 481.717926,784.457947 483.833649,787.582458 
	C477.404938,796.607971 468.482941,798.689880 458.289032,797.214294 
	C448.090942,795.737976 440.280487,788.408936 437.922180,777.833374 
	C435.796753,768.302124 438.276520,759.854370 445.793579,753.547485 
	C454.239807,746.461060 463.942291,745.018555 474.309631,748.992615 
	C475.694153,749.523315 476.948151,750.394592 478.565552,751.325562 
z"/>
<path fill="#000000" opacity="1.000000" stroke="none" 
	d="
M595.004272,760.149536 
	C591.398193,758.989868 588.066345,759.413452 584.764221,759.599548 
	C581.010742,759.811096 580.707886,757.365051 580.924927,754.714966 
	C581.142883,752.054382 579.405212,748.000916 584.323486,747.932739 
	C596.464294,747.764404 608.612488,747.673706 620.750061,747.924072 
	C626.635803,748.045471 623.817078,753.065735 624.425781,755.988647 
	C625.084229,759.150635 623.003113,759.978943 620.247681,759.917419 
	C617.131714,759.847778 614.012878,759.901306 610.156128,759.901306 
	C610.156128,767.162842 610.154907,774.257935 610.156860,781.353088 
	C610.157532,783.848389 610.175110,786.343628 610.168945,788.838928 
	C610.150330,796.326538 610.147217,796.326477 602.731750,796.304016 
	C595.971497,796.283508 596.150879,796.277405 595.908325,789.235474 
	C595.577576,779.630188 596.939026,769.992310 595.004272,760.149536 
z"/>
<path fill="#000000" opacity="1.000000" stroke="none" 
	d="
M671.431885,434.747620 
	C679.102234,475.266724 673.146667,513.198120 651.893921,548.097656 
	C624.294678,593.418762 584.076355,620.169067 531.094116,626.354431 
	C465.939758,633.960754 403.476837,601.618896 371.397400,544.433777 
	C357.555420,519.758850 350.107147,493.153595 351.188873,465.056061 
	C353.734802,398.929749 384.935059,350.442291 444.669952,321.612305 
	C515.851746,287.257660 602.732117,311.292633 646.895020,376.813660 
	C658.719971,394.357361 667.401123,413.373627 671.431885,434.747620 
M624.777527,364.378571 
	C622.495117,360.510681 619.007690,357.847687 615.591370,355.110016 
	C618.585205,358.549072 621.063232,362.480194 625.190857,365.657806 
	C631.550903,377.194672 637.287537,384.521881 641.125732,385.099182 
	C636.464111,377.358673 632.158508,370.088013 624.777527,364.378571 
M463.494934,368.479828 
	C462.698914,368.327789 461.533081,367.758759 461.162903,368.086975 
	C456.433960,372.280640 451.270569,376.637634 449.546478,382.680847 
	C447.753357,388.966156 447.047699,395.897675 447.567566,402.410828 
	C448.070038,408.705872 446.945160,412.312073 440.332001,413.111084 
	C439.550964,413.205444 438.855347,413.862244 438.786591,415.030518 
	C439.465790,416.988251 441.501129,417.654694 443.129669,418.671844 
	C449.481873,422.639343 455.873230,426.546295 462.303345,430.386383 
	C483.880157,443.272125 505.625885,455.865356 527.739441,467.811554 
	C529.316345,468.663452 531.094849,470.827759 532.982727,468.488312 
	C535.476013,465.398682 538.737793,464.106506 542.498901,463.677246 
	C544.831909,463.411011 545.219055,461.555389 545.746216,459.786194 
	C548.736633,449.750031 551.532776,439.649017 554.833496,429.715759 
	C556.113647,425.863281 554.939148,423.814331 551.867432,421.919525 
	C544.825806,417.575867 538.094116,412.862976 530.633240,409.046661 
	C518.969482,403.080536 508.255707,395.283630 496.931732,388.615173 
	C491.618988,385.486603 487.040619,380.506165 480.019287,380.915833 
	C479.235321,380.961548 478.019104,380.077606 477.625946,379.307098 
	C474.739655,373.650696 468.862427,371.951080 463.494934,368.479828 
M594.983765,548.391418 
	C600.159302,539.026917 603.588196,528.938293 607.039612,518.876282 
	C608.077759,515.849609 608.460022,512.875122 604.398193,510.992188 
	C587.029907,502.940552 569.753235,494.691986 552.827576,485.726593 
	C549.506104,483.967255 542.260193,486.686920 541.076111,490.115143 
	C534.281555,509.787109 526.794861,529.194580 518.970947,548.474243 
	C518.099670,550.621216 518.576172,551.865173 520.668457,552.841919 
	C526.849548,555.727417 532.849426,558.995239 539.271179,561.371521 
	C541.578796,562.225403 543.575806,562.688049 545.736755,560.872192 
	C547.829163,559.113953 550.034729,559.480042 551.966003,561.459290 
	C555.277527,564.852905 559.497192,566.875244 563.532776,569.211853 
	C566.394531,570.868774 568.744995,570.731079 571.239990,568.597351 
	C578.957825,561.997070 586.743530,555.476135 594.983765,548.391418 
M606.578735,452.011139 
	C604.086426,450.672699 601.569275,449.378204 599.106079,447.988159 
	C589.105957,442.344818 579.152710,436.617645 569.121582,431.030151 
	C562.773682,427.494263 560.296387,428.526611 558.304565,435.229919 
	C555.652954,444.153931 553.047607,453.092102 550.320496,461.993011 
	C549.640625,464.212036 549.504578,465.943115 551.329285,467.859344 
	C553.707520,470.356842 554.843567,473.644257 554.032288,477.084442 
	C553.388245,479.816040 554.473938,480.986023 556.709900,482.076569 
	C572.714355,489.882507 588.705322,497.717377 604.634949,505.674377 
	C608.620850,507.665344 610.375610,506.414032 611.287170,502.370209 
	C613.772766,491.344269 614.877930,480.073761 617.014893,469.032471 
	C618.843445,459.585388 615.335510,455.076538 606.578735,452.011139 
M451.006958,520.563110 
	C436.522247,511.411621 422.398102,501.743378 408.769623,491.349213 
	C404.269287,487.916870 403.069916,488.398499 402.046814,493.881592 
	C399.938293,505.181580 398.976471,516.581726 399.301544,528.086365 
	C399.355408,529.992249 399.633453,531.682068 401.095123,533.060364 
	C411.511353,542.882690 422.315094,552.231934 434.185608,560.285034 
	C435.620972,561.258850 437.183350,562.066406 438.734589,560.687317 
	C442.435059,557.397522 445.559845,558.458801 448.732300,561.575745 
	C449.818085,562.642578 451.018585,564.086060 453.274414,563.615173 
	C457.622711,553.878479 461.975067,544.002625 466.458435,534.186584 
	C467.557434,531.780396 467.300293,530.293030 464.859894,528.931091 
	C460.363037,526.421631 456.021484,523.633667 451.006958,520.563110 
M424.704590,424.194000 
	C418.206024,437.351257 412.823120,450.953308 408.402039,464.943176 
	C407.472412,467.884796 406.976685,470.581543 409.072144,473.424500 
	C410.919220,475.930420 411.279297,479.130615 410.200043,482.036469 
	C409.153137,484.855408 410.180267,486.208618 412.370209,487.752014 
	C418.901276,492.354767 425.223083,497.253632 431.733337,501.886902 
	C436.565399,505.325775 441.563873,508.530701 446.190125,511.639526 
	C448.036560,510.812653 448.417297,509.678375 448.569794,508.531311 
	C449.642120,500.464661 451.386108,492.410339 450.518555,484.238495 
	C450.072113,480.033264 451.564392,478.138184 455.501709,477.157013 
	C461.187622,475.740143 461.259644,475.430756 458.737152,470.142578 
	C451.212860,454.368561 443.651978,438.611877 436.062134,422.869293 
	C432.818146,416.140686 430.854828,415.963318 426.069000,421.845673 
	C425.655426,422.354004 425.394073,422.986206 424.704590,424.194000 
M564.121399,348.376373 
	C567.502563,345.898041 570.539978,347.266174 573.537170,349.863770 
	C575.050537,343.232544 574.981323,337.243134 574.237793,330.852356 
	C568.221191,332.534882 563.901917,331.849274 562.566589,325.460297 
	C562.343018,324.390289 561.607605,323.734253 560.606384,323.389771 
	C554.783508,321.386139 548.861877,318.784332 542.701294,319.568634 
	C531.215393,321.030945 520.436096,324.995270 510.472748,331.019348 
	C508.476196,332.226501 507.254913,333.749786 507.266724,336.231689 
	C507.284851,340.049713 507.093842,343.868286 507.047089,347.687286 
	C507.031433,348.965698 506.393219,350.446991 507.682251,351.443451 
	C515.002258,357.101868 522.352844,362.720825 529.726746,368.379089 
	C531.749390,366.066071 532.241028,363.314972 535.187866,362.735474 
	C545.860840,360.636658 554.642395,354.610992 564.121399,348.376373 
M468.060699,542.473572 
	C464.661133,550.847351 459.949341,558.697449 457.297974,567.623901 
	C461.787689,569.268677 465.585754,570.763672 463.689728,576.265198 
	C463.281036,577.451111 464.899475,578.124329 465.928162,578.614990 
	C473.741089,582.341736 481.630707,585.890747 489.789459,588.813599 
	C491.300201,589.354858 492.672302,589.746826 493.699036,588.037537 
	C500.204285,577.207520 505.948517,566.008118 510.749268,553.987305 
	C497.704437,547.010803 485.052307,540.244324 472.110870,533.323120 
	C470.627686,536.630981 469.476288,539.198914 468.060699,542.473572 
M520.168701,469.382965 
	C493.859619,454.897522 467.990936,439.645477 441.408661,423.527893 
	C448.741272,438.813812 455.581085,453.045258 462.394562,467.289307 
	C465.187561,473.128296 465.555511,473.731659 471.028961,470.084106 
	C478.222076,465.290588 484.500122,463.051147 490.487396,471.381805 
	C490.669464,471.635132 491.049072,471.737000 491.302887,471.949646 
	C497.527161,477.164642 505.618164,479.486481 511.615448,485.059174 
	C512.455322,485.839600 513.493042,485.614624 514.441956,485.240479 
	C519.086060,483.409241 523.780579,481.687958 528.336426,479.656677 
	C531.606445,478.198761 531.612976,476.050079 528.630981,474.165131 
	C526.102478,472.566772 523.407837,471.231201 520.168701,469.382965 
M484.636841,356.909668 
	C483.120911,355.886780 481.643921,354.798889 480.077423,353.860474 
	C478.686707,353.027405 477.163818,351.756836 475.559662,353.275635 
	C472.124725,356.527679 468.217682,359.368561 465.341675,364.004639 
	C469.882538,366.587585 473.978790,370.734467 478.186371,370.850677 
	C483.433167,370.995575 486.373932,371.878693 487.852844,376.870911 
	C488.050385,377.537750 488.982788,378.069763 489.678741,378.493866 
	C501.755157,385.853729 513.850586,393.182526 525.935120,400.529083 
	C528.829163,402.288452 530.370483,401.259888 530.617615,398.129333 
	C531.062256,392.495819 531.275574,386.843811 531.739197,381.212158 
	C532.013306,377.882111 530.769958,375.575195 528.126160,373.557007 
	C520.985046,368.105591 513.820251,362.658325 507.024658,356.792603 
	C503.587341,353.825623 500.632263,353.144104 496.939575,355.829620 
	C495.874695,356.604126 494.406158,356.881256 493.462372,357.753845 
	C490.487274,360.504364 487.835938,359.962494 484.636841,356.909668 
M653.814209,432.592194 
	C651.885559,428.667969 651.832581,423.846375 648.027344,420.264160 
	C643.661438,424.585938 640.001587,422.455841 636.267639,419.318115 
	C634.247925,417.620880 631.879150,416.308655 629.570679,414.993195 
	C626.793579,413.410675 625.716675,411.529816 626.373047,408.071106 
	C627.560608,401.813171 626.306274,400.684082 619.462463,400.560486 
	C619.170166,405.575104 621.052917,410.330963 621.258850,415.250305 
	C621.404907,418.740509 622.252747,421.464142 625.322815,423.772614 
	C629.624512,427.007141 629.967896,433.205475 626.115173,436.977051 
	C620.931519,442.051605 624.146179,448.289948 623.239868,453.931610 
	C623.152527,454.475739 624.448608,455.454926 625.280151,455.901093 
	C633.942871,460.549561 642.842468,464.692474 652.326355,467.369202 
	C656.148560,468.447998 657.607361,466.869507 656.775208,462.985535 
	C656.245728,460.513947 655.305237,457.761871 657.141968,455.798309 
	C660.414673,452.299408 659.198120,448.839172 657.966003,445.179291 
	C656.639832,441.240082 655.376160,437.279846 653.814209,432.592194 
M608.038940,396.455627 
	C605.630798,396.055176 603.398621,394.612671 600.459595,395.229645 
	C600.175964,398.578247 598.746643,401.729370 599.944458,405.375031 
	C601.725037,410.794495 600.178040,412.817261 594.569824,414.200623 
	C585.964661,416.323181 578.882141,421.585724 570.659729,425.284943 
	C577.467651,431.149261 612.876282,450.371216 617.561096,450.847565 
	C618.651001,445.512390 620.270081,440.491791 614.445801,436.181580 
	C610.668335,433.386169 610.547607,428.338745 613.848083,425.096771 
	C617.139038,421.864044 616.967896,418.435211 616.331604,414.589264 
	C615.762451,411.148865 615.091248,407.717804 614.712463,404.255524 
	C614.292542,400.416412 612.816956,397.591949 608.038940,396.455627 
M589.937073,569.335083 
	C588.942688,571.388184 586.953491,572.936157 586.761658,575.400696 
	C606.398682,584.357544 638.639038,566.062683 644.420044,542.605469 
	C643.415161,543.070068 642.411499,543.344910 641.632935,543.922974 
	C632.555664,550.662659 623.968750,551.468811 615.875671,542.237061 
	C613.724976,539.783813 611.621643,540.619019 609.066833,542.606689 
	C600.197449,549.507263 595.526245,559.275208 589.937073,569.335083 
M531.106323,484.017578 
	C525.031433,486.269073 518.952209,488.509155 512.884583,490.780121 
	C511.346893,491.355682 509.414307,491.775757 509.453491,493.873749 
	C509.586548,500.996033 507.168854,508.024658 508.762604,515.199524 
	C509.659821,519.238953 507.848846,521.662048 503.874939,522.298401 
	C501.536163,522.672852 499.333191,523.058044 497.510254,525.398865 
	C502.489471,532.605713 507.277435,539.968872 513.337830,546.295471 
	C514.087158,545.772766 514.285583,545.709595 514.346436,545.581299 
	C523.113159,527.083801 529.602783,507.710846 536.178955,488.379761 
	C537.392639,484.812042 534.944824,483.699066 531.106323,484.017578 
M401.482635,468.148895 
	C401.723358,467.923218 402.092041,467.741364 402.186462,467.465607 
	C407.458649,452.073883 413.080688,436.835083 420.094513,422.115112 
	C422.060974,417.988098 417.281555,417.237793 415.174225,415.266785 
	C413.136108,413.360474 411.336304,413.412872 409.242767,415.566040 
	C402.178619,422.831055 394.902771,429.889832 387.800018,437.117981 
	C385.987030,438.962952 383.644897,440.428986 382.758789,442.929565 
	C383.299194,444.597046 384.693970,445.084778 385.872620,445.437408 
	C391.435577,447.101593 392.641052,450.492340 391.489380,456.049347 
	C390.481506,460.912628 390.311127,466.094482 392.034973,471.514709 
	C395.032532,469.786346 397.731415,468.526062 401.482635,468.148895 
M622.034058,465.597412 
	C620.870239,478.895996 618.793518,492.068726 615.832458,504.935181 
	C623.860413,505.914215 627.918762,493.751343 636.735779,500.649109 
	C643.829102,492.230835 648.312195,482.659424 653.593811,472.997467 
	C642.621094,470.031158 633.045898,465.119049 623.495422,460.751953 
	C621.858948,462.084045 622.429443,463.552856 622.034058,465.597412 
M389.921082,478.563416 
	C389.922028,475.533386 388.030579,473.957214 385.411194,473.433594 
	C382.925842,472.936798 373.828827,478.550140 373.639465,480.917572 
	C373.137665,487.191437 371.687134,493.945984 374.255127,499.675568 
	C378.669037,509.523590 386.362885,517.213806 394.222382,525.983215 
	C394.606323,514.800842 394.938416,504.838013 396.723022,495.024109 
	C397.363251,491.503326 397.377747,488.727844 393.614166,486.734589 
	C390.935425,485.315887 390.578979,482.126373 389.921082,478.563416 
M506.226288,575.633301 
	C503.543793,580.720642 500.861328,585.807983 498.221039,590.815247 
	C503.773743,594.553406 521.889343,599.173828 529.764526,598.940491 
	C525.313660,597.238586 524.404846,594.318237 525.617615,590.378601 
	C526.101318,588.807434 526.111633,587.097168 526.451233,585.473999 
	C528.906860,573.738892 523.525146,565.294922 514.960327,557.511230 
	C512.000549,563.651611 509.274139,569.307922 506.226288,575.633301 
M370.229462,440.586700 
	C372.124634,437.846313 376.535217,438.795197 377.701294,434.243561 
	C380.678833,422.621216 385.429565,411.585052 391.080627,400.970978 
	C391.783722,399.650421 392.701843,398.330292 391.130676,396.963623 
	C388.306885,394.507324 385.495361,392.036987 382.314301,389.253662 
	C375.004578,400.873413 369.428131,412.625824 366.151398,425.500488 
	C365.024597,429.927948 365.576447,434.076233 366.541504,438.282532 
	C366.861603,439.677795 367.015594,441.969482 370.229462,440.586700 
M402.180328,362.678894 
	C397.765320,367.413483 393.283264,372.108612 389.659973,377.492676 
	C385.092987,384.278992 387.119751,389.585083 395.526764,392.375671 
	C404.129913,378.857208 414.416718,366.512329 425.647552,354.943146 
	C426.795105,353.760956 427.138489,352.566925 426.688354,350.903076 
	C425.508759,346.542969 421.822052,345.273468 417.838928,348.531616 
	C412.581482,352.832184 407.713226,357.608521 402.180328,362.678894 
M423.144775,558.383728 
	C415.857391,552.503174 408.570007,546.622620 400.121643,539.805237 
	C403.181824,558.619324 406.986755,575.387512 420.811951,588.740723 
	C422.368103,584.170776 423.241486,580.370483 422.579010,576.634094 
	C421.528625,570.709961 422.571930,566.535461 429.330872,565.552368 
	C429.626495,565.509338 429.824005,564.791626 430.156006,564.240967 
	C428.491608,561.807556 425.760590,560.700134 423.144775,558.383728 
M487.497223,598.171692 
	C488.109222,596.883057 489.547943,595.875183 488.801819,593.880981 
	C480.355530,590.279907 471.765747,586.617615 462.664215,582.737122 
	C462.519165,585.240417 462.243225,586.891235 462.364136,588.512573 
	C462.695251,592.952820 463.076508,597.276917 457.567505,599.107849 
	C456.283752,599.534424 456.137817,600.879211 456.530151,602.098083 
	C460.219849,613.561218 469.604187,615.943604 477.342712,610.015076 
	C481.342041,606.951233 484.422028,603.000977 487.497223,598.171692 
M579.125854,346.099243 
	C578.741089,349.001709 576.714844,352.762177 579.214722,354.639374 
	C585.140625,359.089020 590.737793,364.356812 598.036682,366.567352 
	C602.807556,368.012268 604.523743,370.232300 602.472595,374.816559 
	C600.687561,378.805969 601.633728,383.055725 600.518372,387.058899 
	C600.173401,388.296844 600.764954,389.444824 602.080078,389.809021 
	C605.143494,390.657410 608.102661,392.330719 611.508972,391.512878 
	C608.843506,372.966736 591.554810,337.364655 579.212708,334.135101 
	C579.212708,337.916779 579.212708,341.553314 579.125854,346.099243 
M472.827026,331.234833 
	C472.414154,329.658630 471.387970,329.620178 470.146271,330.183990 
	C461.019714,334.328247 452.736633,339.858124 444.919861,346.046875 
	C442.280426,348.136566 442.812836,350.752716 445.761108,352.529999 
	C449.599213,354.843658 453.467987,357.108154 457.363617,359.323456 
	C458.335724,359.876312 459.640503,360.980804 460.556305,360.165771 
	C464.964172,356.242767 470.800812,353.053375 472.388184,347.219360 
	C473.684509,342.455139 474.242096,337.083557 472.827026,331.234833 
M656.949402,477.400299 
	C652.456116,485.144592 648.220459,493.055969 643.355774,500.559479 
	C641.078613,504.071777 641.864136,505.647888 645.005920,507.557922 
	C648.351501,509.591736 653.117493,509.855682 654.605896,515.040833 
	C663.711853,502.231140 665.173340,487.991486 664.530334,473.039703 
	C660.974731,472.896240 658.409668,473.492065 656.949402,477.400299 
M455.925873,365.463959 
	C443.257874,350.708313 423.190399,355.126495 416.286133,374.268188 
	C419.114471,373.531586 421.566681,372.169830 423.761719,370.371063 
	C426.101715,368.453522 428.273682,368.506409 430.335876,370.710541 
	C433.336212,373.917389 437.342133,375.710449 440.798676,378.267303 
	C443.304474,380.120880 444.828186,379.424377 446.552185,377.177704 
	C449.480469,373.361725 452.660889,369.739166 455.925873,365.463959 
M607.286133,354.233795 
	C605.299133,352.457886 603.312195,350.682007 601.325256,348.906128 
	C607.505310,361.695007 612.747192,374.481049 615.951233,387.925812 
	C617.368958,393.874725 620.538086,395.784210 626.262939,395.902649 
	C625.971619,390.969360 631.257141,391.176666 633.752747,388.341766 
	C626.592468,375.770874 617.772217,364.801178 607.286133,354.233795 
M570.929749,601.206360 
	C586.886230,598.128906 601.756165,592.802002 613.489258,580.836609 
	C604.325134,582.949524 595.227844,582.385803 586.175720,581.026184 
	C583.490295,580.622803 581.853333,581.283569 580.189575,583.306702 
	C575.168091,589.412720 569.974792,595.377380 564.590698,601.699890 
	C566.590393,601.582275 568.365417,601.477905 570.929749,601.206360 
M381.347565,535.201965 
	C386.147156,547.966492 391.824127,560.208801 402.707672,571.065002 
	C399.722900,561.687073 397.335419,553.607849 395.978271,545.280151 
	C395.339569,541.360779 395.964203,536.580505 393.911530,533.679749 
	C389.297302,527.159119 383.368652,521.568542 377.975037,515.599426 
	C376.843170,522.530640 379.275757,528.431641 381.347565,535.201965 
M499.289581,613.749878 
	C507.169037,611.625427 514.525452,608.310425 522.096191,603.967529 
	C513.293213,601.412903 505.070099,599.025513 496.846100,596.640991 
	C495.582275,596.274536 494.543854,596.617798 493.782196,597.693970 
	C489.525848,603.707886 485.414551,609.831970 479.265930,615.349304 
	C486.559723,616.567627 492.552216,615.622681 499.289581,613.749878 
M588.789490,379.389740 
	C583.529541,382.728271 577.524048,384.845276 571.844727,389.200897 
	C579.110474,394.403595 585.527222,399.470306 593.644714,403.938293 
	C594.649902,394.381714 596.196838,385.791412 595.445312,376.125946 
	C592.670105,377.476257 591.047852,378.265594 588.789490,379.389740 
M579.064331,400.467255 
	C575.408752,398.349335 572.457886,395.074951 568.434937,393.605743 
	C568.035645,394.122711 567.684570,394.366516 567.661194,394.638458 
	C567.205994,399.933044 566.687805,405.225098 566.385986,410.529266 
	C565.781982,421.143829 566.101990,421.328766 575.392517,416.607544 
	C577.321289,415.627411 579.311096,414.745728 581.154541,413.624207 
	C583.881287,411.965332 587.312805,411.292664 589.334656,408.206146 
	C586.457947,405.016693 582.717163,403.386383 579.064331,400.467255 
M545.523865,395.968353 
	C550.031799,393.256134 555.077637,391.440094 559.722412,387.697754 
	C552.860352,382.477905 546.474365,377.384552 538.384705,373.051575 
	C537.080933,382.292969 536.381226,390.708832 536.526245,399.588745 
	C540.185913,399.416168 542.393982,397.503815 545.523865,395.968353 
M547.462708,401.037506 
	C544.957214,402.568542 542.068604,403.515289 539.514954,406.291718 
	C546.317322,410.894440 552.911804,415.356567 560.429138,420.443085 
	C562.008789,410.826172 562.354553,402.440125 562.638245,393.478363 
	C556.781494,395.273132 552.589600,398.279816 547.462708,401.037506 
M563.723083,377.241272 
	C564.470825,370.531342 565.329102,363.822998 564.290833,356.184692 
	C556.452087,359.830292 549.364807,363.475494 541.760437,368.036560 
	C548.990479,373.569550 555.551758,378.348450 562.516968,382.383087 
	C564.022095,380.756287 563.527100,379.351593 563.723083,377.241272 
M574.492493,380.808075 
	C579.992676,377.564392 586.137024,375.401184 591.671814,370.823578 
	C584.867554,365.839172 578.566956,361.022766 570.875244,357.268097 
	C569.254578,366.246796 569.307190,374.528259 568.771179,382.889893 
	C571.126709,382.997833 572.471191,381.981567 574.492493,380.808075 
M393.230377,407.735199 
	C389.016754,416.330963 385.385468,425.143890 382.737671,433.724396 
	C390.514801,426.008606 398.431854,418.153992 406.453918,410.195251 
	C403.892853,409.471313 401.855621,408.058563 401.632874,404.898193 
	C401.508759,403.137085 399.972900,402.389160 398.518799,402.096008 
	C394.510651,401.287933 395.222809,405.414886 393.230377,407.735199 
M478.218567,319.887878 
	C461.045502,323.601166 445.133423,330.282196 430.485474,340.161102 
	C433.329559,338.936584 436.058807,339.166443 438.643982,340.552124 
	C440.862213,341.741119 442.683868,341.270020 444.623077,339.875885 
	C456.147369,331.590729 468.395752,324.596802 481.571808,319.101288 
	C480.647949,319.294830 479.724060,319.488373 478.218567,319.887878 
M461.241272,489.375244 
	C459.788849,488.707458 458.789520,487.063995 456.624664,487.327179 
	C454.962463,494.194916 455.376892,501.223297 454.372986,509.388184 
	C461.703949,506.020538 467.845520,503.177124 474.219574,498.875793 
	C469.546417,495.457214 465.675110,492.625183 461.241272,489.375244 
M513.996521,618.370300 
	C524.417786,616.669800 534.777893,614.793274 544.740295,607.731262 
	C538.637817,606.860474 533.380920,604.214722 528.813599,606.315552 
	C520.625366,610.081726 512.606934,614.264038 503.426422,617.809875 
	C507.228973,618.624268 510.173859,618.811768 513.996521,618.370300 
M494.005768,512.509460 
	C490.076721,509.917786 486.591522,506.590881 481.601410,504.691437 
	C481.242767,512.009277 479.564941,518.745850 480.654877,526.690857 
	C487.074829,523.478821 492.949738,520.539429 498.779480,517.622681 
	C497.677521,514.862915 495.964691,514.057251 494.005768,512.509460 
M482.460999,486.811554 
	C482.415588,489.412415 481.984985,492.038879 482.904907,495.400269 
	C489.294067,492.039551 495.274048,488.894073 502.089966,485.308899 
	C495.507263,480.886871 490.083435,477.243378 483.901611,473.090668 
	C483.385803,478.116241 482.984741,482.023926 482.460999,486.811554 
M497.004028,493.605499 
	C493.253174,495.594177 489.502319,497.582825 484.995056,499.972534 
	C490.847046,504.489532 495.940308,508.472260 502.158478,511.907501 
	C504.457703,504.509979 503.483032,497.669098 504.447815,490.760559 
	C501.203247,490.869263 499.618622,492.540436 497.004028,493.605499 
M476.507172,510.362762 
	C476.364777,508.499786 477.402466,506.427216 475.406433,504.631104 
	C469.618134,507.491333 463.620605,509.965790 457.548859,514.327942 
	C463.742889,518.566528 468.985870,522.154297 474.710388,526.071594 
	C476.441986,520.713562 475.100372,515.798767 476.507172,510.362762 
M461.832825,483.919159 
	C466.758148,487.333893 471.683441,490.748596 477.571136,494.830536 
	C477.191467,486.942566 479.887695,480.440796 477.840302,472.838470 
	C472.100800,475.717407 466.829071,478.326996 461.596710,481.013275 
	C460.444763,481.604675 460.609619,482.580109 461.832825,483.919159 
M514.689697,323.068268 
	C518.615845,321.395111 522.541992,319.721954 527.247925,317.716492 
	C515.251038,316.915161 504.444092,317.755280 493.637604,321.768494 
	C501.507599,328.906677 502.894836,329.105927 511.348602,324.730652 
	C512.230530,324.274170 513.130310,323.852203 514.689697,323.068268 
M495.519104,531.002808 
	C492.004608,526.643616 489.949188,526.890137 482.513458,532.915100 
	C489.342102,537.447632 496.530243,540.802673 504.235352,543.651489 
	C501.465515,539.628601 498.695679,535.605652 495.519104,531.002808 
M556.031982,613.418457 
	C563.020508,611.603882 569.560791,608.642090 576.102173,605.673157 
	C564.807312,607.399048 552.457397,605.622314 543.552612,615.558533 
	C547.655090,615.736938 551.482178,614.830322 556.031982,613.418457 
M365.883026,507.747314 
	C367.567169,514.525940 370.512695,520.824951 373.304382,527.195618 
	C369.251953,514.095032 371.057098,499.303131 361.277069,487.376129 
	C362.785095,494.204102 364.196381,500.593964 365.883026,507.747314 
M620.261353,520.228271 
	C617.937256,518.764832 615.960571,516.679382 612.771729,515.820251 
	C612.172302,520.681702 611.931885,525.159973 612.417969,530.100159 
	C617.177002,528.705200 620.926147,526.659973 624.831116,523.828430 
	C623.128113,522.474731 621.974854,521.557922 620.261353,520.228271 
M636.635559,541.049866 
	C638.817932,539.744934 641.572205,539.299744 643.518433,536.675537 
	C639.554504,534.205750 636.708374,530.673889 631.706360,529.448547 
	C631.277405,534.189514 630.885437,538.522400 630.495300,542.834839 
	C632.955627,543.473938 634.335754,541.959473 636.635559,541.049866 
M416.674530,391.714661 
	C414.282654,390.073608 411.890778,388.432526 408.594574,386.170990 
	C408.417480,391.961609 407.678619,396.537750 408.729248,401.522186 
	C413.211273,399.605682 416.726227,397.556335 419.863495,395.085144 
	C419.721680,393.158356 418.181580,392.907349 416.674530,391.714661 
M427.354187,401.750519 
	C427.527252,405.746796 425.504944,409.715240 426.990997,414.359497 
	C431.163818,411.893799 435.535919,410.845367 439.079529,407.894073 
	C437.258453,405.198486 434.671326,403.916382 432.293640,402.542786 
	C430.912476,401.744873 429.819550,398.876038 427.354187,401.750519 
M437.714355,400.806885 
	C439.072601,401.556366 440.197906,403.168579 442.373962,401.843811 
	C442.732025,397.869446 443.159027,393.750153 442.615784,388.921417 
	C438.403656,391.213898 434.368835,392.502747 430.993500,395.289551 
	C432.435852,398.009338 435.198730,398.706085 437.714355,400.806885 
M619.398987,539.140198 
	C621.560120,540.111633 623.111450,542.403748 626.085327,542.387390 
	C627.004456,537.985168 627.089905,533.801392 626.656982,529.155884 
	C622.229004,530.822754 618.315857,532.598755 614.397583,535.748596 
	C616.147766,536.958008 617.473145,537.873962 619.398987,539.140198 
M637.041321,523.080627 
	C636.010071,523.769226 633.997131,524.452209 635.910095,525.868042 
	C639.036438,528.181946 641.852051,531.102966 646.145020,532.410706 
	C646.936035,527.764526 648.136169,523.511475 646.425903,519.007996 
	C642.973938,519.432800 640.504028,521.595947 637.041321,523.080627 
M419.840393,400.649750 
	C416.887451,402.376617 413.934479,404.103485 410.666199,406.014740 
	C414.376343,409.250275 417.696564,411.813965 422.814423,413.582214 
	C422.814423,409.193237 422.854797,405.440582 422.795410,401.689514 
	C422.770111,400.091370 421.850250,399.702148 419.840393,400.649750 
M428.624237,378.330353 
	C428.334839,382.199615 427.672302,386.079163 428.750732,390.283386 
	C433.140045,389.106476 436.815033,387.306305 440.500916,384.042023 
	C436.406799,381.722626 433.747345,377.942627 428.624237,378.330353 
M632.715942,508.404053 
	C632.287109,511.945587 631.885315,515.486206 632.867798,519.346252 
	C637.196350,518.028564 640.765381,516.078064 644.054810,513.268860 
	C641.478577,510.066772 638.103271,508.649475 635.007568,506.847595 
	C633.944153,506.228607 633.137024,506.492310 632.715942,508.404053 
M620.288269,515.284851 
	C622.444397,516.698364 624.439575,518.421997 627.270813,519.244690 
	C628.196472,514.796448 629.708496,510.777100 627.659973,506.272614 
	C623.656860,507.822571 619.805542,509.000946 616.546570,512.064758 
	C617.806458,513.160278 618.782959,514.009338 620.288269,515.284851 
M537.683533,477.772034 
	C538.438416,479.102386 539.439026,480.196381 540.965088,480.565338 
	C543.577576,481.196930 545.836609,480.674469 547.502014,478.361481 
	C548.964905,476.329895 548.752869,474.385193 547.330688,472.462463 
	C545.615295,470.143341 543.212097,469.663513 540.738281,470.609863 
	C537.896729,471.696838 537.076660,474.159332 537.683533,477.772034 
M424.218048,379.050110 
	C424.212769,378.059937 424.242126,376.543488 422.839417,377.153473 
	C419.289185,378.697357 415.393738,379.756561 412.397858,382.962769 
	C415.616760,386.246674 419.165527,388.353424 423.485474,390.283386 
	C423.730560,386.373840 423.937714,383.068909 424.218048,379.050110 
M539.622498,581.569641 
	C537.136780,580.057312 535.071350,577.792358 531.746460,576.919495 
	C531.316040,581.134460 530.739136,584.951965 531.704285,588.922241 
	C535.349426,588.696106 537.891907,586.673523 540.625366,585.220581 
	C543.066528,583.923096 541.217896,582.915771 539.622498,581.569641 
M544.629456,597.622009 
	C544.482361,594.757019 545.246277,591.800232 544.179016,588.720093 
	C540.184875,590.213196 536.798157,591.718018 533.391296,594.338074 
	C536.346313,596.489197 538.857178,598.364197 541.418640,600.167358 
	C543.665894,601.749329 544.308960,600.341736 544.629456,597.622009 
M550.327942,569.727356 
	C550.256653,573.115540 548.768250,576.459045 549.856140,580.254578 
	C554.215942,579.099060 557.695190,576.991455 561.609741,573.788452 
	C557.161255,572.562805 555.237183,567.815979 550.327942,569.727356 
M544.614685,579.130005 
	C546.621521,575.458374 545.773438,571.726746 545.187012,567.313232 
	C541.393738,569.112427 537.780273,569.915466 534.802063,572.724487 
	C537.790161,575.394836 540.735046,577.440735 544.614685,579.130005 
M555.886658,587.735840 
	C558.005310,588.817322 559.542419,591.071045 562.328125,591.153870 
	C563.832092,587.342468 564.161804,583.711609 563.084167,579.645325 
	C559.132019,580.712524 555.812866,582.263672 553.007629,584.631165 
	C553.193604,586.323120 554.514343,586.602661 555.886658,587.735840 
M449.394135,590.155090 
	C447.875214,589.393005 446.799927,587.545349 444.558838,588.193542 
	C443.645996,591.794556 442.597839,595.356628 444.025238,599.329651 
	C447.877411,598.133667 451.254730,596.758240 454.126495,594.285034 
	C453.133606,592.285034 451.333435,591.650269 449.394135,590.155090 
M454.681732,573.715698 
	C454.166931,568.606628 449.059143,569.103760 446.256775,565.603882 
	C444.893066,570.463806 444.945557,574.240723 444.939514,578.834839 
	C448.423737,577.060791 451.306152,575.593201 454.681732,573.715698 
M661.582458,431.846069 
	C660.563232,428.018158 659.639709,424.160797 658.476074,420.377258 
	C658.032471,418.934937 657.582520,416.736115 655.225281,417.699585 
	C653.224304,418.517426 654.212769,420.257904 654.702271,421.557495 
	C657.251648,428.326294 659.890930,435.061249 662.905212,442.859253 
	C662.731018,438.701080 662.716125,435.641724 661.582458,431.846069 
M453.077545,579.694763 
	C451.342896,580.839233 448.992554,581.080811 447.582062,583.621704 
	C450.768372,585.441956 453.042877,588.588562 457.426880,589.295593 
	C457.750214,585.276672 458.043610,581.629639 458.389099,577.335449 
	C456.356750,578.215637 455.030426,578.790039 453.077545,579.694763 
M557.674988,594.425781 
	C555.215942,592.697449 553.211548,590.132935 549.548889,589.811035 
	C549.545471,593.795532 548.074402,597.377319 548.915100,601.459656 
	C552.369202,600.703552 554.975952,598.925964 557.745178,597.555237 
	C559.093506,596.887878 559.296692,595.937866 557.674988,594.425781 
M436.557739,582.926697 
	C435.571014,578.419617 431.278473,577.942322 427.778717,575.183777 
	C427.266449,579.806946 426.842560,583.632629 426.312531,588.416321 
	C430.063599,586.467163 433.083832,584.897766 436.557739,582.926697 
M440.528656,576.221863 
	C440.569458,572.876648 441.443573,569.479126 440.215332,565.871582 
	C436.571838,567.378479 433.147217,568.358398 430.451752,571.405396 
	C433.759674,573.608643 435.946136,576.994385 440.528656,576.221863 
M439.586487,596.317566 
	C439.586487,593.317627 439.586487,590.317627 439.586487,586.902649 
	C435.496033,588.384766 432.602295,590.066528 429.738800,592.007935 
	C434.426819,597.119690 436.129425,597.963379 439.586487,596.317566 
M581.891785,572.405945 
	C584.318909,568.772278 587.189087,565.384399 588.776367,560.451965 
	C583.643616,564.826538 579.094910,568.703369 574.407227,572.698608 
	C577.193665,574.946289 579.352051,575.240662 581.891785,572.405945 
M404.581421,478.766388 
	C403.836639,476.036041 402.281189,474.348297 399.251862,475.149048 
	C397.329956,475.657043 396.246643,477.073273 396.273010,479.164459 
	C396.296265,481.008698 397.044769,482.400848 398.951416,482.767456 
	C401.729858,483.301758 403.822876,482.488342 404.581421,478.766388 
M568.405273,582.170654 
	C568.405273,584.246704 568.405273,586.322693 568.405273,589.057007 
	C571.891724,586.215149 574.234802,583.305908 576.216370,579.508545 
	C573.008301,578.898865 569.668762,575.546631 568.405273,582.170654 
M379.130707,446.599609 
	C375.304565,446.113770 374.428375,448.382874 376.298584,454.329834 
	C379.293793,453.923248 381.665466,452.377258 383.913147,450.475067 
	C383.031616,448.396912 381.062195,448.039368 379.130707,446.599609 
M379.901489,460.877563 
	C381.582062,462.061523 382.934082,463.871460 385.472290,463.808441 
	C386.631958,461.044312 387.095337,458.298553 386.129059,454.843964 
	C383.672668,456.907532 379.455231,455.932709 379.901489,460.877563 
M364.378662,455.037537 
	C363.290375,454.476929 362.439972,453.110901 360.698608,454.113495 
	C360.201263,456.682831 359.908325,459.336609 360.962646,462.203674 
	C363.883575,461.752472 366.026581,460.456024 368.041046,458.569489 
	C367.435028,456.932556 366.052887,456.293396 364.378662,455.037537 
M377.405365,471.867096 
	C378.936493,470.738800 381.115448,470.452271 382.090393,468.172119 
	C380.152405,466.285217 378.259460,464.365967 374.048431,463.634033 
	C375.908081,466.762756 371.312622,470.399475 377.405365,471.867096 
M477.345795,338.904205 
	C477.577515,340.594543 476.675690,342.487457 478.284393,344.105621 
	C480.837158,343.415955 482.993195,342.122406 485.474091,339.963898 
	C483.442200,338.610535 481.765961,337.393677 479.993103,336.339294 
	C477.904114,335.096863 477.435272,336.405579 477.345795,338.904205 
M368.659973,482.508789 
	C369.400146,477.975067 366.943420,475.592407 362.632446,473.890869 
	C363.912567,479.117920 365.848206,483.656586 368.655853,489.428864 
	C368.655853,486.452545 368.655853,484.880676 368.659973,482.508789 
M495.982056,339.735870 
	C495.538239,344.492493 499.634857,343.492462 502.173157,345.193909 
	C502.751312,342.049927 503.013123,339.552734 502.046295,336.661987 
	C499.965332,337.696198 498.230896,338.558197 495.982056,339.735870 
M631.342773,403.644592 
	C631.486450,404.851288 630.798401,406.319397 632.531189,407.149628 
	C634.770508,406.430634 636.930603,405.436035 639.240479,403.643433 
	C637.104248,401.649170 635.206726,400.016449 632.608276,399.211029 
	C631.524353,400.354614 631.480225,401.663239 631.342773,403.644592 
M364.893860,448.808228 
	C365.605591,452.261658 368.488831,452.863342 371.276611,454.068665 
	C371.798889,451.227448 372.094208,448.816193 371.262573,446.188049 
	C368.923462,446.084778 367.092834,447.159027 364.893860,448.808228 
M491.476013,351.992859 
	C494.779327,353.841248 496.193542,350.844971 498.941895,349.335175 
	C496.622681,347.395935 495.111572,345.323914 492.261841,345.030823 
	C490.831329,347.124603 491.523407,349.295319 491.476013,351.992859 
M363.258392,467.335571 
	C364.916138,469.377014 366.959259,470.820923 369.635651,471.763977 
	C370.504883,468.946899 371.157227,466.481476 370.069855,463.800507 
	C367.222748,463.769653 365.281036,465.250214 363.258392,467.335571 
M636.526367,414.101379 
	C637.775452,414.736938 638.714539,416.216644 640.566101,415.526489 
	C641.569885,413.281708 641.982056,410.948059 641.289368,408.429016 
	C638.793762,407.987549 637.209167,409.723267 635.425903,410.712250 
	C633.032227,412.039795 634.750305,412.950195 636.526367,414.101379 
M495.504700,335.066742 
	C496.873810,334.240601 498.621094,333.828094 499.089172,331.756897 
	C497.235382,330.179657 495.345245,328.726166 492.179626,327.805817 
	C493.422485,330.704102 489.696808,334.312012 495.504700,335.066742 
M486.015503,335.013947 
	C489.629059,333.357758 488.457214,330.626099 487.934235,327.686371 
	C485.216003,328.484619 482.980316,329.239105 481.540009,331.503662 
	C482.547333,333.192108 483.967407,334.001770 486.015503,335.013947 
M646.476562,398.374176 
	C649.796631,400.390289 651.164978,397.475281 653.839600,395.738647 
	C651.127747,394.402924 649.538391,392.469086 646.335571,392.102539 
	C646.335571,394.191589 646.335571,395.950958 646.476562,398.374176 
M487.447845,346.471558 
	C484.316193,344.139923 482.907715,347.111298 480.393646,348.570007 
	C482.465973,350.627533 484.386322,351.867859 486.832306,352.177307 
	C488.115265,350.445770 487.558319,348.760223 487.447845,346.471558 
M654.332397,407.822235 
	C656.243713,405.920380 655.856445,403.864899 654.821594,401.254303 
	C652.578247,402.141968 650.391357,402.469330 648.977966,404.476990 
	C650.118103,406.472504 651.821411,407.321808 654.332397,407.822235 
M526.792542,564.225586 
	C528.944214,567.690430 531.417664,569.092834 535.390381,565.187317 
	C532.313721,563.952698 529.804871,562.675110 527.144409,561.969849 
	C525.253235,561.468628 526.144470,562.893005 526.792542,564.225586 
M645.492249,409.772644 
	C645.449646,411.791992 644.794373,413.888031 645.992554,415.911743 
	C648.227844,415.191589 650.366333,414.896088 651.472961,412.304230 
	C649.726379,410.971100 648.479248,408.944092 645.492249,409.772644 
M636.766968,396.266785 
	C638.132996,397.041748 639.206116,398.590546 641.581360,397.815521 
	C641.354370,395.791473 642.767639,393.694550 641.218994,390.798920 
	C639.820496,393.218048 635.292480,391.404846 636.766968,396.266785 
M450.447235,606.696533 
	C451.194946,606.881714 451.942657,607.066895 452.838135,607.288696 
	C451.620758,601.686584 451.396301,601.580872 447.042847,604.507690 
	C448.040253,605.205261 448.964661,605.851807 450.447235,606.696533 
M403.352020,396.102570 
	C403.620178,394.251984 403.944061,392.397125 403.050568,389.835510 
	C401.923309,391.909882 400.767700,393.243958 400.504974,394.735382 
	C400.223877,396.331116 400.243500,398.833527 403.352020,396.102570 
M621.195435,428.594238 
	C619.244141,428.268799 617.756104,428.870361 617.899658,431.037018 
	C618.008057,432.672668 619.511719,433.139221 620.888855,432.705902 
	C623.079834,432.016479 623.104187,430.572205 621.195435,428.594238 
M432.834106,349.539368 
	C434.626282,351.240692 436.027802,350.760010 436.941132,348.666443 
	C437.388733,347.640472 436.893066,346.680664 435.813965,346.384827 
	C433.675171,345.798553 432.273590,346.351501 432.834106,349.539368 
z"/>
</svg>