<svg width="532" height="527" viewBox="0 0 532 527" fill="none" xmlns="http://www.w3.org/2000/svg">
<rect width="532" height="527" fill="#D2D2D2"/>
<path d="M176 70.5H356C361.247 70.5 365.5 74.7533 365.5 80V447C365.5 452.247 361.247 456.5 356 456.5H176C170.753 456.5 166.5 452.247 166.5 447V80C166.5 74.7533 170.753 70.5 176 70.5Z" fill="#D4EFE0" stroke="black"/>
<path d="M216 389.5H317C322.247 389.5 326.5 393.753 326.5 399V403.859C326.5 409.106 322.247 413.359 317 413.359H216C210.753 413.359 206.5 409.106 206.5 403.859V399C206.5 393.753 210.753 389.5 216 389.5Z" fill="#BDE9EC" stroke="black"/>
<path d="M236.426 407.052V398.325H237.483V406.115H241.54V407.052H236.426ZM244.966 407.206C244.551 407.206 244.175 407.128 243.836 406.971C243.498 406.812 243.23 406.584 243.031 406.285C242.832 405.984 242.733 405.62 242.733 405.194C242.733 404.819 242.807 404.515 242.954 404.282C243.102 404.047 243.3 403.862 243.547 403.728C243.794 403.595 244.067 403.495 244.365 403.43C244.666 403.362 244.969 403.308 245.273 403.268C245.67 403.217 245.993 403.179 246.24 403.153C246.49 403.125 246.672 403.078 246.785 403.013C246.902 402.947 246.96 402.834 246.96 402.672V402.638C246.96 402.217 246.845 401.89 246.615 401.657C246.388 401.424 246.042 401.308 245.579 401.308C245.099 401.308 244.723 401.413 244.45 401.623C244.177 401.834 243.986 402.058 243.875 402.297L242.92 401.956C243.091 401.558 243.318 401.248 243.602 401.027C243.889 400.802 244.202 400.646 244.54 400.558C244.881 400.467 245.216 400.422 245.545 400.422C245.756 400.422 245.997 400.447 246.27 400.498C246.545 400.547 246.811 400.647 247.067 400.801C247.325 400.954 247.54 401.186 247.71 401.495C247.881 401.805 247.966 402.22 247.966 402.74V407.052H246.96V406.166H246.909C246.841 406.308 246.727 406.46 246.568 406.622C246.409 406.784 246.197 406.922 245.933 407.035C245.669 407.149 245.346 407.206 244.966 407.206ZM245.119 406.302C245.517 406.302 245.852 406.224 246.125 406.068C246.4 405.912 246.608 405.71 246.747 405.463C246.889 405.216 246.96 404.956 246.96 404.683V403.763C246.917 403.814 246.824 403.861 246.679 403.903C246.537 403.943 246.372 403.978 246.184 404.01C246 404.038 245.819 404.064 245.643 404.086C245.47 404.106 245.329 404.123 245.221 404.138C244.96 404.172 244.716 404.227 244.488 404.304C244.264 404.378 244.082 404.49 243.943 404.64C243.807 404.788 243.738 404.99 243.738 405.245C243.738 405.595 243.868 405.859 244.126 406.038C244.388 406.214 244.719 406.302 245.119 406.302ZM250.215 409.507C250.044 409.507 249.892 409.493 249.759 409.464C249.625 409.439 249.533 409.413 249.482 409.388L249.737 408.501C249.982 408.564 250.198 408.586 250.385 408.569C250.573 408.552 250.739 408.469 250.884 408.318C251.031 408.17 251.166 407.93 251.289 407.598L251.476 407.086L249.056 400.507H250.146L251.953 405.723H252.021L253.828 400.507H254.919L252.141 408.007C252.016 408.345 251.861 408.625 251.676 408.846C251.492 409.071 251.277 409.237 251.033 409.345C250.791 409.453 250.519 409.507 250.215 409.507ZM258.757 407.189C258.126 407.189 257.582 407.049 257.124 406.771C256.67 406.49 256.319 406.098 256.072 405.595C255.828 405.089 255.705 404.501 255.705 403.831C255.705 403.16 255.828 402.569 256.072 402.058C256.319 401.544 256.663 401.143 257.103 400.856C257.546 400.567 258.063 400.422 258.654 400.422C258.995 400.422 259.332 400.478 259.664 400.592C259.997 400.706 260.299 400.89 260.572 401.146C260.845 401.399 261.062 401.734 261.224 402.152C261.386 402.569 261.467 403.084 261.467 403.694V404.12H256.421V403.251H260.444C260.444 402.882 260.37 402.552 260.222 402.263C260.078 401.973 259.87 401.744 259.6 401.576C259.333 401.409 259.018 401.325 258.654 401.325C258.254 401.325 257.907 401.424 257.615 401.623C257.325 401.819 257.102 402.075 256.945 402.39C256.789 402.706 256.711 403.044 256.711 403.405V403.984C256.711 404.478 256.796 404.897 256.967 405.241C257.14 405.582 257.38 405.842 257.687 406.021C257.994 406.197 258.35 406.285 258.757 406.285C259.021 406.285 259.259 406.248 259.472 406.174C259.688 406.098 259.874 405.984 260.031 405.834C260.187 405.68 260.308 405.49 260.393 405.263L261.365 405.535C261.262 405.865 261.09 406.155 260.849 406.405C260.607 406.652 260.309 406.845 259.954 406.984C259.599 407.12 259.2 407.189 258.757 407.189ZM262.997 407.052V400.507H263.968V401.495H264.036C264.156 401.172 264.372 400.909 264.684 400.707C264.997 400.505 265.349 400.405 265.741 400.405C265.815 400.405 265.907 400.406 266.018 400.409C266.129 400.412 266.213 400.416 266.269 400.422V401.444C266.235 401.436 266.157 401.423 266.035 401.406C265.916 401.386 265.789 401.376 265.656 401.376C265.338 401.376 265.053 401.443 264.803 401.576C264.556 401.707 264.36 401.889 264.215 402.122C264.073 402.352 264.002 402.615 264.002 402.91V407.052H262.997ZM274.518 398.325V407.052H273.496L268.74 400.2H268.655V407.052H267.598V398.325H268.621L273.393 405.194H273.479V398.325H274.518ZM279.156 407.189C278.565 407.189 278.046 407.048 277.6 406.767C277.157 406.486 276.811 406.092 276.561 405.586C276.313 405.081 276.19 404.49 276.19 403.814C276.19 403.132 276.313 402.537 276.561 402.028C276.811 401.52 277.157 401.125 277.6 400.844C278.046 400.562 278.565 400.422 279.156 400.422C279.747 400.422 280.264 400.562 280.707 400.844C281.153 401.125 281.499 401.52 281.747 402.028C281.997 402.537 282.122 403.132 282.122 403.814C282.122 404.49 281.997 405.081 281.747 405.586C281.499 406.092 281.153 406.486 280.707 406.767C280.264 407.048 279.747 407.189 279.156 407.189ZM279.156 406.285C279.605 406.285 279.974 406.17 280.264 405.94C280.553 405.71 280.768 405.407 280.907 405.032C281.046 404.657 281.116 404.251 281.116 403.814C281.116 403.376 281.046 402.969 280.907 402.591C280.768 402.213 280.553 401.907 280.264 401.674C279.974 401.442 279.605 401.325 279.156 401.325C278.707 401.325 278.338 401.442 278.048 401.674C277.758 401.907 277.544 402.213 277.404 402.591C277.265 402.969 277.195 403.376 277.195 403.814C277.195 404.251 277.265 404.657 277.404 405.032C277.544 405.407 277.758 405.71 278.048 405.94C278.338 406.17 278.707 406.285 279.156 406.285ZM283.657 407.052V400.507H284.628V401.495H284.697C284.816 401.172 285.032 400.909 285.344 400.707C285.657 400.505 286.009 400.405 286.401 400.405C286.475 400.405 286.567 400.406 286.678 400.409C286.789 400.412 286.873 400.416 286.93 400.422V401.444C286.895 401.436 286.817 401.423 286.695 401.406C286.576 401.386 286.449 401.376 286.316 401.376C285.998 401.376 285.714 401.443 285.464 401.576C285.216 401.707 285.02 401.889 284.876 402.122C284.733 402.352 284.662 402.615 284.662 402.91V407.052H283.657ZM288.122 407.052V400.507H289.093V401.53H289.178C289.315 401.18 289.535 400.909 289.839 400.716C290.143 400.52 290.508 400.422 290.934 400.422C291.366 400.422 291.725 400.52 292.012 400.716C292.302 400.909 292.528 401.18 292.69 401.53H292.758C292.926 401.192 293.177 400.923 293.512 400.724C293.847 400.522 294.249 400.422 294.718 400.422C295.303 400.422 295.782 400.605 296.154 400.971C296.526 401.335 296.713 401.902 296.713 402.672V407.052H295.707V402.672C295.707 402.189 295.575 401.844 295.311 401.636C295.046 401.429 294.735 401.325 294.377 401.325C293.917 401.325 293.561 401.464 293.308 401.743C293.055 402.018 292.928 402.368 292.928 402.791V407.052H291.906V402.569C291.906 402.197 291.785 401.897 291.544 401.67C291.302 401.44 290.991 401.325 290.61 401.325C290.349 401.325 290.105 401.395 289.877 401.534C289.653 401.673 289.471 401.866 289.332 402.113C289.195 402.358 289.127 402.64 289.127 402.961V407.052H288.122Z" fill="black"/>
<path d="M216 317.5H317C322.247 317.5 326.5 321.753 326.5 327V339.859C326.5 345.106 322.247 349.359 317 349.359H216C210.753 349.359 206.5 345.106 206.5 339.859V327C206.5 321.753 210.753 317.5 216 317.5Z" fill="#BDE9EC" stroke="black"/>
<path d="M242.046 338H240.938L244.142 329.273H245.233L248.438 338H247.33L244.722 330.653H244.654L242.046 338ZM242.455 334.591H246.921V335.528H242.455V334.591ZM252.097 331.455V332.307H248.705V331.455H252.097ZM249.694 329.886H250.699V336.125C250.699 336.409 250.741 336.622 250.823 336.764C250.908 336.903 251.016 336.997 251.147 337.045C251.28 337.091 251.421 337.114 251.569 337.114C251.68 337.114 251.77 337.108 251.841 337.097C251.912 337.082 251.969 337.071 252.012 337.062L252.216 337.966C252.148 337.991 252.053 338.017 251.931 338.043C251.809 338.071 251.654 338.085 251.466 338.085C251.182 338.085 250.904 338.024 250.631 337.902C250.361 337.78 250.137 337.594 249.958 337.344C249.782 337.094 249.694 336.778 249.694 336.398V329.886ZM256.456 331.455V332.307H253.064V331.455H256.456ZM254.053 329.886H255.059V336.125C255.059 336.409 255.1 336.622 255.182 336.764C255.268 336.903 255.376 336.997 255.506 337.045C255.64 337.091 255.78 337.114 255.928 337.114C256.039 337.114 256.13 337.108 256.201 337.097C256.272 337.082 256.329 337.071 256.371 337.062L256.576 337.966C256.508 337.991 256.412 338.017 256.29 338.043C256.168 338.071 256.013 338.085 255.826 338.085C255.542 338.085 255.263 338.024 254.991 337.902C254.721 337.78 254.496 337.594 254.317 337.344C254.141 337.094 254.053 336.778 254.053 336.398V329.886ZM260.643 338.136C260.013 338.136 259.469 337.997 259.011 337.719C258.557 337.438 258.206 337.045 257.959 336.543C257.714 336.037 257.592 335.449 257.592 334.778C257.592 334.108 257.714 333.517 257.959 333.006C258.206 332.491 258.55 332.091 258.99 331.804C259.433 331.514 259.95 331.369 260.541 331.369C260.882 331.369 261.219 331.426 261.551 331.54C261.883 331.653 262.186 331.838 262.459 332.094C262.731 332.347 262.949 332.682 263.111 333.099C263.273 333.517 263.354 334.031 263.354 334.642V335.068H258.308V334.199H262.331C262.331 333.83 262.257 333.5 262.109 333.21C261.964 332.92 261.757 332.692 261.487 332.524C261.22 332.357 260.905 332.273 260.541 332.273C260.14 332.273 259.794 332.372 259.501 332.571C259.211 332.767 258.988 333.023 258.832 333.338C258.676 333.653 258.598 333.991 258.598 334.352V334.932C258.598 335.426 258.683 335.845 258.854 336.189C259.027 336.53 259.267 336.79 259.574 336.969C259.881 337.145 260.237 337.233 260.643 337.233C260.907 337.233 261.146 337.196 261.359 337.122C261.575 337.045 261.761 336.932 261.917 336.781C262.074 336.628 262.194 336.437 262.28 336.21L263.251 336.483C263.149 336.812 262.977 337.102 262.736 337.352C262.494 337.599 262.196 337.793 261.841 337.932C261.486 338.068 261.086 338.136 260.643 338.136ZM265.889 334.062V338H264.883V331.455H265.855V332.477H265.94C266.094 332.145 266.327 331.878 266.639 331.676C266.952 331.472 267.355 331.369 267.849 331.369C268.292 331.369 268.68 331.46 269.013 331.642C269.345 331.821 269.604 332.094 269.788 332.46C269.973 332.824 270.065 333.284 270.065 333.841V338H269.059V333.909C269.059 333.395 268.926 332.994 268.659 332.707C268.392 332.418 268.025 332.273 267.559 332.273C267.238 332.273 266.952 332.342 266.699 332.482C266.449 332.621 266.251 332.824 266.106 333.091C265.961 333.358 265.889 333.682 265.889 334.062ZM274.749 331.455V332.307H271.357V331.455H274.749ZM272.346 329.886H273.352V336.125C273.352 336.409 273.393 336.622 273.475 336.764C273.561 336.903 273.669 336.997 273.799 337.045C273.933 337.091 274.073 337.114 274.221 337.114C274.332 337.114 274.423 337.108 274.494 337.097C274.565 337.082 274.622 337.071 274.664 337.062L274.869 337.966C274.801 337.991 274.705 338.017 274.583 338.043C274.461 338.071 274.306 338.085 274.119 338.085C273.835 338.085 273.556 338.024 273.284 337.902C273.014 337.78 272.789 337.594 272.61 337.344C272.434 337.094 272.346 336.778 272.346 336.398V329.886ZM276.262 338V331.455H277.268V338H276.262ZM276.774 330.364C276.578 330.364 276.409 330.297 276.267 330.163C276.127 330.03 276.058 329.869 276.058 329.682C276.058 329.494 276.127 329.334 276.267 329.2C276.409 329.067 276.578 329 276.774 329C276.97 329 277.137 329.067 277.276 329.2C277.419 329.334 277.49 329.494 277.49 329.682C277.49 329.869 277.419 330.03 277.276 330.163C277.137 330.297 276.97 330.364 276.774 330.364ZM281.769 338.136C281.178 338.136 280.66 337.996 280.214 337.714C279.77 337.433 279.424 337.04 279.174 336.534C278.927 336.028 278.803 335.437 278.803 334.761C278.803 334.08 278.927 333.484 279.174 332.976C279.424 332.467 279.77 332.072 280.214 331.791C280.66 331.51 281.178 331.369 281.769 331.369C282.36 331.369 282.877 331.51 283.32 331.791C283.766 332.072 284.113 332.467 284.36 332.976C284.61 333.484 284.735 334.08 284.735 334.761C284.735 335.437 284.61 336.028 284.36 336.534C284.113 337.04 283.766 337.433 283.32 337.714C282.877 337.996 282.36 338.136 281.769 338.136ZM281.769 337.233C282.218 337.233 282.587 337.118 282.877 336.888C283.167 336.658 283.381 336.355 283.52 335.98C283.66 335.605 283.729 335.199 283.729 334.761C283.729 334.324 283.66 333.916 283.52 333.538C283.381 333.161 283.167 332.855 282.877 332.622C282.587 332.389 282.218 332.273 281.769 332.273C281.32 332.273 280.951 332.389 280.661 332.622C280.371 332.855 280.157 333.161 280.018 333.538C279.878 333.916 279.809 334.324 279.809 334.761C279.809 335.199 279.878 335.605 280.018 335.98C280.157 336.355 280.371 336.658 280.661 336.888C280.951 337.118 281.32 337.233 281.769 337.233ZM287.276 334.062V338H286.27V331.455H287.242V332.477H287.327C287.48 332.145 287.713 331.878 288.026 331.676C288.338 331.472 288.742 331.369 289.236 331.369C289.679 331.369 290.067 331.46 290.399 331.642C290.732 331.821 290.99 332.094 291.175 332.46C291.36 332.824 291.452 333.284 291.452 333.841V338H290.446V333.909C290.446 333.395 290.313 332.994 290.046 332.707C289.779 332.418 289.412 332.273 288.946 332.273C288.625 332.273 288.338 332.342 288.085 332.482C287.835 332.621 287.638 332.824 287.493 333.091C287.348 333.358 287.276 333.682 287.276 334.062Z" fill="black"/>
<path d="M266 414L261.67 421.5H270.33L266 414ZM266 457H266.75V420.75H266H265.25V457H266Z" fill="black"/>
<path d="M266 457L258.783 469.5H273.217L266 457ZM266 500H267.25V468.25H266H264.75V500H266Z" fill="black"/>
<path d="M266 27L258.783 39.5H273.217L266 27ZM266 70H267.25V38.25H266H264.75V70H266Z" fill="black"/>
<path d="M266 291L261.67 298.5H270.33L266 291ZM266 317H266.75V297.75H266H265.25V317H266Z" fill="black"/>
<path d="M266 70L261.67 77.5H270.33L266 70ZM266 98H266.75V76.75H266H265.25V98H266Z" fill="black"/>
<path d="M273 284L280.5 288.33V279.67L273 284ZM348 427H348.75V294H348H347.25V427H348ZM338 284V283.25H279.75V284V284.75H338V284ZM266 437V437.75H307V437V436.25H266V437ZM307 437V437.75H338V437V436.25H307V437ZM348 294H348.75C348.75 288.063 343.937 283.25 338 283.25V284V284.75C343.109 284.75 347.25 288.891 347.25 294H348ZM348 427H347.25C347.25 432.109 343.109 436.25 338 436.25V437V437.75C343.937 437.75 348.75 432.937 348.75 427H348Z" fill="black"/>
<path d="M266 350L261.67 357.5H270.33L266 350ZM266 389H266.75V356.75H266H265.25V389H266Z" fill="black"/>
<path d="M296 350L291.67 357.5H300.33L296 350ZM236 350L231.67 357.5H240.33L236 350ZM265.748 366V366.75H286V366V365.25H265.748V366ZM265.748 366V365.25H246V366V366.75H265.748V366ZM246 366V365.25C240.891 365.25 236.75 361.109 236.75 356H236H235.25C235.25 361.937 240.063 366.75 246 366.75V366ZM286 366V366.75C291.937 366.75 296.75 361.937 296.75 356H296H295.25C295.25 361.109 291.109 365.25 286 365.25V366Z" fill="black"/>
<circle cx="266" cy="284" r="6.75" fill="#D9D9D9" stroke="black" stroke-width="0.5"/>
<path d="M265.522 287.403V281.778H266.477V287.403H265.522ZM263.187 285.068V284.114H268.812V285.068H263.187Z" fill="black"/>
<path d="M216 209.5H317C322.247 209.5 326.5 213.753 326.5 219V223.859C326.5 229.106 322.247 233.359 317 233.359H216C210.753 233.359 206.5 229.106 206.5 223.859V219C206.5 213.753 210.753 209.5 216 209.5Z" fill="#BDE9EC" stroke="black"/>
<path d="M236.426 227.052V218.325H237.483V226.115H241.54V227.052H236.426ZM244.966 227.206C244.551 227.206 244.175 227.128 243.836 226.971C243.498 226.812 243.23 226.584 243.031 226.285C242.832 225.984 242.733 225.62 242.733 225.194C242.733 224.819 242.807 224.515 242.954 224.282C243.102 224.047 243.3 223.862 243.547 223.728C243.794 223.595 244.067 223.495 244.365 223.43C244.666 223.362 244.969 223.308 245.273 223.268C245.67 223.217 245.993 223.179 246.24 223.153C246.49 223.125 246.672 223.078 246.785 223.013C246.902 222.947 246.96 222.834 246.96 222.672V222.638C246.96 222.217 246.845 221.89 246.615 221.657C246.388 221.424 246.042 221.308 245.579 221.308C245.099 221.308 244.723 221.413 244.45 221.623C244.177 221.834 243.986 222.058 243.875 222.297L242.92 221.956C243.091 221.558 243.318 221.248 243.602 221.027C243.889 220.802 244.202 220.646 244.54 220.558C244.881 220.467 245.216 220.422 245.545 220.422C245.756 220.422 245.997 220.447 246.27 220.498C246.545 220.547 246.811 220.647 247.067 220.801C247.325 220.954 247.54 221.186 247.71 221.495C247.881 221.805 247.966 222.22 247.966 222.74V227.052H246.96V226.166H246.909C246.841 226.308 246.727 226.46 246.568 226.622C246.409 226.784 246.197 226.922 245.933 227.035C245.669 227.149 245.346 227.206 244.966 227.206ZM245.119 226.302C245.517 226.302 245.852 226.224 246.125 226.068C246.4 225.912 246.608 225.71 246.747 225.463C246.889 225.216 246.96 224.956 246.96 224.683V223.763C246.917 223.814 246.824 223.861 246.679 223.903C246.537 223.943 246.372 223.978 246.184 224.01C246 224.038 245.819 224.064 245.643 224.086C245.47 224.106 245.329 224.123 245.221 224.138C244.96 224.172 244.716 224.227 244.488 224.304C244.264 224.378 244.082 224.49 243.943 224.64C243.807 224.788 243.738 224.99 243.738 225.245C243.738 225.595 243.868 225.859 244.126 226.038C244.388 226.214 244.719 226.302 245.119 226.302ZM250.215 229.507C250.044 229.507 249.892 229.493 249.759 229.464C249.625 229.439 249.533 229.413 249.482 229.388L249.737 228.501C249.982 228.564 250.198 228.586 250.385 228.569C250.573 228.552 250.739 228.469 250.884 228.318C251.031 228.17 251.166 227.93 251.289 227.598L251.476 227.086L249.056 220.507H250.146L251.953 225.723H252.021L253.828 220.507H254.919L252.141 228.007C252.016 228.345 251.861 228.625 251.676 228.846C251.492 229.071 251.277 229.237 251.033 229.345C250.791 229.453 250.519 229.507 250.215 229.507ZM258.757 227.189C258.126 227.189 257.582 227.049 257.124 226.771C256.67 226.49 256.319 226.098 256.072 225.595C255.828 225.089 255.705 224.501 255.705 223.831C255.705 223.16 255.828 222.569 256.072 222.058C256.319 221.544 256.663 221.143 257.103 220.856C257.546 220.567 258.063 220.422 258.654 220.422C258.995 220.422 259.332 220.478 259.664 220.592C259.997 220.706 260.299 220.89 260.572 221.146C260.845 221.399 261.062 221.734 261.224 222.152C261.386 222.569 261.467 223.084 261.467 223.694V224.12H256.421V223.251H260.444C260.444 222.882 260.37 222.552 260.222 222.263C260.078 221.973 259.87 221.744 259.6 221.576C259.333 221.409 259.018 221.325 258.654 221.325C258.254 221.325 257.907 221.424 257.615 221.623C257.325 221.819 257.102 222.075 256.945 222.39C256.789 222.706 256.711 223.044 256.711 223.405V223.984C256.711 224.478 256.796 224.897 256.967 225.241C257.14 225.582 257.38 225.842 257.687 226.021C257.994 226.197 258.35 226.285 258.757 226.285C259.021 226.285 259.259 226.248 259.472 226.174C259.688 226.098 259.874 225.984 260.031 225.834C260.187 225.68 260.308 225.49 260.393 225.263L261.365 225.535C261.262 225.865 261.09 226.155 260.849 226.405C260.607 226.652 260.309 226.845 259.954 226.984C259.599 227.12 259.2 227.189 258.757 227.189ZM262.997 227.052V220.507H263.968V221.495H264.036C264.156 221.172 264.372 220.909 264.684 220.707C264.997 220.505 265.349 220.405 265.741 220.405C265.815 220.405 265.907 220.406 266.018 220.409C266.129 220.412 266.213 220.416 266.269 220.422V221.444C266.235 221.436 266.157 221.423 266.035 221.406C265.916 221.386 265.789 221.376 265.656 221.376C265.338 221.376 265.053 221.443 264.803 221.576C264.556 221.707 264.36 221.889 264.215 222.122C264.073 222.352 264.002 222.615 264.002 222.91V227.052H262.997ZM274.518 218.325V227.052H273.496L268.74 220.2H268.655V227.052H267.598V218.325H268.621L273.393 225.194H273.479V218.325H274.518ZM279.156 227.189C278.565 227.189 278.046 227.048 277.6 226.767C277.157 226.486 276.811 226.092 276.561 225.586C276.313 225.081 276.19 224.49 276.19 223.814C276.19 223.132 276.313 222.537 276.561 222.028C276.811 221.52 277.157 221.125 277.6 220.844C278.046 220.562 278.565 220.422 279.156 220.422C279.747 220.422 280.264 220.562 280.707 220.844C281.153 221.125 281.499 221.52 281.747 222.028C281.997 222.537 282.122 223.132 282.122 223.814C282.122 224.49 281.997 225.081 281.747 225.586C281.499 226.092 281.153 226.486 280.707 226.767C280.264 227.048 279.747 227.189 279.156 227.189ZM279.156 226.285C279.605 226.285 279.974 226.17 280.264 225.94C280.553 225.71 280.768 225.407 280.907 225.032C281.046 224.657 281.116 224.251 281.116 223.814C281.116 223.376 281.046 222.969 280.907 222.591C280.768 222.213 280.553 221.907 280.264 221.674C279.974 221.442 279.605 221.325 279.156 221.325C278.707 221.325 278.338 221.442 278.048 221.674C277.758 221.907 277.544 222.213 277.404 222.591C277.265 222.969 277.195 223.376 277.195 223.814C277.195 224.251 277.265 224.657 277.404 225.032C277.544 225.407 277.758 225.71 278.048 225.94C278.338 226.17 278.707 226.285 279.156 226.285ZM283.657 227.052V220.507H284.628V221.495H284.697C284.816 221.172 285.032 220.909 285.344 220.707C285.657 220.505 286.009 220.405 286.401 220.405C286.475 220.405 286.567 220.406 286.678 220.409C286.789 220.412 286.873 220.416 286.93 220.422V221.444C286.895 221.436 286.817 221.423 286.695 221.406C286.576 221.386 286.449 221.376 286.316 221.376C285.998 221.376 285.714 221.443 285.464 221.576C285.216 221.707 285.02 221.889 284.876 222.122C284.733 222.352 284.662 222.615 284.662 222.91V227.052H283.657ZM288.122 227.052V220.507H289.093V221.53H289.178C289.315 221.18 289.535 220.909 289.839 220.716C290.143 220.52 290.508 220.422 290.934 220.422C291.366 220.422 291.725 220.52 292.012 220.716C292.302 220.909 292.528 221.18 292.69 221.53H292.758C292.926 221.192 293.177 220.923 293.512 220.724C293.847 220.522 294.249 220.422 294.718 220.422C295.303 220.422 295.782 220.605 296.154 220.971C296.526 221.335 296.713 221.902 296.713 222.672V227.052H295.707V222.672C295.707 222.189 295.575 221.844 295.311 221.636C295.046 221.429 294.735 221.325 294.377 221.325C293.917 221.325 293.561 221.464 293.308 221.743C293.055 222.018 292.928 222.368 292.928 222.791V227.052H291.906V222.569C291.906 222.197 291.785 221.897 291.544 221.67C291.302 221.44 290.991 221.325 290.61 221.325C290.349 221.325 290.105 221.395 289.877 221.534C289.653 221.673 289.471 221.866 289.332 222.113C289.195 222.358 289.127 222.64 289.127 222.961V227.052H288.122Z" fill="black"/>
<path d="M216 137.5H317C322.247 137.5 326.5 141.753 326.5 147V159.859C326.5 165.106 322.247 169.359 317 169.359H216C210.753 169.359 206.5 165.106 206.5 159.859V147C206.5 141.753 210.753 137.5 216 137.5Z" fill="#BDE9EC" stroke="black"/>
<path d="M255.035 149.273H256.297L259.263 156.517H259.365L262.331 149.273H263.592V158H262.604V151.369H262.518L259.791 158H258.836L256.109 151.369H256.024V158H255.035V149.273ZM265.711 158V149.273H266.768V157.062H270.825V158H265.711ZM272.461 158V149.273H275.41C276.095 149.273 276.654 149.396 277.089 149.643C277.526 149.888 277.85 150.219 278.061 150.636C278.271 151.054 278.376 151.52 278.376 152.034C278.376 152.548 278.271 153.016 278.061 153.436C277.853 153.857 277.532 154.192 277.097 154.442C276.663 154.689 276.106 154.812 275.427 154.812H273.313V153.875H275.393C275.862 153.875 276.238 153.794 276.522 153.632C276.806 153.47 277.012 153.251 277.14 152.976C277.271 152.697 277.336 152.384 277.336 152.034C277.336 151.685 277.271 151.372 277.14 151.097C277.012 150.821 276.805 150.605 276.518 150.449C276.231 150.29 275.85 150.21 275.376 150.21H273.518V158H272.461Z" fill="black"/>
<path d="M266 234L261.67 241.5H270.33L266 234ZM266 277H266.75V240.75H266H265.25V277H266Z" fill="black"/>
<path d="M266 111L261.67 118.5H270.33L266 111ZM266 137H266.75V117.75H266H265.25V137H266Z" fill="black"/>
<path d="M273 104L280.5 108.33V99.6699L273 104ZM348 248L348.75 248V114H348H347.25V248H348ZM338 104V103.25H279.75V104V104.75H338V104ZM266 258V258.75H307V258V257.25H266V258ZM307 258V258.75H338V258V257.25H307V258ZM348 114H348.75C348.75 108.063 343.937 103.25 338 103.25V104V104.75C343.109 104.75 347.25 108.891 347.25 114H348ZM348 248H347.25C347.25 253.109 343.109 257.25 338 257.25V258V258.75C343.937 258.75 348.75 253.937 348.75 248L348 248Z" fill="black"/>
<path d="M266 170L261.67 177.5H270.33L266 170ZM266 209H266.75V176.75H266H265.25V209H266Z" fill="black"/>
<path d="M296 170L291.67 177.5H300.33L296 170ZM236 170L231.67 177.5H240.33L236 170ZM265.748 186V186.75H286V186V185.25H265.748V186ZM265.748 186V185.25H246V186V186.75H265.748V186ZM246 186V185.25C240.891 185.25 236.75 181.109 236.75 176H236H235.25C235.25 181.937 240.063 186.75 246 186.75V186ZM286 186V186.75C291.937 186.75 296.75 181.937 296.75 176H296H295.25C295.25 181.109 291.109 185.25 286 185.25V186Z" fill="black"/>
<circle cx="266" cy="104" r="6.75" fill="#D9D9D9" stroke="black" stroke-width="0.5"/>
<path d="M265.522 107.403V101.778H266.477V107.403H265.522ZM263.187 105.068V104.114H268.812V105.068H263.187Z" fill="black"/>
<path d="M179.359 82.6733L175.757 79.0888C175.54 78.8727 175.504 78.8367 175.36 78.8367C175.18 78.8367 175 78.9988 175 79.1969C175 79.323 175.036 79.359 175.234 79.5572L178.837 83.1777L175.234 86.7982C175.036 86.9963 175 87.0323 175 87.1584C175 87.3565 175.18 87.5187 175.36 87.5187C175.504 87.5187 175.54 87.4826 175.757 87.2665L179.341 83.682L183.07 87.4106C183.106 87.4286 183.232 87.5187 183.34 87.5187C183.556 87.5187 183.7 87.3565 183.7 87.1584C183.7 87.1224 183.7 87.0503 183.646 86.9603C183.628 86.9242 180.764 84.0963 179.863 83.1777L183.16 79.8814C183.25 79.7733 183.52 79.5391 183.61 79.4311C183.628 79.395 183.7 79.323 183.7 79.1969C183.7 78.9988 183.556 78.8367 183.34 78.8367C183.196 78.8367 183.124 78.9087 182.925 79.1068L179.359 82.6733Z" fill="black"/>
<path d="M188.019 84.6186C186.884 85.7354 186.596 86.0056 186.596 86.0777C186.596 86.1497 186.668 86.2758 186.794 86.2758C186.884 86.2758 187.911 85.2851 188.055 85.123C188.163 86.3298 188.613 87.8969 190.018 87.8969C190.739 87.8969 191.387 87.4466 191.676 87.2305C191.91 87.0503 192.774 86.3118 192.774 86.1497C192.774 86.0596 192.684 85.9516 192.594 85.9516C192.522 85.9516 192.252 86.2218 192.18 86.2938C191.549 86.9062 190.757 87.5367 190.036 87.5367C189.064 87.5367 188.938 86.1317 188.938 85.159C188.938 84.9789 188.938 84.2224 189.064 84.0783C190.127 82.9795 193.459 79.5391 193.459 76.3509C193.459 75.6304 193.189 75 192.414 75C190.739 75 189.28 78.7106 189.028 79.395C188.956 79.5752 187.911 82.3491 188.019 84.6186ZM189.1 83.5019C189.118 83.3938 189.928 78.6745 191.441 76.1528C191.748 75.6665 192.054 75.3602 192.414 75.3602C193.027 75.3602 193.063 75.9366 193.063 76.3329C193.063 76.9634 192.882 78.5845 191.315 80.854C190.847 81.5205 190.127 82.4211 189.1 83.5019Z" fill="black"/>
</svg>
