<svg width="532" height="527" viewBox="0 0 532 527" fill="none" xmlns="http://www.w3.org/2000/svg">
<rect width="532" height="527" fill="#D2D2D2"/>
<rect x="166.5" y="70.5" width="199" height="386" rx="9.5" fill="#D4EFE0" stroke="black"/>
<path d="M216 389.5H317C322.247 389.5 326.5 393.753 326.5 399V403.859C326.5 409.106 322.247 413.359 317 413.359H216C210.753 413.359 206.5 409.106 206.5 403.859V399C206.5 393.753 210.753 389.5 216 389.5Z" fill="#BDE9EC" stroke="black"/>
<path d="M236.426 407.052V398.325H237.483V406.115H241.54V407.052H236.426ZM244.966 407.206C244.551 407.206 244.175 407.128 243.836 406.971C243.498 406.812 243.23 406.584 243.031 406.285C242.832 405.984 242.733 405.62 242.733 405.194C242.733 404.819 242.807 404.515 242.954 404.282C243.102 404.047 243.3 403.862 243.547 403.728C243.794 403.595 244.067 403.495 244.365 403.43C244.666 403.362 244.969 403.308 245.273 403.268C245.67 403.217 245.993 403.179 246.24 403.153C246.49 403.125 246.672 403.078 246.785 403.013C246.902 402.947 246.96 402.834 246.96 402.672V402.638C246.96 402.217 246.845 401.89 246.615 401.657C246.388 401.424 246.042 401.308 245.579 401.308C245.099 401.308 244.723 401.413 244.45 401.623C244.177 401.834 243.986 402.058 243.875 402.297L242.92 401.956C243.091 401.558 243.318 401.248 243.602 401.027C243.889 400.802 244.202 400.646 244.54 400.558C244.881 400.467 245.216 400.422 245.545 400.422C245.756 400.422 245.997 400.447 246.27 400.498C246.545 400.547 246.811 400.647 247.067 400.801C247.325 400.954 247.54 401.186 247.71 401.495C247.881 401.805 247.966 402.22 247.966 402.74V407.052H246.96V406.166H246.909C246.841 406.308 246.727 406.46 246.568 406.622C246.409 406.784 246.197 406.922 245.933 407.035C245.669 407.149 245.346 407.206 244.966 407.206ZM245.119 406.302C245.517 406.302 245.852 406.224 246.125 406.068C246.4 405.912 246.608 405.71 246.747 405.463C246.889 405.216 246.96 404.956 246.96 404.683V403.763C246.917 403.814 246.824 403.861 246.679 403.903C246.537 403.943 246.372 403.978 246.184 404.01C246 404.038 245.819 404.064 245.643 404.086C245.47 404.106 245.329 404.123 245.221 404.138C244.96 404.172 244.716 404.227 244.488 404.304C244.264 404.378 244.082 404.49 243.943 404.64C243.807 404.788 243.738 404.99 243.738 405.245C243.738 405.595 243.868 405.859 244.126 406.038C244.388 406.214 244.719 406.302 245.119 406.302ZM250.215 409.507C250.044 409.507 249.892 409.493 249.759 409.464C249.625 409.439 249.533 409.413 249.482 409.388L249.737 408.501C249.982 408.564 250.198 408.586 250.385 408.569C250.573 408.552 250.739 408.469 250.884 408.318C251.031 408.17 251.166 407.93 251.289 407.598L251.476 407.086L249.056 400.507H250.146L251.953 405.723H252.021L253.828 400.507H254.919L252.141 408.007C252.016 408.345 251.861 408.625 251.676 408.846C251.492 409.071 251.277 409.237 251.033 409.345C250.791 409.453 250.519 409.507 250.215 409.507ZM258.757 407.189C258.126 407.189 257.582 407.049 257.124 406.771C256.67 406.49 256.319 406.098 256.072 405.595C255.828 405.089 255.705 404.501 255.705 403.831C255.705 403.16 255.828 402.569 256.072 402.058C256.319 401.544 256.663 401.143 257.103 400.856C257.546 400.567 258.063 400.422 258.654 400.422C258.995 400.422 259.332 400.478 259.664 400.592C259.997 400.706 260.299 400.89 260.572 401.146C260.845 401.399 261.062 401.734 261.224 402.152C261.386 402.569 261.467 403.084 261.467 403.694V404.12H256.421V403.251H260.444C260.444 402.882 260.37 402.552 260.222 402.263C260.078 401.973 259.87 401.744 259.6 401.576C259.333 401.409 259.018 401.325 258.654 401.325C258.254 401.325 257.907 401.424 257.615 401.623C257.325 401.819 257.102 402.075 256.945 402.39C256.789 402.706 256.711 403.044 256.711 403.405V403.984C256.711 404.478 256.796 404.897 256.967 405.241C257.14 405.582 257.38 405.842 257.687 406.021C257.994 406.197 258.35 406.285 258.757 406.285C259.021 406.285 259.259 406.248 259.472 406.174C259.688 406.098 259.874 405.984 260.031 405.834C260.187 405.68 260.308 405.49 260.393 405.263L261.365 405.535C261.262 405.865 261.09 406.155 260.849 406.405C260.607 406.652 260.309 406.845 259.954 406.984C259.599 407.12 259.2 407.189 258.757 407.189ZM262.997 407.052V400.507H263.968V401.495H264.036C264.156 401.172 264.372 400.909 264.684 400.707C264.997 400.505 265.349 400.405 265.741 400.405C265.815 400.405 265.907 400.406 266.018 400.409C266.129 400.412 266.213 400.416 266.269 400.422V401.444C266.235 401.436 266.157 401.423 266.035 401.406C265.916 401.386 265.789 401.376 265.656 401.376C265.338 401.376 265.053 401.443 264.803 401.576C264.556 401.707 264.36 401.889 264.215 402.122C264.073 402.352 264.002 402.615 264.002 402.91V407.052H262.997ZM274.518 398.325V407.052H273.496L268.74 400.2H268.655V407.052H267.598V398.325H268.621L273.393 405.194H273.479V398.325H274.518ZM279.156 407.189C278.565 407.189 278.046 407.048 277.6 406.767C277.157 406.486 276.811 406.092 276.561 405.586C276.313 405.081 276.19 404.49 276.19 403.814C276.19 403.132 276.313 402.537 276.561 402.028C276.811 401.52 277.157 401.125 277.6 400.844C278.046 400.562 278.565 400.422 279.156 400.422C279.747 400.422 280.264 400.562 280.707 400.844C281.153 401.125 281.499 401.52 281.747 402.028C281.997 402.537 282.122 403.132 282.122 403.814C282.122 404.49 281.997 405.081 281.747 405.586C281.499 406.092 281.153 406.486 280.707 406.767C280.264 407.048 279.747 407.189 279.156 407.189ZM279.156 406.285C279.605 406.285 279.974 406.17 280.264 405.94C280.553 405.71 280.768 405.407 280.907 405.032C281.046 404.657 281.116 404.251 281.116 403.814C281.116 403.376 281.046 402.969 280.907 402.591C280.768 402.213 280.553 401.907 280.264 401.674C279.974 401.442 279.605 401.325 279.156 401.325C278.707 401.325 278.338 401.442 278.048 401.674C277.758 401.907 277.544 402.213 277.404 402.591C277.265 402.969 277.195 403.376 277.195 403.814C277.195 404.251 277.265 404.657 277.404 405.032C277.544 405.407 277.758 405.71 278.048 405.94C278.338 406.17 278.707 406.285 279.156 406.285ZM283.657 407.052V400.507H284.628V401.495H284.697C284.816 401.172 285.032 400.909 285.344 400.707C285.657 400.505 286.009 400.405 286.401 400.405C286.475 400.405 286.567 400.406 286.678 400.409C286.789 400.412 286.873 400.416 286.93 400.422V401.444C286.895 401.436 286.817 401.423 286.695 401.406C286.576 401.386 286.449 401.376 286.316 401.376C285.998 401.376 285.714 401.443 285.464 401.576C285.216 401.707 285.02 401.889 284.876 402.122C284.733 402.352 284.662 402.615 284.662 402.91V407.052H283.657ZM288.122 407.052V400.507H289.093V401.53H289.178C289.315 401.18 289.535 400.909 289.839 400.716C290.143 400.52 290.508 400.422 290.934 400.422C291.366 400.422 291.725 400.52 292.012 400.716C292.302 400.909 292.528 401.18 292.69 401.53H292.758C292.926 401.192 293.177 400.923 293.512 400.724C293.847 400.522 294.249 400.422 294.718 400.422C295.303 400.422 295.782 400.605 296.154 400.971C296.526 401.335 296.713 401.902 296.713 402.672V407.052H295.707V402.672C295.707 402.189 295.575 401.844 295.311 401.636C295.046 401.429 294.735 401.325 294.377 401.325C293.917 401.325 293.561 401.464 293.308 401.743C293.055 402.018 292.928 402.368 292.928 402.791V407.052H291.906V402.569C291.906 402.197 291.785 401.897 291.544 401.67C291.302 401.44 290.991 401.325 290.61 401.325C290.349 401.325 290.105 401.395 289.877 401.534C289.653 401.673 289.471 401.866 289.332 402.113C289.195 402.358 289.127 402.64 289.127 402.961V407.052H288.122Z" fill="black"/>
<path d="M216 317.5H317C322.247 317.5 326.5 321.753 326.5 327V339.859C326.5 345.106 322.247 349.359 317 349.359H216C210.753 349.359 206.5 345.106 206.5 339.859V327C206.5 321.753 210.753 317.5 216 317.5Z" fill="#BDE9EC" stroke="black"/>
<path d="M242.046 338H240.938L244.142 329.273H245.233L248.438 338H247.33L244.722 330.653H244.654L242.046 338ZM242.455 334.591H246.921V335.528H242.455V334.591ZM252.097 331.455V332.307H248.705V331.455H252.097ZM249.694 329.886H250.699V336.125C250.699 336.409 250.741 336.622 250.823 336.764C250.908 336.903 251.016 336.997 251.147 337.045C251.28 337.091 251.421 337.114 251.569 337.114C251.68 337.114 251.77 337.108 251.841 337.097C251.912 337.082 251.969 337.071 252.012 337.062L252.216 337.966C252.148 337.991 252.053 338.017 251.931 338.043C251.809 338.071 251.654 338.085 251.466 338.085C251.182 338.085 250.904 338.024 250.631 337.902C250.361 337.78 250.137 337.594 249.958 337.344C249.782 337.094 249.694 336.778 249.694 336.398V329.886ZM256.456 331.455V332.307H253.064V331.455H256.456ZM254.053 329.886H255.059V336.125C255.059 336.409 255.1 336.622 255.182 336.764C255.268 336.903 255.376 336.997 255.506 337.045C255.64 337.091 255.78 337.114 255.928 337.114C256.039 337.114 256.13 337.108 256.201 337.097C256.272 337.082 256.329 337.071 256.371 337.062L256.576 337.966C256.508 337.991 256.412 338.017 256.29 338.043C256.168 338.071 256.013 338.085 255.826 338.085C255.542 338.085 255.263 338.024 254.991 337.902C254.721 337.78 254.496 337.594 254.317 337.344C254.141 337.094 254.053 336.778 254.053 336.398V329.886ZM260.643 338.136C260.013 338.136 259.469 337.997 259.011 337.719C258.557 337.438 258.206 337.045 257.959 336.543C257.714 336.037 257.592 335.449 257.592 334.778C257.592 334.108 257.714 333.517 257.959 333.006C258.206 332.491 258.55 332.091 258.99 331.804C259.433 331.514 259.95 331.369 260.541 331.369C260.882 331.369 261.219 331.426 261.551 331.54C261.883 331.653 262.186 331.838 262.459 332.094C262.731 332.347 262.949 332.682 263.111 333.099C263.273 333.517 263.354 334.031 263.354 334.642V335.068H258.308V334.199H262.331C262.331 333.83 262.257 333.5 262.109 333.21C261.964 332.92 261.757 332.692 261.487 332.524C261.22 332.357 260.905 332.273 260.541 332.273C260.14 332.273 259.794 332.372 259.501 332.571C259.211 332.767 258.988 333.023 258.832 333.338C258.676 333.653 258.598 333.991 258.598 334.352V334.932C258.598 335.426 258.683 335.845 258.854 336.189C259.027 336.53 259.267 336.79 259.574 336.969C259.881 337.145 260.237 337.233 260.643 337.233C260.907 337.233 261.146 337.196 261.359 337.122C261.575 337.045 261.761 336.932 261.917 336.781C262.074 336.628 262.194 336.437 262.28 336.21L263.251 336.483C263.149 336.812 262.977 337.102 262.736 337.352C262.494 337.599 262.196 337.793 261.841 337.932C261.486 338.068 261.086 338.136 260.643 338.136ZM265.889 334.062V338H264.883V331.455H265.855V332.477H265.94C266.094 332.145 266.327 331.878 266.639 331.676C266.952 331.472 267.355 331.369 267.849 331.369C268.292 331.369 268.68 331.46 269.013 331.642C269.345 331.821 269.604 332.094 269.788 332.46C269.973 332.824 270.065 333.284 270.065 333.841V338H269.059V333.909C269.059 333.395 268.926 332.994 268.659 332.707C268.392 332.418 268.025 332.273 267.559 332.273C267.238 332.273 266.952 332.342 266.699 332.482C266.449 332.621 266.251 332.824 266.106 333.091C265.961 333.358 265.889 333.682 265.889 334.062ZM274.749 331.455V332.307H271.357V331.455H274.749ZM272.346 329.886H273.352V336.125C273.352 336.409 273.393 336.622 273.475 336.764C273.561 336.903 273.669 336.997 273.799 337.045C273.933 337.091 274.073 337.114 274.221 337.114C274.332 337.114 274.423 337.108 274.494 337.097C274.565 337.082 274.622 337.071 274.664 337.062L274.869 337.966C274.801 337.991 274.705 338.017 274.583 338.043C274.461 338.071 274.306 338.085 274.119 338.085C273.835 338.085 273.556 338.024 273.284 337.902C273.014 337.78 272.789 337.594 272.61 337.344C272.434 337.094 272.346 336.778 272.346 336.398V329.886ZM276.262 338V331.455H277.268V338H276.262ZM276.774 330.364C276.578 330.364 276.409 330.297 276.267 330.163C276.127 330.03 276.058 329.869 276.058 329.682C276.058 329.494 276.127 329.334 276.267 329.2C276.409 329.067 276.578 329 276.774 329C276.97 329 277.137 329.067 277.276 329.2C277.419 329.334 277.49 329.494 277.49 329.682C277.49 329.869 277.419 330.03 277.276 330.163C277.137 330.297 276.97 330.364 276.774 330.364ZM281.769 338.136C281.178 338.136 280.66 337.996 280.214 337.714C279.77 337.433 279.424 337.04 279.174 336.534C278.927 336.028 278.803 335.437 278.803 334.761C278.803 334.08 278.927 333.484 279.174 332.976C279.424 332.467 279.77 332.072 280.214 331.791C280.66 331.51 281.178 331.369 281.769 331.369C282.36 331.369 282.877 331.51 283.32 331.791C283.766 332.072 284.113 332.467 284.36 332.976C284.61 333.484 284.735 334.08 284.735 334.761C284.735 335.437 284.61 336.028 284.36 336.534C284.113 337.04 283.766 337.433 283.32 337.714C282.877 337.996 282.36 338.136 281.769 338.136ZM281.769 337.233C282.218 337.233 282.587 337.118 282.877 336.888C283.167 336.658 283.381 336.355 283.52 335.98C283.66 335.605 283.729 335.199 283.729 334.761C283.729 334.324 283.66 333.916 283.52 333.538C283.381 333.161 283.167 332.855 282.877 332.622C282.587 332.389 282.218 332.273 281.769 332.273C281.32 332.273 280.951 332.389 280.661 332.622C280.371 332.855 280.157 333.161 280.018 333.538C279.878 333.916 279.809 334.324 279.809 334.761C279.809 335.199 279.878 335.605 280.018 335.98C280.157 336.355 280.371 336.658 280.661 336.888C280.951 337.118 281.32 337.233 281.769 337.233ZM287.276 334.062V338H286.27V331.455H287.242V332.477H287.327C287.48 332.145 287.713 331.878 288.026 331.676C288.338 331.472 288.742 331.369 289.236 331.369C289.679 331.369 290.067 331.46 290.399 331.642C290.732 331.821 290.99 332.094 291.175 332.46C291.36 332.824 291.452 333.284 291.452 333.841V338H290.446V333.909C290.446 333.395 290.313 332.994 290.046 332.707C289.779 332.418 289.412 332.273 288.946 332.273C288.625 332.273 288.338 332.342 288.085 332.482C287.835 332.621 287.638 332.824 287.493 333.091C287.348 333.358 287.276 333.682 287.276 334.062Z" fill="black"/>
<path d="M266 414L261.67 421.5H270.33L266 414ZM266 457H266.75V420.75H266H265.25V457H266Z" fill="black"/>
<path d="M266 457L258.783 469.5H273.217L266 457ZM266 500H267.25V468.25H266H264.75V500H266Z" fill="black"/>
<path d="M266 27L258.783 39.5H273.217L266 27ZM266 70H267.25V38.25H266H264.75V70H266Z" fill="black"/>
<path d="M266 291L261.67 298.5H270.33L266 291ZM266 317H266.75V297.75H266H265.25V317H266Z" fill="black"/>
<path d="M266 111L261.67 118.5H270.33L266 111ZM266 137H266.75V117.75H266H265.25V137H266Z" fill="black"/>
<path d="M266 97V91" stroke="black" stroke-width="1.5" stroke-miterlimit="11.4737"/>
<path d="M273 284L280.5 288.33V279.67L273 284ZM348 427H348.75V294H348H347.25V427H348ZM338 284V283.25H279.75V284V284.75H338V284ZM266 437V437.75H307V437V436.25H266V437ZM307 437V437.75H338V437V436.25H307V437ZM348 294H348.75C348.75 288.063 343.937 283.25 338 283.25V284V284.75C343.109 284.75 347.25 288.891 347.25 294H348ZM348 427H347.25C347.25 432.109 343.109 436.25 338 436.25V437V437.75C343.937 437.75 348.75 432.937 348.75 427H348Z" fill="black"/>
<path d="M266 350L261.67 357.5H270.33L266 350ZM266 389H266.75V356.75H266H265.25V389H266Z" fill="black"/>
<path d="M296 350L291.67 357.5H300.33L296 350ZM236 350L231.67 357.5H240.33L236 350ZM265.748 366V366.75H286V366V365.25H265.748V366ZM265.748 366V365.25H246V366V366.75H265.748V366ZM246 366V365.25C240.891 365.25 236.75 361.109 236.75 356H236H235.25C235.25 361.937 240.063 366.75 246 366.75V366ZM286 366V366.75C291.937 366.75 296.75 361.937 296.75 356H296H295.25C295.25 361.109 291.109 365.25 286 365.25V366Z" fill="black"/>
<circle cx="266" cy="284" r="6.75" fill="#D9D9D9" stroke="black" stroke-width="0.5"/>
<path d="M265.522 287.403V281.778H266.477V287.403H265.522ZM263.187 285.068V284.114H268.812V285.068H263.187Z" fill="black"/>
<path d="M216 209.5H317C322.247 209.5 326.5 213.753 326.5 219V223.859C326.5 229.106 322.247 233.359 317 233.359H216C210.753 233.359 206.5 229.106 206.5 223.859V219C206.5 213.753 210.753 209.5 216 209.5Z" fill="#BDE9EC" stroke="black"/>
<path d="M236.426 227.052V218.325H237.483V226.115H241.54V227.052H236.426ZM244.966 227.206C244.551 227.206 244.175 227.128 243.836 226.971C243.498 226.812 243.23 226.584 243.031 226.285C242.832 225.984 242.733 225.62 242.733 225.194C242.733 224.819 242.807 224.515 242.954 224.282C243.102 224.047 243.3 223.862 243.547 223.728C243.794 223.595 244.067 223.495 244.365 223.43C244.666 223.362 244.969 223.308 245.273 223.268C245.67 223.217 245.993 223.179 246.24 223.153C246.49 223.125 246.672 223.078 246.785 223.013C246.902 222.947 246.96 222.834 246.96 222.672V222.638C246.96 222.217 246.845 221.89 246.615 221.657C246.388 221.424 246.042 221.308 245.579 221.308C245.099 221.308 244.723 221.413 244.45 221.623C244.177 221.834 243.986 222.058 243.875 222.297L242.92 221.956C243.091 221.558 243.318 221.248 243.602 221.027C243.889 220.802 244.202 220.646 244.54 220.558C244.881 220.467 245.216 220.422 245.545 220.422C245.756 220.422 245.997 220.447 246.27 220.498C246.545 220.547 246.811 220.647 247.067 220.801C247.325 220.954 247.54 221.186 247.71 221.495C247.881 221.805 247.966 222.22 247.966 222.74V227.052H246.96V226.166H246.909C246.841 226.308 246.727 226.46 246.568 226.622C246.409 226.784 246.197 226.922 245.933 227.035C245.669 227.149 245.346 227.206 244.966 227.206ZM245.119 226.302C245.517 226.302 245.852 226.224 246.125 226.068C246.4 225.912 246.608 225.71 246.747 225.463C246.889 225.216 246.96 224.956 246.96 224.683V223.763C246.917 223.814 246.824 223.861 246.679 223.903C246.537 223.943 246.372 223.978 246.184 224.01C246 224.038 245.819 224.064 245.643 224.086C245.47 224.106 245.329 224.123 245.221 224.138C244.96 224.172 244.716 224.227 244.488 224.304C244.264 224.378 244.082 224.49 243.943 224.64C243.807 224.788 243.738 224.99 243.738 225.245C243.738 225.595 243.868 225.859 244.126 226.038C244.388 226.214 244.719 226.302 245.119 226.302ZM250.215 229.507C250.044 229.507 249.892 229.493 249.759 229.464C249.625 229.439 249.533 229.413 249.482 229.388L249.737 228.501C249.982 228.564 250.198 228.586 250.385 228.569C250.573 228.552 250.739 228.469 250.884 228.318C251.031 228.17 251.166 227.93 251.289 227.598L251.476 227.086L249.056 220.507H250.146L251.953 225.723H252.021L253.828 220.507H254.919L252.141 228.007C252.016 228.345 251.861 228.625 251.676 228.846C251.492 229.071 251.277 229.237 251.033 229.345C250.791 229.453 250.519 229.507 250.215 229.507ZM258.757 227.189C258.126 227.189 257.582 227.049 257.124 226.771C256.67 226.49 256.319 226.098 256.072 225.595C255.828 225.089 255.705 224.501 255.705 223.831C255.705 223.16 255.828 222.569 256.072 222.058C256.319 221.544 256.663 221.143 257.103 220.856C257.546 220.567 258.063 220.422 258.654 220.422C258.995 220.422 259.332 220.478 259.664 220.592C259.997 220.706 260.299 220.89 260.572 221.146C260.845 221.399 261.062 221.734 261.224 222.152C261.386 222.569 261.467 223.084 261.467 223.694V224.12H256.421V223.251H260.444C260.444 222.882 260.37 222.552 260.222 222.263C260.078 221.973 259.87 221.744 259.6 221.576C259.333 221.409 259.018 221.325 258.654 221.325C258.254 221.325 257.907 221.424 257.615 221.623C257.325 221.819 257.102 222.075 256.945 222.39C256.789 222.706 256.711 223.044 256.711 223.405V223.984C256.711 224.478 256.796 224.897 256.967 225.241C257.14 225.582 257.38 225.842 257.687 226.021C257.994 226.197 258.35 226.285 258.757 226.285C259.021 226.285 259.259 226.248 259.472 226.174C259.688 226.098 259.874 225.984 260.031 225.834C260.187 225.68 260.308 225.49 260.393 225.263L261.365 225.535C261.262 225.865 261.09 226.155 260.849 226.405C260.607 226.652 260.309 226.845 259.954 226.984C259.599 227.12 259.2 227.189 258.757 227.189ZM262.997 227.052V220.507H263.968V221.495H264.036C264.156 221.172 264.372 220.909 264.684 220.707C264.997 220.505 265.349 220.405 265.741 220.405C265.815 220.405 265.907 220.406 266.018 220.409C266.129 220.412 266.213 220.416 266.269 220.422V221.444C266.235 221.436 266.157 221.423 266.035 221.406C265.916 221.386 265.789 221.376 265.656 221.376C265.338 221.376 265.053 221.443 264.803 221.576C264.556 221.707 264.36 221.889 264.215 222.122C264.073 222.352 264.002 222.615 264.002 222.91V227.052H262.997ZM274.518 218.325V227.052H273.496L268.74 220.2H268.655V227.052H267.598V218.325H268.621L273.393 225.194H273.479V218.325H274.518ZM279.156 227.189C278.565 227.189 278.046 227.048 277.6 226.767C277.157 226.486 276.811 226.092 276.561 225.586C276.313 225.081 276.19 224.49 276.19 223.814C276.19 223.132 276.313 222.537 276.561 222.028C276.811 221.52 277.157 221.125 277.6 220.844C278.046 220.562 278.565 220.422 279.156 220.422C279.747 220.422 280.264 220.562 280.707 220.844C281.153 221.125 281.499 221.52 281.747 222.028C281.997 222.537 282.122 223.132 282.122 223.814C282.122 224.49 281.997 225.081 281.747 225.586C281.499 226.092 281.153 226.486 280.707 226.767C280.264 227.048 279.747 227.189 279.156 227.189ZM279.156 226.285C279.605 226.285 279.974 226.17 280.264 225.94C280.553 225.71 280.768 225.407 280.907 225.032C281.046 224.657 281.116 224.251 281.116 223.814C281.116 223.376 281.046 222.969 280.907 222.591C280.768 222.213 280.553 221.907 280.264 221.674C279.974 221.442 279.605 221.325 279.156 221.325C278.707 221.325 278.338 221.442 278.048 221.674C277.758 221.907 277.544 222.213 277.404 222.591C277.265 222.969 277.195 223.376 277.195 223.814C277.195 224.251 277.265 224.657 277.404 225.032C277.544 225.407 277.758 225.71 278.048 225.94C278.338 226.17 278.707 226.285 279.156 226.285ZM283.657 227.052V220.507H284.628V221.495H284.697C284.816 221.172 285.032 220.909 285.344 220.707C285.657 220.505 286.009 220.405 286.401 220.405C286.475 220.405 286.567 220.406 286.678 220.409C286.789 220.412 286.873 220.416 286.93 220.422V221.444C286.895 221.436 286.817 221.423 286.695 221.406C286.576 221.386 286.449 221.376 286.316 221.376C285.998 221.376 285.714 221.443 285.464 221.576C285.216 221.707 285.02 221.889 284.876 222.122C284.733 222.352 284.662 222.615 284.662 222.91V227.052H283.657ZM288.122 227.052V220.507H289.093V221.53H289.178C289.315 221.18 289.535 220.909 289.839 220.716C290.143 220.52 290.508 220.422 290.934 220.422C291.366 220.422 291.725 220.52 292.012 220.716C292.302 220.909 292.528 221.18 292.69 221.53H292.758C292.926 221.192 293.177 220.923 293.512 220.724C293.847 220.522 294.249 220.422 294.718 220.422C295.303 220.422 295.782 220.605 296.154 220.971C296.526 221.335 296.713 221.902 296.713 222.672V227.052H295.707V222.672C295.707 222.189 295.575 221.844 295.311 221.636C295.046 221.429 294.735 221.325 294.377 221.325C293.917 221.325 293.561 221.464 293.308 221.743C293.055 222.018 292.928 222.368 292.928 222.791V227.052H291.906V222.569C291.906 222.197 291.785 221.897 291.544 221.67C291.302 221.44 290.991 221.325 290.61 221.325C290.349 221.325 290.105 221.395 289.877 221.534C289.653 221.673 289.471 221.866 289.332 222.113C289.195 222.358 289.127 222.64 289.127 222.961V227.052H288.122Z" fill="black"/>
<path d="M216 137.5H317C322.247 137.5 326.5 141.753 326.5 147V159.859C326.5 165.106 322.247 169.359 317 169.359H216C210.753 169.359 206.5 165.106 206.5 159.859V147C206.5 141.753 210.753 137.5 216 137.5Z" fill="#BDE9EC" stroke="black"/>
<path d="M255.035 149.273H256.297L259.263 156.517H259.365L262.331 149.273H263.592V158H262.604V151.369H262.518L259.791 158H258.836L256.109 151.369H256.024V158H255.035V149.273ZM265.711 158V149.273H266.768V157.062H270.825V158H265.711ZM272.461 158V149.273H275.41C276.095 149.273 276.654 149.396 277.089 149.643C277.526 149.888 277.85 150.219 278.061 150.636C278.271 151.054 278.376 151.52 278.376 152.034C278.376 152.548 278.271 153.016 278.061 153.436C277.853 153.857 277.532 154.192 277.097 154.442C276.663 154.689 276.106 154.812 275.427 154.812H273.313V153.875H275.393C275.862 153.875 276.238 153.794 276.522 153.632C276.806 153.47 277.012 153.251 277.14 152.976C277.271 152.697 277.336 152.384 277.336 152.034C277.336 151.685 277.271 151.372 277.14 151.097C277.012 150.821 276.805 150.605 276.518 150.449C276.231 150.29 275.85 150.21 275.376 150.21H273.518V158H272.461Z" fill="black"/>
<path d="M266 234L261.67 241.5H270.33L266 234ZM266 277H266.75V240.75H266H265.25V277H266Z" fill="black"/>
<path d="M266 71L261.67 78.5H270.33L266 71ZM140 90V90.75L261 90.75V90V89.25L140 89.25V90ZM266 85H266.75V77.75H266H265.25V85H266ZM261 90V90.75C264.176 90.75 266.75 88.1756 266.75 85H266H265.25C265.25 87.3472 263.347 89.25 261 89.25V90Z" fill="#EA9000"/>
<path d="M273 104L280.5 108.33V99.6699L273 104ZM348 248L348.75 248V114H348H347.25V248H348ZM338 104V103.25H279.75V104V104.75H338V104ZM266 258V258.75H307V258V257.25H266V258ZM307 258V258.75H338V258V257.25H307V258ZM348 114H348.75C348.75 108.063 343.937 103.25 338 103.25V104V104.75C343.109 104.75 347.25 108.891 347.25 114H348ZM348 248H347.25C347.25 253.109 343.109 257.25 338 257.25V258V258.75C343.937 258.75 348.75 253.937 348.75 248L348 248Z" fill="black"/>
<path d="M266 170L261.67 177.5H270.33L266 170ZM266 209H266.75V176.75H266H265.25V209H266Z" fill="black"/>
<path d="M296 170L291.67 177.5H300.33L296 170ZM236 170L231.67 177.5H240.33L236 170ZM265.748 186V186.75H286V186V185.25H265.748V186ZM265.748 186V185.25H246V186V186.75H265.748V186ZM246 186V185.25C240.891 185.25 236.75 181.109 236.75 176H236H235.25C235.25 181.937 240.063 186.75 246 186.75V186ZM286 186V186.75C291.937 186.75 296.75 181.937 296.75 176H296H295.25C295.25 181.109 291.109 185.25 286 185.25V186Z" fill="black"/>
<circle cx="266" cy="104" r="6.75" fill="#D9D9D9" stroke="black" stroke-width="0.5"/>
<path d="M265.522 107.403V101.778H266.477V107.403H265.522ZM263.187 105.068V104.114H268.812V105.068H263.187Z" fill="black"/>
<path d="M96.7727 95.1598C95.9453 95.1598 95.2297 94.984 94.626 94.6325C94.0259 94.2773 93.5625 93.7837 93.2358 93.1516C92.909 92.516 92.7457 91.7791 92.7457 90.9411C92.7457 90.0959 92.909 89.3572 93.2358 88.7251C93.5625 88.0895 94.0259 87.5959 94.626 87.2443C95.2297 86.8892 95.9453 86.7116 96.7727 86.7116C97.6001 86.7116 98.3139 86.8892 98.914 87.2443C99.5177 87.5959 99.9829 88.0895 100.31 88.7251C100.636 89.3572 100.8 90.0959 100.8 90.9411C100.8 91.7791 100.636 92.516 100.31 93.1516C99.9829 93.7837 99.5177 94.2773 98.914 94.6325C98.3139 94.984 97.6001 95.1598 96.7727 95.1598ZM96.7833 93.402C97.1598 93.402 97.474 93.2955 97.7262 93.0824C97.9783 92.8658 98.1683 92.571 98.2961 92.1982C98.4275 91.8253 98.4932 91.4009 98.4932 90.9251C98.4932 90.4492 98.4275 90.0249 98.2961 89.652C98.1683 89.2791 97.9783 88.9844 97.7262 88.7678C97.474 88.5511 97.1598 88.4428 96.7833 88.4428C96.4034 88.4428 96.0838 88.5511 95.8245 88.7678C95.5688 88.9844 95.3753 89.2791 95.2439 89.652C95.1161 90.0249 95.0522 90.4492 95.0522 90.9251C95.0522 91.4009 95.1161 91.8253 95.2439 92.1982C95.3753 92.571 95.5688 92.8658 95.8245 93.0824C96.0838 93.2955 96.4034 93.402 96.7833 93.402ZM102.275 95V86.8182H104.475V88.2457H104.56C104.709 87.7379 104.96 87.3544 105.311 87.0952C105.663 86.8324 106.068 86.701 106.526 86.701C106.64 86.701 106.762 86.7081 106.893 86.7223C107.025 86.7365 107.14 86.756 107.24 86.7809V88.7944C107.133 88.7624 106.986 88.734 106.798 88.7092C106.609 88.6843 106.437 88.6719 106.281 88.6719C105.947 88.6719 105.649 88.7447 105.386 88.8903C105.127 89.0323 104.921 89.2312 104.768 89.4869C104.619 89.7425 104.544 90.0373 104.544 90.3711V95H102.275ZM110.512 95.1545C109.99 95.1545 109.524 95.0639 109.116 94.8828C108.708 94.6982 108.384 94.4265 108.147 94.0678C107.912 93.7056 107.795 93.2546 107.795 92.7148C107.795 92.2603 107.878 91.8786 108.045 91.5696C108.212 91.2607 108.439 91.0121 108.727 90.8239C109.015 90.6357 109.341 90.4936 109.707 90.3977C110.077 90.3018 110.464 90.2344 110.868 90.1953C111.344 90.1456 111.728 90.0994 112.019 90.0568C112.31 90.0107 112.522 89.9432 112.653 89.8544C112.784 89.7656 112.85 89.6342 112.85 89.4602V89.4283C112.85 89.0909 112.743 88.8299 112.53 88.6452C112.321 88.4606 112.023 88.3683 111.636 88.3683C111.227 88.3683 110.902 88.4588 110.661 88.6399C110.419 88.8175 110.259 89.0412 110.181 89.3111L108.083 89.1406C108.189 88.6435 108.399 88.2138 108.711 87.8516C109.024 87.4858 109.427 87.2053 109.92 87.0099C110.417 86.8111 110.993 86.7116 111.646 86.7116C112.101 86.7116 112.536 86.7649 112.951 86.8714C113.37 86.978 113.741 87.1431 114.064 87.3668C114.391 87.5906 114.649 87.8782 114.837 88.2298C115.025 88.5778 115.119 88.995 115.119 89.4815V95H112.967V93.8654H112.903C112.772 94.1211 112.596 94.3466 112.376 94.5419C112.156 94.7337 111.891 94.8846 111.582 94.9947C111.273 95.1012 110.916 95.1545 110.512 95.1545ZM111.161 93.5884C111.495 93.5884 111.79 93.5227 112.046 93.3913C112.301 93.2564 112.502 93.0753 112.648 92.848C112.793 92.6207 112.866 92.3633 112.866 92.0756V91.2074C112.795 91.2536 112.697 91.2962 112.573 91.3352C112.452 91.3707 112.316 91.4045 112.163 91.4364C112.01 91.4648 111.857 91.4915 111.705 91.5163C111.552 91.5376 111.414 91.5572 111.289 91.5749C111.023 91.614 110.79 91.6761 110.591 91.7614C110.393 91.8466 110.238 91.962 110.128 92.1076C110.018 92.2496 109.963 92.4272 109.963 92.6403C109.963 92.9492 110.075 93.1854 110.299 93.3487C110.526 93.5085 110.813 93.5884 111.161 93.5884ZM120.576 95.1598C119.738 95.1598 119.017 94.9822 118.414 94.6271C117.814 94.2685 117.352 93.7713 117.029 93.1357C116.709 92.5 116.549 91.7685 116.549 90.9411C116.549 90.103 116.711 89.3679 117.034 88.7358C117.361 88.1001 117.824 87.6048 118.424 87.2496C119.025 86.891 119.738 86.7116 120.566 86.7116C121.28 86.7116 121.905 86.8413 122.441 87.1005C122.977 87.3597 123.401 87.7237 123.714 88.1925C124.026 88.6612 124.199 89.2116 124.231 89.8438H122.089C122.029 89.4354 121.869 89.1069 121.61 88.8583C121.354 88.6062 121.019 88.4801 120.603 88.4801C120.251 88.4801 119.944 88.576 119.682 88.7678C119.422 88.956 119.22 89.2312 119.074 89.5934C118.929 89.9556 118.856 90.3942 118.856 90.9091C118.856 91.4311 118.927 91.875 119.069 92.2408C119.215 92.6065 119.419 92.8853 119.682 93.0771C119.944 93.2688 120.251 93.3647 120.603 93.3647C120.862 93.3647 121.095 93.3114 121.301 93.2049C121.51 93.0984 121.683 92.9439 121.818 92.7415C121.956 92.5355 122.047 92.2887 122.089 92.0011H124.231C124.195 92.6261 124.025 93.1765 123.719 93.6523C123.417 94.1246 123 94.494 122.467 94.7603C121.935 95.0266 121.304 95.1598 120.576 95.1598ZM127.953 84.0909V95H125.683V84.0909H127.953ZM133.499 95.1598C132.657 95.1598 131.933 94.9893 131.326 94.6484C130.722 94.304 130.257 93.8175 129.93 93.1889C129.603 92.5568 129.44 91.8093 129.44 90.9464C129.44 90.1048 129.603 89.3661 129.93 88.7305C130.257 88.0948 130.717 87.5994 131.31 87.2443C131.906 86.8892 132.606 86.7116 133.408 86.7116C133.948 86.7116 134.451 86.7987 134.916 86.9727C135.385 87.1431 135.793 87.4006 136.141 87.745C136.493 88.0895 136.766 88.5227 136.961 89.0447C137.157 89.5632 137.254 90.1705 137.254 90.8665V91.4897H130.346V90.0835H135.118C135.118 89.7567 135.047 89.4673 134.905 89.2152C134.763 88.9631 134.566 88.766 134.314 88.6239C134.065 88.4783 133.776 88.4055 133.446 88.4055C133.101 88.4055 132.796 88.4854 132.53 88.6452C132.267 88.8015 132.061 89.0128 131.912 89.2791C131.762 89.5419 131.686 89.8349 131.683 90.158V91.495C131.683 91.8999 131.757 92.2496 131.906 92.5444C132.059 92.8391 132.274 93.0664 132.551 93.2262C132.828 93.386 133.156 93.4659 133.536 93.4659C133.788 93.4659 134.019 93.4304 134.229 93.3594C134.438 93.2884 134.618 93.1818 134.767 93.0398C134.916 92.8977 135.03 92.7237 135.108 92.5178L137.206 92.6562C137.1 93.1605 136.881 93.6009 136.551 93.9773C136.224 94.3501 135.802 94.6413 135.283 94.8509C134.769 95.0568 134.174 95.1598 133.499 95.1598Z" fill="#EA9000"/>
<path d="M177.359 81.6733L173.757 78.0888C173.54 77.8727 173.504 77.8367 173.36 77.8367C173.18 77.8367 173 77.9988 173 78.1969C173 78.323 173.036 78.359 173.234 78.5572L176.837 82.1777L173.234 85.7982C173.036 85.9963 173 86.0323 173 86.1584C173 86.3565 173.18 86.5187 173.36 86.5187C173.504 86.5187 173.54 86.4826 173.757 86.2665L177.341 82.682L181.07 86.4106C181.106 86.4286 181.232 86.5187 181.34 86.5187C181.556 86.5187 181.7 86.3565 181.7 86.1584C181.7 86.1224 181.7 86.0503 181.646 85.9603C181.628 85.9242 178.764 83.0963 177.863 82.1777L181.16 78.8814C181.25 78.7733 181.52 78.5391 181.61 78.4311C181.628 78.395 181.7 78.323 181.7 78.1969C181.7 77.9988 181.556 77.8367 181.34 77.8367C181.196 77.8367 181.124 77.9087 180.925 78.1068L177.359 81.6733Z" fill="black"/>
<path d="M186.019 83.6186C184.884 84.7354 184.596 85.0056 184.596 85.0777C184.596 85.1497 184.668 85.2758 184.794 85.2758C184.884 85.2758 185.911 84.2851 186.055 84.123C186.163 85.3298 186.613 86.8969 188.018 86.8969C188.739 86.8969 189.387 86.4466 189.676 86.2305C189.91 86.0503 190.774 85.3118 190.774 85.1497C190.774 85.0596 190.684 84.9516 190.594 84.9516C190.522 84.9516 190.252 85.2218 190.18 85.2938C189.549 85.9062 188.757 86.5367 188.036 86.5367C187.064 86.5367 186.938 85.1317 186.938 84.159C186.938 83.9789 186.938 83.2224 187.064 83.0783C188.127 81.9795 191.459 78.5391 191.459 75.3509C191.459 74.6304 191.189 74 190.414 74C188.739 74 187.28 77.7106 187.028 78.395C186.956 78.5752 185.911 81.3491 186.019 83.6186ZM187.1 82.5019C187.118 82.3938 187.928 77.6745 189.441 75.1528C189.748 74.6665 190.054 74.3602 190.414 74.3602C191.027 74.3602 191.063 74.9366 191.063 75.3329C191.063 75.9634 190.882 77.5845 189.315 79.854C188.847 80.5205 188.127 81.4211 187.1 82.5019Z" fill="black"/>
<path d="M262 97L270 91" stroke="#EA9000" stroke-width="1.5" stroke-miterlimit="11.4737"/>
</svg>
