<svg width="532" height="527" viewBox="0 0 532 527" fill="none" xmlns="http://www.w3.org/2000/svg">
<rect width="532" height="527" fill="white"/>
<path d="M176 71H356C360.971 71 365 75.0294 365 80V447C365 451.971 360.971 456 356 456H176C171.029 456 167 451.971 167 447V80C167 75.0294 171.029 71 176 71Z" fill="white" stroke="black" stroke-width="2"/>
<path d="M216 389.5H317C322.247 389.5 326.5 393.753 326.5 399V403.859C326.5 409.106 322.247 413.359 317 413.359H216C210.753 413.359 206.5 409.106 206.5 403.859V399C206.5 393.753 210.753 389.5 216 389.5Z" fill="white" stroke="black"/>
<path d="M236.426 407.052V398.325H237.483V406.115H241.54V407.052H236.426ZM244.966 407.206C244.551 407.206 244.175 407.128 243.836 406.971C243.498 406.812 243.23 406.584 243.031 406.285C242.832 405.984 242.733 405.62 242.733 405.194C242.733 404.819 242.807 404.515 242.954 404.282C243.102 404.047 243.3 403.862 243.547 403.728C243.794 403.595 244.067 403.495 244.365 403.43C244.666 403.362 244.969 403.308 245.273 403.268C245.67 403.217 245.993 403.179 246.24 403.153C246.49 403.125 246.672 403.078 246.785 403.013C246.902 402.947 246.96 402.834 246.96 402.672V402.638C246.96 402.217 246.845 401.89 246.615 401.657C246.388 401.424 246.042 401.308 245.579 401.308C245.099 401.308 244.723 401.413 244.45 401.623C244.177 401.834 243.986 402.058 243.875 402.297L242.92 401.956C243.091 401.558 243.318 401.248 243.602 401.027C243.889 400.802 244.202 400.646 244.54 400.558C244.881 400.467 245.216 400.422 245.545 400.422C245.756 400.422 245.997 400.447 246.27 400.498C246.545 400.547 246.811 400.647 247.067 400.801C247.325 400.954 247.54 401.186 247.71 401.495C247.881 401.805 247.966 402.22 247.966 402.74V407.052H246.96V406.166H246.909C246.841 406.308 246.727 406.46 246.568 406.622C246.409 406.784 246.197 406.922 245.933 407.035C245.669 407.149 245.346 407.206 244.966 407.206ZM245.119 406.302C245.517 406.302 245.852 406.224 246.125 406.068C246.4 405.912 246.608 405.71 246.747 405.463C246.889 405.216 246.96 404.956 246.96 404.683V403.763C246.917 403.814 246.824 403.861 246.679 403.903C246.537 403.943 246.372 403.978 246.184 404.01C246 404.038 245.819 404.064 245.643 404.086C245.47 404.106 245.329 404.123 245.221 404.138C244.96 404.172 244.716 404.227 244.488 404.304C244.264 404.378 244.082 404.49 243.943 404.64C243.807 404.788 243.738 404.99 243.738 405.245C243.738 405.595 243.868 405.859 244.126 406.038C244.388 406.214 244.719 406.302 245.119 406.302ZM250.215 409.507C250.044 409.507 249.892 409.493 249.759 409.464C249.625 409.439 249.533 409.413 249.482 409.388L249.737 408.501C249.982 408.564 250.198 408.586 250.385 408.569C250.573 408.552 250.739 408.469 250.884 408.318C251.031 408.17 251.166 407.93 251.289 407.598L251.476 407.086L249.056 400.507H250.146L251.953 405.723H252.021L253.828 400.507H254.919L252.141 408.007C252.016 408.345 251.861 408.625 251.676 408.846C251.492 409.071 251.277 409.237 251.033 409.345C250.791 409.453 250.519 409.507 250.215 409.507ZM258.757 407.189C258.126 407.189 257.582 407.049 257.124 406.771C256.67 406.49 256.319 406.098 256.072 405.595C255.828 405.089 255.705 404.501 255.705 403.831C255.705 403.16 255.828 402.569 256.072 402.058C256.319 401.544 256.663 401.143 257.103 400.856C257.546 400.567 258.063 400.422 258.654 400.422C258.995 400.422 259.332 400.478 259.664 400.592C259.997 400.706 260.299 400.89 260.572 401.146C260.845 401.399 261.062 401.734 261.224 402.152C261.386 402.569 261.467 403.084 261.467 403.694V404.12H256.421V403.251H260.444C260.444 402.882 260.37 402.552 260.222 402.263C260.078 401.973 259.87 401.744 259.6 401.576C259.333 401.409 259.018 401.325 258.654 401.325C258.254 401.325 257.907 401.424 257.615 401.623C257.325 401.819 257.102 402.075 256.945 402.39C256.789 402.706 256.711 403.044 256.711 403.405V403.984C256.711 404.478 256.796 404.897 256.967 405.241C257.14 405.582 257.38 405.842 257.687 406.021C257.994 406.197 258.35 406.285 258.757 406.285C259.021 406.285 259.259 406.248 259.472 406.174C259.688 406.098 259.874 405.984 260.031 405.834C260.187 405.68 260.308 405.49 260.393 405.263L261.365 405.535C261.262 405.865 261.09 406.155 260.849 406.405C260.607 406.652 260.309 406.845 259.954 406.984C259.599 407.12 259.2 407.189 258.757 407.189ZM262.997 407.052V400.507H263.968V401.495H264.036C264.156 401.172 264.372 400.909 264.684 400.707C264.997 400.505 265.349 400.405 265.741 400.405C265.815 400.405 265.907 400.406 266.018 400.409C266.129 400.412 266.213 400.416 266.269 400.422V401.444C266.235 401.436 266.157 401.423 266.035 401.406C265.916 401.386 265.789 401.376 265.656 401.376C265.338 401.376 265.053 401.443 264.803 401.576C264.556 401.707 264.36 401.889 264.215 402.122C264.073 402.352 264.002 402.615 264.002 402.91V407.052H262.997ZM274.518 398.325V407.052H273.496L268.74 400.2H268.655V407.052H267.598V398.325H268.621L273.393 405.194H273.479V398.325H274.518ZM279.156 407.189C278.565 407.189 278.046 407.048 277.6 406.767C277.157 406.486 276.811 406.092 276.561 405.586C276.313 405.081 276.19 404.49 276.19 403.814C276.19 403.132 276.313 402.537 276.561 402.028C276.811 401.52 277.157 401.125 277.6 400.844C278.046 400.562 278.565 400.422 279.156 400.422C279.747 400.422 280.264 400.562 280.707 400.844C281.153 401.125 281.499 401.52 281.747 402.028C281.997 402.537 282.122 403.132 282.122 403.814C282.122 404.49 281.997 405.081 281.747 405.586C281.499 406.092 281.153 406.486 280.707 406.767C280.264 407.048 279.747 407.189 279.156 407.189ZM279.156 406.285C279.605 406.285 279.974 406.17 280.264 405.94C280.553 405.71 280.768 405.407 280.907 405.032C281.046 404.657 281.116 404.251 281.116 403.814C281.116 403.376 281.046 402.969 280.907 402.591C280.768 402.213 280.553 401.907 280.264 401.674C279.974 401.442 279.605 401.325 279.156 401.325C278.707 401.325 278.338 401.442 278.048 401.674C277.758 401.907 277.544 402.213 277.404 402.591C277.265 402.969 277.195 403.376 277.195 403.814C277.195 404.251 277.265 404.657 277.404 405.032C277.544 405.407 277.758 405.71 278.048 405.94C278.338 406.17 278.707 406.285 279.156 406.285ZM283.657 407.052V400.507H284.628V401.495H284.697C284.816 401.172 285.032 400.909 285.344 400.707C285.657 400.505 286.009 400.405 286.401 400.405C286.475 400.405 286.567 400.406 286.678 400.409C286.789 400.412 286.873 400.416 286.93 400.422V401.444C286.895 401.436 286.817 401.423 286.695 401.406C286.576 401.386 286.449 401.376 286.316 401.376C285.998 401.376 285.714 401.443 285.464 401.576C285.216 401.707 285.02 401.889 284.876 402.122C284.733 402.352 284.662 402.615 284.662 402.91V407.052H283.657ZM288.122 407.052V400.507H289.093V401.53H289.178C289.315 401.18 289.535 400.909 289.839 400.716C290.143 400.52 290.508 400.422 290.934 400.422C291.366 400.422 291.725 400.52 292.012 400.716C292.302 400.909 292.528 401.18 292.69 401.53H292.758C292.926 401.192 293.177 400.923 293.512 400.724C293.847 400.522 294.249 400.422 294.718 400.422C295.303 400.422 295.782 400.605 296.154 400.971C296.526 401.335 296.713 401.902 296.713 402.672V407.052H295.707V402.672C295.707 402.189 295.575 401.844 295.311 401.636C295.046 401.429 294.735 401.325 294.377 401.325C293.917 401.325 293.561 401.464 293.308 401.743C293.055 402.018 292.928 402.368 292.928 402.791V407.052H291.906V402.569C291.906 402.197 291.785 401.897 291.544 401.67C291.302 401.44 290.991 401.325 290.61 401.325C290.349 401.325 290.105 401.395 289.877 401.534C289.653 401.673 289.471 401.866 289.332 402.113C289.195 402.358 289.127 402.64 289.127 402.961V407.052H288.122Z" fill="black"/>
<path d="M216 317.5H317C322.247 317.5 326.5 321.753 326.5 327V339.859C326.5 345.106 322.247 349.359 317 349.359H216C210.753 349.359 206.5 345.106 206.5 339.859V327C206.5 321.753 210.753 317.5 216 317.5Z" fill="white" stroke="black"/>
<path d="M242.046 338H240.938L244.142 329.273H245.233L248.438 338H247.33L244.722 330.653H244.654L242.046 338ZM242.455 334.591H246.921V335.528H242.455V334.591ZM252.097 331.455V332.307H248.705V331.455H252.097ZM249.694 329.886H250.699V336.125C250.699 336.409 250.741 336.622 250.823 336.764C250.908 336.903 251.016 336.997 251.147 337.045C251.28 337.091 251.421 337.114 251.569 337.114C251.68 337.114 251.77 337.108 251.841 337.097C251.912 337.082 251.969 337.071 252.012 337.062L252.216 337.966C252.148 337.991 252.053 338.017 251.931 338.043C251.809 338.071 251.654 338.085 251.466 338.085C251.182 338.085 250.904 338.024 250.631 337.902C250.361 337.78 250.137 337.594 249.958 337.344C249.782 337.094 249.694 336.778 249.694 336.398V329.886ZM256.456 331.455V332.307H253.064V331.455H256.456ZM254.053 329.886H255.059V336.125C255.059 336.409 255.1 336.622 255.182 336.764C255.268 336.903 255.376 336.997 255.506 337.045C255.64 337.091 255.78 337.114 255.928 337.114C256.039 337.114 256.13 337.108 256.201 337.097C256.272 337.082 256.329 337.071 256.371 337.062L256.576 337.966C256.508 337.991 256.412 338.017 256.29 338.043C256.168 338.071 256.013 338.085 255.826 338.085C255.542 338.085 255.263 338.024 254.991 337.902C254.721 337.78 254.496 337.594 254.317 337.344C254.141 337.094 254.053 336.778 254.053 336.398V329.886ZM260.643 338.136C260.013 338.136 259.469 337.997 259.011 337.719C258.557 337.438 258.206 337.045 257.959 336.543C257.714 336.037 257.592 335.449 257.592 334.778C257.592 334.108 257.714 333.517 257.959 333.006C258.206 332.491 258.55 332.091 258.99 331.804C259.433 331.514 259.95 331.369 260.541 331.369C260.882 331.369 261.219 331.426 261.551 331.54C261.883 331.653 262.186 331.838 262.459 332.094C262.731 332.347 262.949 332.682 263.111 333.099C263.273 333.517 263.354 334.031 263.354 334.642V335.068H258.308V334.199H262.331C262.331 333.83 262.257 333.5 262.109 333.21C261.964 332.92 261.757 332.692 261.487 332.524C261.22 332.357 260.905 332.273 260.541 332.273C260.14 332.273 259.794 332.372 259.501 332.571C259.211 332.767 258.988 333.023 258.832 333.338C258.676 333.653 258.598 333.991 258.598 334.352V334.932C258.598 335.426 258.683 335.845 258.854 336.189C259.027 336.53 259.267 336.79 259.574 336.969C259.881 337.145 260.237 337.233 260.643 337.233C260.907 337.233 261.146 337.196 261.359 337.122C261.575 337.045 261.761 336.932 261.917 336.781C262.074 336.628 262.194 336.437 262.28 336.21L263.251 336.483C263.149 336.812 262.977 337.102 262.736 337.352C262.494 337.599 262.196 337.793 261.841 337.932C261.486 338.068 261.086 338.136 260.643 338.136ZM265.889 334.062V338H264.883V331.455H265.855V332.477H265.94C266.094 332.145 266.327 331.878 266.639 331.676C266.952 331.472 267.355 331.369 267.849 331.369C268.292 331.369 268.68 331.46 269.013 331.642C269.345 331.821 269.604 332.094 269.788 332.46C269.973 332.824 270.065 333.284 270.065 333.841V338H269.059V333.909C269.059 333.395 268.926 332.994 268.659 332.707C268.392 332.418 268.025 332.273 267.559 332.273C267.238 332.273 266.952 332.342 266.699 332.482C266.449 332.621 266.251 332.824 266.106 333.091C265.961 333.358 265.889 333.682 265.889 334.062ZM274.749 331.455V332.307H271.357V331.455H274.749ZM272.346 329.886H273.352V336.125C273.352 336.409 273.393 336.622 273.475 336.764C273.561 336.903 273.669 336.997 273.799 337.045C273.933 337.091 274.073 337.114 274.221 337.114C274.332 337.114 274.423 337.108 274.494 337.097C274.565 337.082 274.622 337.071 274.664 337.062L274.869 337.966C274.801 337.991 274.705 338.017 274.583 338.043C274.461 338.071 274.306 338.085 274.119 338.085C273.835 338.085 273.556 338.024 273.284 337.902C273.014 337.78 272.789 337.594 272.61 337.344C272.434 337.094 272.346 336.778 272.346 336.398V329.886ZM276.262 338V331.455H277.268V338H276.262ZM276.774 330.364C276.578 330.364 276.409 330.297 276.267 330.163C276.127 330.03 276.058 329.869 276.058 329.682C276.058 329.494 276.127 329.334 276.267 329.2C276.409 329.067 276.578 329 276.774 329C276.97 329 277.137 329.067 277.276 329.2C277.419 329.334 277.49 329.494 277.49 329.682C277.49 329.869 277.419 330.03 277.276 330.163C277.137 330.297 276.97 330.364 276.774 330.364ZM281.769 338.136C281.178 338.136 280.66 337.996 280.214 337.714C279.77 337.433 279.424 337.04 279.174 336.534C278.927 336.028 278.803 335.437 278.803 334.761C278.803 334.08 278.927 333.484 279.174 332.976C279.424 332.467 279.77 332.072 280.214 331.791C280.66 331.51 281.178 331.369 281.769 331.369C282.36 331.369 282.877 331.51 283.32 331.791C283.766 332.072 284.113 332.467 284.36 332.976C284.61 333.484 284.735 334.08 284.735 334.761C284.735 335.437 284.61 336.028 284.36 336.534C284.113 337.04 283.766 337.433 283.32 337.714C282.877 337.996 282.36 338.136 281.769 338.136ZM281.769 337.233C282.218 337.233 282.587 337.118 282.877 336.888C283.167 336.658 283.381 336.355 283.52 335.98C283.66 335.605 283.729 335.199 283.729 334.761C283.729 334.324 283.66 333.916 283.52 333.538C283.381 333.161 283.167 332.855 282.877 332.622C282.587 332.389 282.218 332.273 281.769 332.273C281.32 332.273 280.951 332.389 280.661 332.622C280.371 332.855 280.157 333.161 280.018 333.538C279.878 333.916 279.809 334.324 279.809 334.761C279.809 335.199 279.878 335.605 280.018 335.98C280.157 336.355 280.371 336.658 280.661 336.888C280.951 337.118 281.32 337.233 281.769 337.233ZM287.276 334.062V338H286.27V331.455H287.242V332.477H287.327C287.48 332.145 287.713 331.878 288.026 331.676C288.338 331.472 288.742 331.369 289.236 331.369C289.679 331.369 290.067 331.46 290.399 331.642C290.732 331.821 290.99 332.094 291.175 332.46C291.36 332.824 291.452 333.284 291.452 333.841V338H290.446V333.909C290.446 333.395 290.313 332.994 290.046 332.707C289.779 332.418 289.412 332.273 288.946 332.273C288.625 332.273 288.338 332.342 288.085 332.482C287.835 332.621 287.638 332.824 287.493 333.091C287.348 333.358 287.276 333.682 287.276 334.062Z" fill="black"/>
<path d="M266 414L261.67 421.5H270.33L266 414ZM266 457H266.75V420.75H266H265.25V457H266Z" fill="black"/>
<path d="M266 457L258.783 469.5H273.217L266 457ZM266 500H267.25V468.25H266H264.75V500H266Z" fill="black"/>
<path d="M266 27L258.783 39.5H273.217L266 27ZM266 70H267.25V38.25H266H264.75V70H266Z" fill="black"/>
<path d="M266 291L261.67 298.5H270.33L266 291ZM266 317H266.75V297.75H266H265.25V317H266Z" fill="black"/>
<path d="M266 70L261.67 77.5H270.33L266 70ZM266 98H266.75V76.75H266H265.25V98H266Z" fill="black"/>
<path d="M273 284L280.5 288.33V279.67L273 284ZM348 427H348.75V294H348H347.25V427H348ZM338 284V283.25H279.75V284V284.75H338V284ZM266 437V437.75H307V437V436.25H266V437ZM307 437V437.75H338V437V436.25H307V437ZM348 294H348.75C348.75 288.063 343.937 283.25 338 283.25V284V284.75C343.109 284.75 347.25 288.891 347.25 294H348ZM348 427H347.25C347.25 432.109 343.109 436.25 338 436.25V437V437.75C343.937 437.75 348.75 432.937 348.75 427H348Z" fill="black"/>
<path d="M266 350L261.67 357.5H270.33L266 350ZM266 389H266.75V356.75H266H265.25V389H266Z" fill="black"/>
<path d="M296 350L291.67 357.5H300.33L296 350ZM236 350L231.67 357.5H240.33L236 350ZM265.748 366V366.75H286V366V365.25H265.748V366ZM265.748 366V365.25H246V366V366.75H265.748V366ZM246 366V365.25C240.891 365.25 236.75 361.109 236.75 356H236H235.25C235.25 361.937 240.063 366.75 246 366.75V366ZM286 366V366.75C291.937 366.75 296.75 361.937 296.75 356H296H295.25C295.25 361.109 291.109 365.25 286 365.25V366Z" fill="black"/>
<circle cx="266" cy="284" r="6.75" fill="#D9D9D9" stroke="black" stroke-width="0.5"/>
<path d="M265.522 287.403V281.778H266.477V287.403H265.522ZM263.187 285.068V284.114H268.812V285.068H263.187Z" fill="black"/>
<path d="M216 209.5H317C322.247 209.5 326.5 213.753 326.5 219V223.859C326.5 229.106 322.247 233.359 317 233.359H216C210.753 233.359 206.5 229.106 206.5 223.859V219C206.5 213.753 210.753 209.5 216 209.5Z" fill="white" stroke="black"/>
<path d="M236.426 227.052V218.325H237.483V226.115H241.54V227.052H236.426ZM244.966 227.206C244.551 227.206 244.175 227.128 243.836 226.971C243.498 226.812 243.23 226.584 243.031 226.285C242.832 225.984 242.733 225.62 242.733 225.194C242.733 224.819 242.807 224.515 242.954 224.282C243.102 224.047 243.3 223.862 243.547 223.728C243.794 223.595 244.067 223.495 244.365 223.43C244.666 223.362 244.969 223.308 245.273 223.268C245.67 223.217 245.993 223.179 246.24 223.153C246.49 223.125 246.672 223.078 246.785 223.013C246.902 222.947 246.96 222.834 246.96 222.672V222.638C246.96 222.217 246.845 221.89 246.615 221.657C246.388 221.424 246.042 221.308 245.579 221.308C245.099 221.308 244.723 221.413 244.45 221.623C244.177 221.834 243.986 222.058 243.875 222.297L242.92 221.956C243.091 221.558 243.318 221.248 243.602 221.027C243.889 220.802 244.202 220.646 244.54 220.558C244.881 220.467 245.216 220.422 245.545 220.422C245.756 220.422 245.997 220.447 246.27 220.498C246.545 220.547 246.811 220.647 247.067 220.801C247.325 220.954 247.54 221.186 247.71 221.495C247.881 221.805 247.966 222.22 247.966 222.74V227.052H246.96V226.166H246.909C246.841 226.308 246.727 226.46 246.568 226.622C246.409 226.784 246.197 226.922 245.933 227.035C245.669 227.149 245.346 227.206 244.966 227.206ZM245.119 226.302C245.517 226.302 245.852 226.224 246.125 226.068C246.4 225.912 246.608 225.71 246.747 225.463C246.889 225.216 246.96 224.956 246.96 224.683V223.763C246.917 223.814 246.824 223.861 246.679 223.903C246.537 223.943 246.372 223.978 246.184 224.01C246 224.038 245.819 224.064 245.643 224.086C245.47 224.106 245.329 224.123 245.221 224.138C244.96 224.172 244.716 224.227 244.488 224.304C244.264 224.378 244.082 224.49 243.943 224.64C243.807 224.788 243.738 224.99 243.738 225.245C243.738 225.595 243.868 225.859 244.126 226.038C244.388 226.214 244.719 226.302 245.119 226.302ZM250.215 229.507C250.044 229.507 249.892 229.493 249.759 229.464C249.625 229.439 249.533 229.413 249.482 229.388L249.737 228.501C249.982 228.564 250.198 228.586 250.385 228.569C250.573 228.552 250.739 228.469 250.884 228.318C251.031 228.17 251.166 227.93 251.289 227.598L251.476 227.086L249.056 220.507H250.146L251.953 225.723H252.021L253.828 220.507H254.919L252.141 228.007C252.016 228.345 251.861 228.625 251.676 228.846C251.492 229.071 251.277 229.237 251.033 229.345C250.791 229.453 250.519 229.507 250.215 229.507ZM258.757 227.189C258.126 227.189 257.582 227.049 257.124 226.771C256.67 226.49 256.319 226.098 256.072 225.595C255.828 225.089 255.705 224.501 255.705 223.831C255.705 223.16 255.828 222.569 256.072 222.058C256.319 221.544 256.663 221.143 257.103 220.856C257.546 220.567 258.063 220.422 258.654 220.422C258.995 220.422 259.332 220.478 259.664 220.592C259.997 220.706 260.299 220.89 260.572 221.146C260.845 221.399 261.062 221.734 261.224 222.152C261.386 222.569 261.467 223.084 261.467 223.694V224.12H256.421V223.251H260.444C260.444 222.882 260.37 222.552 260.222 222.263C260.078 221.973 259.87 221.744 259.6 221.576C259.333 221.409 259.018 221.325 258.654 221.325C258.254 221.325 257.907 221.424 257.615 221.623C257.325 221.819 257.102 222.075 256.945 222.39C256.789 222.706 256.711 223.044 256.711 223.405V223.984C256.711 224.478 256.796 224.897 256.967 225.241C257.14 225.582 257.38 225.842 257.687 226.021C257.994 226.197 258.35 226.285 258.757 226.285C259.021 226.285 259.259 226.248 259.472 226.174C259.688 226.098 259.874 225.984 260.031 225.834C260.187 225.68 260.308 225.49 260.393 225.263L261.365 225.535C261.262 225.865 261.09 226.155 260.849 226.405C260.607 226.652 260.309 226.845 259.954 226.984C259.599 227.12 259.2 227.189 258.757 227.189ZM262.997 227.052V220.507H263.968V221.495H264.036C264.156 221.172 264.372 220.909 264.684 220.707C264.997 220.505 265.349 220.405 265.741 220.405C265.815 220.405 265.907 220.406 266.018 220.409C266.129 220.412 266.213 220.416 266.269 220.422V221.444C266.235 221.436 266.157 221.423 266.035 221.406C265.916 221.386 265.789 221.376 265.656 221.376C265.338 221.376 265.053 221.443 264.803 221.576C264.556 221.707 264.36 221.889 264.215 222.122C264.073 222.352 264.002 222.615 264.002 222.91V227.052H262.997ZM274.518 218.325V227.052H273.496L268.74 220.2H268.655V227.052H267.598V218.325H268.621L273.393 225.194H273.479V218.325H274.518ZM279.156 227.189C278.565 227.189 278.046 227.048 277.6 226.767C277.157 226.486 276.811 226.092 276.561 225.586C276.313 225.081 276.19 224.49 276.19 223.814C276.19 223.132 276.313 222.537 276.561 222.028C276.811 221.52 277.157 221.125 277.6 220.844C278.046 220.562 278.565 220.422 279.156 220.422C279.747 220.422 280.264 220.562 280.707 220.844C281.153 221.125 281.499 221.52 281.747 222.028C281.997 222.537 282.122 223.132 282.122 223.814C282.122 224.49 281.997 225.081 281.747 225.586C281.499 226.092 281.153 226.486 280.707 226.767C280.264 227.048 279.747 227.189 279.156 227.189ZM279.156 226.285C279.605 226.285 279.974 226.17 280.264 225.94C280.553 225.71 280.768 225.407 280.907 225.032C281.046 224.657 281.116 224.251 281.116 223.814C281.116 223.376 281.046 222.969 280.907 222.591C280.768 222.213 280.553 221.907 280.264 221.674C279.974 221.442 279.605 221.325 279.156 221.325C278.707 221.325 278.338 221.442 278.048 221.674C277.758 221.907 277.544 222.213 277.404 222.591C277.265 222.969 277.195 223.376 277.195 223.814C277.195 224.251 277.265 224.657 277.404 225.032C277.544 225.407 277.758 225.71 278.048 225.94C278.338 226.17 278.707 226.285 279.156 226.285ZM283.657 227.052V220.507H284.628V221.495H284.697C284.816 221.172 285.032 220.909 285.344 220.707C285.657 220.505 286.009 220.405 286.401 220.405C286.475 220.405 286.567 220.406 286.678 220.409C286.789 220.412 286.873 220.416 286.93 220.422V221.444C286.895 221.436 286.817 221.423 286.695 221.406C286.576 221.386 286.449 221.376 286.316 221.376C285.998 221.376 285.714 221.443 285.464 221.576C285.216 221.707 285.02 221.889 284.876 222.122C284.733 222.352 284.662 222.615 284.662 222.91V227.052H283.657ZM288.122 227.052V220.507H289.093V221.53H289.178C289.315 221.18 289.535 220.909 289.839 220.716C290.143 220.52 290.508 220.422 290.934 220.422C291.366 220.422 291.725 220.52 292.012 220.716C292.302 220.909 292.528 221.18 292.69 221.53H292.758C292.926 221.192 293.177 220.923 293.512 220.724C293.847 220.522 294.249 220.422 294.718 220.422C295.303 220.422 295.782 220.605 296.154 220.971C296.526 221.335 296.713 221.902 296.713 222.672V227.052H295.707V222.672C295.707 222.189 295.575 221.844 295.311 221.636C295.046 221.429 294.735 221.325 294.377 221.325C293.917 221.325 293.561 221.464 293.308 221.743C293.055 222.018 292.928 222.368 292.928 222.791V227.052H291.906V222.569C291.906 222.197 291.785 221.897 291.544 221.67C291.302 221.44 290.991 221.325 290.61 221.325C290.349 221.325 290.105 221.395 289.877 221.534C289.653 221.673 289.471 221.866 289.332 222.113C289.195 222.358 289.127 222.64 289.127 222.961V227.052H288.122Z" fill="black"/>
<path d="M216 137.5H317C322.247 137.5 326.5 141.753 326.5 147V159.859C326.5 165.106 322.247 169.359 317 169.359H216C210.753 169.359 206.5 165.106 206.5 159.859V147C206.5 141.753 210.753 137.5 216 137.5Z" fill="white" stroke="black"/>
<path d="M255.035 149.273H256.297L259.263 156.517H259.365L262.331 149.273H263.592V158H262.604V151.369H262.518L259.791 158H258.836L256.109 151.369H256.024V158H255.035V149.273ZM265.711 158V149.273H266.768V157.062H270.825V158H265.711ZM272.461 158V149.273H275.41C276.095 149.273 276.654 149.396 277.089 149.643C277.526 149.888 277.85 150.219 278.061 150.636C278.271 151.054 278.376 151.52 278.376 152.034C278.376 152.548 278.271 153.016 278.061 153.436C277.853 153.857 277.532 154.192 277.097 154.442C276.663 154.689 276.106 154.812 275.427 154.812H273.313V153.875H275.393C275.862 153.875 276.238 153.794 276.522 153.632C276.806 153.47 277.012 153.251 277.14 152.976C277.271 152.697 277.336 152.384 277.336 152.034C277.336 151.685 277.271 151.372 277.14 151.097C277.012 150.821 276.805 150.605 276.518 150.449C276.231 150.29 275.85 150.21 275.376 150.21H273.518V158H272.461Z" fill="black"/>
<path d="M266 234L261.67 241.5H270.33L266 234ZM266 277H266.75V240.75H266H265.25V277H266Z" fill="black"/>
<path d="M266 111L261.67 118.5H270.33L266 111ZM266 137H266.75V117.75H266H265.25V137H266Z" fill="black"/>
<path d="M273 104L280.5 108.33V99.6699L273 104ZM348 248L348.75 248V114H348H347.25V248H348ZM338 104V103.25H279.75V104V104.75H338V104ZM266 258V258.75H307V258V257.25H266V258ZM307 258V258.75H338V258V257.25H307V258ZM348 114H348.75C348.75 108.063 343.937 103.25 338 103.25V104V104.75C343.109 104.75 347.25 108.891 347.25 114H348ZM348 248H347.25C347.25 253.109 343.109 257.25 338 257.25V258V258.75C343.937 258.75 348.75 253.937 348.75 248L348 248Z" fill="black"/>
<path d="M266 170L261.67 177.5H270.33L266 170ZM266 209H266.75V176.75H266H265.25V209H266Z" fill="black"/>
<path d="M296 170L291.67 177.5H300.33L296 170ZM236 170L231.67 177.5H240.33L236 170ZM265.748 186V186.75H286V186V185.25H265.748V186ZM265.748 186V185.25H246V186V186.75H265.748V186ZM246 186V185.25C240.891 185.25 236.75 181.109 236.75 176H236H235.25C235.25 181.937 240.063 186.75 246 186.75V186ZM286 186V186.75C291.937 186.75 296.75 181.937 296.75 176H296H295.25C295.25 181.109 291.109 185.25 286 185.25V186Z" fill="black"/>
<circle cx="266" cy="104" r="6.75" fill="#D9D9D9" stroke="black" stroke-width="0.5"/>
<path d="M265.522 107.403V101.778H266.477V107.403H265.522ZM263.187 105.068V104.114H268.812V105.068H263.187Z" fill="black"/>
<circle cx="266" cy="199" r="6.75" fill="#D9D9D9" stroke="black" stroke-width="0.5"/>
<path d="M265.522 202.403V196.778H266.477V202.403H265.522ZM263.187 200.068V199.114H268.812V200.068H263.187Z" fill="black"/>
<path d="M343.359 82.6733L339.757 79.0888C339.54 78.8727 339.504 78.8367 339.36 78.8367C339.18 78.8367 339 78.9988 339 79.1969C339 79.323 339.036 79.359 339.234 79.5572L342.837 83.1777L339.234 86.7982C339.036 86.9963 339 87.0323 339 87.1584C339 87.3565 339.18 87.5187 339.36 87.5187C339.504 87.5187 339.54 87.4826 339.757 87.2665L343.341 83.682L347.07 87.4106C347.106 87.4286 347.232 87.5187 347.34 87.5187C347.556 87.5187 347.7 87.3565 347.7 87.1584C347.7 87.1224 347.7 87.0503 347.646 86.9603C347.628 86.9242 344.764 84.0963 343.863 83.1777L347.16 79.8814C347.25 79.7733 347.52 79.5391 347.61 79.4311C347.628 79.395 347.7 79.323 347.7 79.1969C347.7 78.9988 347.556 78.8367 347.34 78.8367C347.196 78.8367 347.124 78.9087 346.925 79.1068L343.359 82.6733Z" fill="black"/>
<path d="M352.019 84.6186C350.884 85.7354 350.596 86.0056 350.596 86.0777C350.596 86.1497 350.668 86.2758 350.794 86.2758C350.884 86.2758 351.911 85.2851 352.055 85.123C352.163 86.3298 352.614 87.8969 354.019 87.8969C354.739 87.8969 355.388 87.4466 355.676 87.2305C355.91 87.0503 356.774 86.3118 356.774 86.1497C356.774 86.0596 356.684 85.9516 356.594 85.9516C356.522 85.9516 356.252 86.2218 356.18 86.2938C355.55 86.9062 354.757 87.5367 354.037 87.5367C353.064 87.5367 352.938 86.1317 352.938 85.159C352.938 84.9789 352.938 84.2224 353.064 84.0783C354.127 82.9795 357.459 79.5391 357.459 76.3509C357.459 75.6304 357.189 75 356.414 75C354.739 75 353.28 78.7106 353.028 79.395C352.956 79.5752 351.911 82.3491 352.019 84.6186ZM353.1 83.5019C353.118 83.3938 353.928 78.6745 355.442 76.1528C355.748 75.6665 356.054 75.3602 356.414 75.3602C357.027 75.3602 357.063 75.9366 357.063 76.3329C357.063 76.9634 356.883 78.5845 355.315 80.854C354.847 81.5205 354.127 82.4211 353.1 83.5019Z" fill="black"/>
<path d="M259 199L251.5 194.67V203.33L259 199ZM145 199V199.75H241.873V199V198.25H145V199ZM241.873 199V199.75H252.25V199V198.25H241.873V199Z" fill="#676767"/>
<path d="M80.3089 207.068V195.818H82.5461V197.192H82.6473C82.7467 196.972 82.8905 196.749 83.0787 196.521C83.2705 196.29 83.5191 196.099 83.8245 195.946C84.1334 195.79 84.517 195.712 84.9751 195.712C85.5716 195.712 86.1221 195.868 86.6263 196.18C87.1306 196.489 87.5336 196.956 87.8355 197.581C88.1373 198.203 88.2883 198.982 88.2883 199.92C88.2883 200.832 88.1409 201.603 87.8461 202.232C87.555 202.857 87.1572 203.331 86.653 203.654C86.1523 203.973 85.5912 204.133 84.9697 204.133C84.5294 204.133 84.1547 204.06 83.8458 203.915C83.5404 203.769 83.29 203.586 83.0947 203.366C82.8994 203.142 82.7503 202.917 82.6473 202.69H82.578V207.068H80.3089ZM82.5301 199.909C82.5301 200.396 82.5976 200.82 82.7325 201.182C82.8675 201.544 83.0628 201.827 83.3184 202.029C83.5741 202.228 83.8849 202.327 84.2506 202.327C84.6199 202.327 84.9324 202.226 85.1881 202.024C85.4438 201.818 85.6373 201.534 85.7687 201.172C85.9037 200.806 85.9711 200.385 85.9711 199.909C85.9711 199.437 85.9055 199.021 85.7741 198.663C85.6427 198.304 85.4491 198.023 85.1934 197.821C84.9378 197.619 84.6235 197.517 84.2506 197.517C83.8813 197.517 83.5688 197.615 83.3131 197.81C83.061 198.006 82.8675 198.283 82.7325 198.641C82.5976 199 82.5301 199.423 82.5301 199.909ZM89.801 204V195.818H92.001V197.246H92.0862C92.2354 196.738 92.4857 196.354 92.8373 196.095C93.1888 195.832 93.5937 195.701 94.0518 195.701C94.1654 195.701 94.2879 195.708 94.4193 195.722C94.5507 195.737 94.6661 195.756 94.7655 195.781V197.794C94.659 197.762 94.5116 197.734 94.3234 197.709C94.1352 197.684 93.963 197.672 93.8067 197.672C93.4729 197.672 93.1746 197.745 92.9118 197.89C92.6526 198.032 92.4466 198.231 92.2939 198.487C92.1448 198.743 92.0702 199.037 92.0702 199.371V204H89.801ZM99.2866 204.16C98.445 204.16 97.7205 203.989 97.1133 203.648C96.5096 203.304 96.0444 202.817 95.7177 202.189C95.391 201.557 95.2276 200.809 95.2276 199.946C95.2276 199.105 95.391 198.366 95.7177 197.73C96.0444 197.095 96.5043 196.599 97.0973 196.244C97.6939 195.889 98.3935 195.712 99.196 195.712C99.7358 195.712 100.238 195.799 100.703 195.973C101.172 196.143 101.581 196.401 101.929 196.745C102.28 197.089 102.554 197.523 102.749 198.045C102.944 198.563 103.042 199.17 103.042 199.866V200.49H96.1332V199.083H100.906C100.906 198.757 100.835 198.467 100.693 198.215C100.551 197.963 100.354 197.766 100.102 197.624C99.853 197.478 99.5636 197.406 99.2333 197.406C98.8888 197.406 98.5835 197.485 98.3171 197.645C98.0543 197.801 97.8484 198.013 97.6992 198.279C97.5501 198.542 97.4737 198.835 97.4702 199.158V200.495C97.4702 200.9 97.5447 201.25 97.6939 201.544C97.8466 201.839 98.0614 202.066 98.3384 202.226C98.6154 202.386 98.9439 202.466 99.3239 202.466C99.576 202.466 99.8068 202.43 100.016 202.359C100.226 202.288 100.405 202.182 100.554 202.04C100.703 201.898 100.817 201.724 100.895 201.518L102.994 201.656C102.887 202.161 102.669 202.601 102.339 202.977C102.012 203.35 101.589 203.641 101.071 203.851C100.556 204.057 99.9613 204.16 99.2866 204.16ZM109.62 198.62V200.42H104.645V198.62H109.62ZM111.597 193.091H114.441L117.445 200.42H117.573L120.577 193.091H123.422V204H121.185V196.9H121.094L118.271 203.947H116.748L113.924 196.873H113.834V204H111.597V193.091ZM125.322 204V193.091H127.629V202.098H132.305V204H125.322ZM133.833 204V193.091H138.137C138.964 193.091 139.669 193.249 140.252 193.565C140.834 193.877 141.278 194.312 141.583 194.87C141.892 195.424 142.047 196.063 142.047 196.788C142.047 197.512 141.89 198.151 141.578 198.705C141.265 199.259 140.813 199.691 140.22 200C139.63 200.309 138.916 200.463 138.078 200.463H135.335V198.615H137.705C138.149 198.615 138.515 198.538 138.803 198.386C139.094 198.229 139.311 198.015 139.453 197.741C139.598 197.464 139.671 197.146 139.671 196.788C139.671 196.425 139.598 196.109 139.453 195.839C139.311 195.566 139.094 195.355 138.803 195.206C138.512 195.053 138.142 194.977 137.695 194.977H136.139V204H133.833Z" fill="#676767"/>
<circle cx="266" cy="128" r="6.75" fill="#D9D9D9" stroke="black" stroke-width="0.5"/>
<path d="M265.522 131.403V125.778H266.477V131.403H265.522ZM263.187 129.068V128.114H268.812V129.068H263.187Z" fill="black"/>
<path d="M259 128L251.5 123.67V132.33L259 128ZM145 128V128.75H241.873V128V127.25H145V128ZM241.873 128V128.75H252.25V128V127.25H241.873V128Z" fill="#676767"/>
<path d="M71.0681 136.068V124.818H73.3054V126.192H73.4066C73.506 125.972 73.6498 125.749 73.838 125.521C74.0298 125.29 74.2784 125.099 74.5838 124.946C74.8927 124.79 75.2762 124.712 75.7343 124.712C76.3309 124.712 76.8813 124.868 77.3856 125.18C77.8899 125.489 78.2929 125.956 78.5948 126.581C78.8966 127.203 79.0475 127.982 79.0475 128.92C79.0475 129.832 78.9002 130.603 78.6054 131.232C78.3142 131.857 77.9165 132.331 77.4122 132.654C76.9115 132.973 76.3505 133.133 75.729 133.133C75.2887 133.133 74.914 133.06 74.6051 132.915C74.2997 132.769 74.0493 132.586 73.854 132.366C73.6587 132.142 73.5095 131.917 73.4066 131.69H73.3373V136.068H71.0681ZM73.2894 128.909C73.2894 129.396 73.3568 129.82 73.4918 130.182C73.6267 130.544 73.822 130.827 74.0777 131.029C74.3334 131.228 74.6441 131.327 75.0099 131.327C75.3792 131.327 75.6917 131.226 75.9474 131.024C76.2031 130.818 76.3966 130.534 76.528 130.172C76.663 129.806 76.7304 129.385 76.7304 128.909C76.7304 128.437 76.6647 128.021 76.5333 127.663C76.4019 127.304 76.2084 127.023 75.9527 126.821C75.697 126.619 75.3828 126.517 75.0099 126.517C74.6406 126.517 74.3281 126.615 74.0724 126.81C73.8203 127.006 73.6267 127.283 73.4918 127.641C73.3568 128 73.2894 128.423 73.2894 128.909ZM84.2571 133.16C83.4296 133.16 82.7141 132.984 82.1104 132.632C81.5103 132.277 81.0468 131.784 80.7201 131.152C80.3934 130.516 80.2301 129.779 80.2301 128.941C80.2301 128.096 80.3934 127.357 80.7201 126.725C81.0468 126.089 81.5103 125.596 82.1104 125.244C82.7141 124.889 83.4296 124.712 84.2571 124.712C85.0845 124.712 85.7983 124.889 86.3984 125.244C87.0021 125.596 87.4673 126.089 87.794 126.725C88.1207 127.357 88.284 128.096 88.284 128.941C88.284 129.779 88.1207 130.516 87.794 131.152C87.4673 131.784 87.0021 132.277 86.3984 132.632C85.7983 132.984 85.0845 133.16 84.2571 133.16ZM84.2677 131.402C84.6441 131.402 84.9584 131.295 85.2105 131.082C85.4627 130.866 85.6527 130.571 85.7805 130.198C85.9119 129.825 85.9776 129.401 85.9776 128.925C85.9776 128.449 85.9119 128.025 85.7805 127.652C85.6527 127.279 85.4627 126.984 85.2105 126.768C84.9584 126.551 84.6441 126.443 84.2677 126.443C83.8877 126.443 83.5681 126.551 83.3089 126.768C83.0532 126.984 82.8597 127.279 82.7283 127.652C82.6005 128.025 82.5365 128.449 82.5365 128.925C82.5365 129.401 82.6005 129.825 82.7283 130.198C82.8597 130.571 83.0532 130.866 83.3089 131.082C83.5681 131.295 83.8877 131.402 84.2677 131.402ZM96.5671 127.151L94.4897 127.279C94.4541 127.102 94.3778 126.942 94.2606 126.8C94.1434 126.654 93.9889 126.539 93.7972 126.453C93.609 126.365 93.3835 126.32 93.1207 126.32C92.7691 126.32 92.4726 126.395 92.2311 126.544C91.9897 126.69 91.8689 126.885 91.8689 127.13C91.8689 127.325 91.947 127.49 92.1033 127.625C92.2595 127.76 92.5277 127.869 92.9076 127.95L94.3885 128.249C95.1839 128.412 95.7769 128.675 96.1676 129.037C96.5582 129.399 96.7535 129.875 96.7535 130.464C96.7535 131.001 96.5955 131.471 96.2794 131.876C95.9669 132.281 95.5372 132.597 94.9904 132.824C94.447 133.048 93.8203 133.16 93.11 133.16C92.0269 133.16 91.164 132.934 90.5213 132.483C89.8821 132.029 89.5074 131.411 89.3973 130.63L91.6292 130.512C91.6967 130.843 91.86 131.095 92.1193 131.269C92.3785 131.439 92.7105 131.525 93.1154 131.525C93.5131 131.525 93.8327 131.448 94.0742 131.295C94.3192 131.139 94.4435 130.939 94.447 130.694C94.4435 130.488 94.3565 130.319 94.186 130.188C94.0156 130.053 93.7528 129.95 93.3977 129.879L91.9808 129.596C91.1818 129.436 90.587 129.159 90.1963 128.765C89.8093 128.371 89.6157 127.869 89.6157 127.258C89.6157 126.732 89.7578 126.279 90.0419 125.9C90.3295 125.52 90.7326 125.227 91.251 125.021C91.773 124.815 92.3838 124.712 93.0834 124.712C94.1168 124.712 94.93 124.93 95.523 125.367C96.1196 125.804 96.4676 126.398 96.5671 127.151ZM102.534 124.818V126.523H97.6071V124.818H102.534ZM98.7257 122.858H100.995V130.486C100.995 130.695 101.027 130.859 101.091 130.976C101.155 131.089 101.243 131.169 101.357 131.216C101.474 131.262 101.609 131.285 101.762 131.285C101.868 131.285 101.975 131.276 102.082 131.258C102.188 131.237 102.27 131.221 102.327 131.21L102.683 132.899C102.57 132.934 102.41 132.975 102.204 133.021C101.998 133.071 101.748 133.101 101.453 133.112C100.906 133.133 100.427 133.06 100.015 132.893C99.6064 132.727 99.2886 132.467 99.0613 132.116C98.834 131.764 98.7222 131.32 98.7257 130.784V122.858ZM108.861 127.62V129.42H103.886V127.62H108.861ZM110.837 122.091H113.682L116.686 129.42H116.814L119.818 122.091H122.663V133H120.425V125.9H120.335L117.512 132.947H115.988L113.165 125.873H113.075V133H110.837V122.091ZM124.563 133V122.091H126.869V131.098H131.546V133H124.563ZM133.074 133V122.091H137.378C138.205 122.091 138.91 122.249 139.492 122.565C140.075 122.877 140.519 123.312 140.824 123.87C141.133 124.424 141.287 125.063 141.287 125.788C141.287 126.512 141.131 127.151 140.819 127.705C140.506 128.259 140.053 128.691 139.46 129C138.871 129.309 138.157 129.463 137.319 129.463H134.576V127.615H136.946C137.39 127.615 137.756 127.538 138.043 127.386C138.335 127.229 138.551 127.015 138.693 126.741C138.839 126.464 138.912 126.146 138.912 125.788C138.912 125.425 138.839 125.109 138.693 124.839C138.551 124.566 138.335 124.355 138.043 124.206C137.752 124.053 137.383 123.977 136.936 123.977H135.38V133H133.074Z" fill="#676767"/>
<circle cx="266" cy="88" r="6.75" fill="#D9D9D9" stroke="black" stroke-width="0.5"/>
<path d="M265.522 91.4034V85.7784H266.477V91.4034H265.522ZM263.187 89.0682V88.1136H268.812V89.0682H263.187Z" fill="black"/>
<path d="M259 88L251.5 83.6699V92.3301L259 88ZM145 88V88.75H241.873V88V87.25H145V88ZM241.873 88V88.75H252.25V88V87.25H241.873V88Z" fill="#676767"/>
<path d="M64.364 96.0682V84.8182H66.6013V86.1925H66.7025C66.8019 85.9723 66.9457 85.7486 67.1339 85.5213C67.3257 85.2905 67.5743 85.0987 67.8797 84.946C68.1886 84.7898 68.5721 84.7116 69.0302 84.7116C69.6268 84.7116 70.1772 84.8679 70.6815 85.1804C71.1858 85.4893 71.5888 85.9563 71.8907 86.5813C72.1925 87.2028 72.3434 87.9822 72.3434 88.9197C72.3434 89.8324 72.1961 90.603 71.9013 91.2315C71.6101 91.8565 71.2124 92.3306 70.7081 92.6538C70.2074 92.9734 69.6464 93.1332 69.0249 93.1332C68.5846 93.1332 68.2099 93.0604 67.901 92.9148C67.5956 92.7692 67.3452 92.5863 67.1499 92.3661C66.9546 92.1424 66.8054 91.9169 66.7025 91.6896H66.6332V96.0682H64.364ZM66.5853 88.9091C66.5853 89.3956 66.6527 89.82 66.7877 90.1822C66.9226 90.5444 67.1179 90.8267 67.3736 91.0291C67.6293 91.228 67.94 91.3274 68.3058 91.3274C68.6751 91.3274 68.9876 91.2262 69.2433 91.0238C69.499 90.8178 69.6925 90.5337 69.8239 90.1715C69.9589 89.8058 70.0263 89.3849 70.0263 88.9091C70.0263 88.4368 69.9606 88.0213 69.8292 87.6626C69.6978 87.304 69.5043 87.0234 69.2486 86.821C68.9929 86.6186 68.6787 86.5174 68.3058 86.5174C67.9365 86.5174 67.624 86.6151 67.3683 86.8104C67.1162 87.0057 66.9226 87.2827 66.7877 87.6413C66.6527 88 66.5853 88.4226 66.5853 88.9091ZM77.553 93.1598C76.7255 93.1598 76.01 92.984 75.4063 92.6325C74.8062 92.2773 74.3427 91.7837 74.016 91.1516C73.6893 90.516 73.526 89.7791 73.526 88.9411C73.526 88.0959 73.6893 87.3572 74.016 86.7251C74.3427 86.0895 74.8062 85.5959 75.4063 85.2443C76.01 84.8892 76.7255 84.7116 77.553 84.7116C78.3804 84.7116 79.0941 84.8892 79.6943 85.2443C80.298 85.5959 80.7632 86.0895 81.0899 86.7251C81.4166 87.3572 81.5799 88.0959 81.5799 88.9411C81.5799 89.7791 81.4166 90.516 81.0899 91.1516C80.7632 91.7837 80.298 92.2773 79.6943 92.6325C79.0941 92.984 78.3804 93.1598 77.553 93.1598ZM77.5636 91.402C77.94 91.402 78.2543 91.2955 78.5064 91.0824C78.7586 90.8658 78.9486 90.571 79.0764 90.1982C79.2078 89.8253 79.2735 89.4009 79.2735 88.9251C79.2735 88.4492 79.2078 88.0249 79.0764 87.652C78.9486 87.2791 78.7586 86.9844 78.5064 86.7678C78.2543 86.5511 77.94 86.4428 77.5636 86.4428C77.1836 86.4428 76.864 86.5511 76.6048 86.7678C76.3491 86.9844 76.1556 87.2791 76.0242 87.652C75.8964 88.0249 75.8324 88.4492 75.8324 88.9251C75.8324 89.4009 75.8964 89.8253 76.0242 90.1982C76.1556 90.571 76.3491 90.8658 76.6048 91.0824C76.864 91.2955 77.1836 91.402 77.5636 91.402ZM89.863 87.1513L87.7856 87.2791C87.75 87.1016 87.6737 86.9418 87.5565 86.7997C87.4393 86.6541 87.2848 86.5387 87.0931 86.4535C86.9049 86.3647 86.6794 86.3203 86.4166 86.3203C86.065 86.3203 85.7685 86.3949 85.527 86.544C85.2856 86.6896 85.1648 86.8849 85.1648 87.13C85.1648 87.3253 85.2429 87.4904 85.3992 87.6254C85.5554 87.7603 85.8236 87.8686 86.2035 87.9503L87.6843 88.2486C88.4798 88.4119 89.0728 88.6747 89.4635 89.0369C89.8541 89.3991 90.0494 89.875 90.0494 90.4645C90.0494 91.0007 89.8914 91.4712 89.5753 91.8761C89.2628 92.2809 88.8331 92.5969 88.2863 92.8242C87.7429 93.0479 87.1162 93.1598 86.4059 93.1598C85.3228 93.1598 84.4599 92.9343 83.8172 92.4833C83.178 92.0288 82.8033 91.4109 82.6932 90.6296L84.9251 90.5124C84.9926 90.8427 85.1559 91.0948 85.4152 91.2688C85.6744 91.4393 86.0064 91.5245 86.4113 91.5245C86.809 91.5245 87.1286 91.4482 87.3701 91.2955C87.6151 91.1392 87.7394 90.9386 87.7429 90.6935C87.7394 90.4876 87.6524 90.3189 87.4819 90.1875C87.3115 90.0526 87.0487 89.9496 86.6936 89.8786L85.2767 89.5962C84.4777 89.4364 83.8829 89.1594 83.4922 88.7653C83.1052 88.3711 82.9116 87.8686 82.9116 87.2578C82.9116 86.7322 83.0537 86.2795 83.3378 85.8995C83.6254 85.5195 84.0285 85.2266 84.5469 85.0206C85.0689 84.8146 85.6797 84.7116 86.3793 84.7116C87.4127 84.7116 88.2259 84.93 88.8189 85.3668C89.4155 85.8036 89.7635 86.3984 89.863 87.1513ZM95.8302 84.8182V86.5227H90.903V84.8182H95.8302ZM92.0216 82.858H94.2908V90.4858C94.2908 90.6953 94.3228 90.8587 94.3867 90.9759C94.4506 91.0895 94.5394 91.1694 94.653 91.2156C94.7702 91.2617 94.9051 91.2848 95.0578 91.2848C95.1644 91.2848 95.2709 91.2759 95.3774 91.2582C95.484 91.2369 95.5657 91.2209 95.6225 91.2102L95.9794 92.8988C95.8657 92.9343 95.7059 92.9751 95.5 93.0213C95.294 93.071 95.0436 93.1012 94.7489 93.1119C94.202 93.1332 93.7226 93.0604 93.3107 92.8935C92.9023 92.7266 92.5845 92.4673 92.3572 92.1158C92.1299 91.7642 92.0181 91.3203 92.0216 90.7841V82.858ZM102.157 87.62V89.4205H97.1819V87.62H102.157ZM104.133 93V82.0909H106.402V86.1925H106.472C106.571 85.9723 106.715 85.7486 106.903 85.5213C107.095 85.2905 107.343 85.0987 107.649 84.946C107.958 84.7898 108.341 84.7116 108.799 84.7116C109.396 84.7116 109.946 84.8679 110.451 85.1804C110.955 85.4893 111.358 85.9563 111.66 86.5813C111.962 87.2028 112.113 87.9822 112.113 88.9197C112.113 89.8324 111.965 90.603 111.67 91.2315C111.379 91.8565 110.982 92.3306 110.477 92.6538C109.977 92.9734 109.416 93.1332 108.794 93.1332C108.354 93.1332 107.979 93.0604 107.67 92.9148C107.365 92.7692 107.114 92.5863 106.919 92.3661C106.724 92.1424 106.575 91.9169 106.472 91.6896H106.37V93H104.133ZM106.354 88.9091C106.354 89.3956 106.422 89.82 106.557 90.1822C106.692 90.5444 106.887 90.8267 107.143 91.0291C107.398 91.228 107.709 91.3274 108.075 91.3274C108.444 91.3274 108.757 91.2262 109.012 91.0238C109.268 90.8178 109.462 90.5337 109.593 90.1715C109.728 89.8058 109.795 89.3849 109.795 88.9091C109.795 88.4368 109.73 88.0213 109.598 87.6626C109.467 87.304 109.273 87.0234 109.018 86.821C108.762 86.6186 108.448 86.5174 108.075 86.5174C107.706 86.5174 107.393 86.6151 107.137 86.8104C106.885 87.0057 106.692 87.2827 106.557 87.6413C106.422 88 106.354 88.4226 106.354 88.9091ZM115.896 82.0909V93H113.627V82.0909H115.896ZM121.41 93.1598C120.583 93.1598 119.867 92.984 119.264 92.6325C118.664 92.2773 118.2 91.7837 117.873 91.1516C117.547 90.516 117.383 89.7791 117.383 88.9411C117.383 88.0959 117.547 87.3572 117.873 86.7251C118.2 86.0895 118.664 85.5959 119.264 85.2443C119.867 84.8892 120.583 84.7116 121.41 84.7116C122.238 84.7116 122.952 84.8892 123.552 85.2443C124.155 85.5959 124.621 86.0895 124.947 86.7251C125.274 87.3572 125.437 88.0959 125.437 88.9411C125.437 89.7791 125.274 90.516 124.947 91.1516C124.621 91.7837 124.155 92.2773 123.552 92.6325C122.952 92.984 122.238 93.1598 121.41 93.1598ZM121.421 91.402C121.797 91.402 122.112 91.2955 122.364 91.0824C122.616 90.8658 122.806 90.571 122.934 90.1982C123.065 89.8253 123.131 89.4009 123.131 88.9251C123.131 88.4492 123.065 88.0249 122.934 87.652C122.806 87.2791 122.616 86.9844 122.364 86.7678C122.112 86.5511 121.797 86.4428 121.421 86.4428C121.041 86.4428 120.721 86.5511 120.462 86.7678C120.207 86.9844 120.013 87.2791 119.882 87.652C119.754 88.0249 119.69 88.4492 119.69 88.9251C119.69 89.4009 119.754 89.8253 119.882 90.1982C120.013 90.571 120.207 90.8658 120.462 91.0824C120.721 91.2955 121.041 91.402 121.421 91.402ZM130.61 93.1598C129.772 93.1598 129.051 92.9822 128.447 92.6271C127.847 92.2685 127.385 91.7713 127.062 91.1357C126.742 90.5 126.583 89.7685 126.583 88.9411C126.583 88.103 126.744 87.3679 127.067 86.7358C127.394 86.1001 127.857 85.6048 128.458 85.2496C129.058 84.891 129.772 84.7116 130.599 84.7116C131.313 84.7116 131.938 84.8413 132.474 85.1005C133.01 85.3597 133.435 85.7237 133.747 86.1925C134.06 86.6612 134.232 87.2116 134.264 87.8438H132.122C132.062 87.4354 131.902 87.1069 131.643 86.8583C131.387 86.6062 131.052 86.4801 130.636 86.4801C130.285 86.4801 129.977 86.576 129.715 86.7678C129.455 86.956 129.253 87.2312 129.107 87.5934C128.962 87.9556 128.889 88.3942 128.889 88.9091C128.889 89.4311 128.96 89.875 129.102 90.2408C129.248 90.6065 129.452 90.8853 129.715 91.0771C129.977 91.2688 130.285 91.3647 130.636 91.3647C130.895 91.3647 131.128 91.3114 131.334 91.2049C131.544 91.0984 131.716 90.9439 131.851 90.7415C131.989 90.5355 132.08 90.2887 132.122 90.0011H134.264C134.228 90.6261 134.058 91.1765 133.752 91.6523C133.451 92.1246 133.033 92.494 132.501 92.7603C131.968 93.0266 131.338 93.1598 130.61 93.1598ZM137.773 90.6456L137.778 87.9237H138.108L140.729 84.8182H143.334L139.813 88.9304H139.275L137.773 90.6456ZM135.717 93V82.0909H137.986V93H135.717ZM140.83 93L138.423 89.4364L139.935 87.8331L143.488 93H140.83Z" fill="#676767"/>
</svg>
