<svg width="532" height="527" viewBox="0 0 532 527" fill="none" xmlns="http://www.w3.org/2000/svg">
<rect width="532" height="527" fill="white"/>
<rect x="167" y="71" width="198" height="385" rx="9" fill="white" stroke="black" stroke-width="2"/>
<path d="M216 389.5H317C322.247 389.5 326.5 393.753 326.5 399V403.859C326.5 409.106 322.247 413.359 317 413.359H216C210.753 413.359 206.5 409.106 206.5 403.859V399C206.5 393.753 210.753 389.5 216 389.5Z" fill="white" stroke="black"/>
<path d="M236.426 407.052V398.325H237.483V406.115H241.54V407.052H236.426ZM244.966 407.206C244.551 407.206 244.175 407.128 243.836 406.971C243.498 406.812 243.23 406.584 243.031 406.285C242.832 405.984 242.733 405.62 242.733 405.194C242.733 404.819 242.807 404.515 242.954 404.282C243.102 404.047 243.3 403.862 243.547 403.728C243.794 403.595 244.067 403.495 244.365 403.43C244.666 403.362 244.969 403.308 245.273 403.268C245.67 403.217 245.993 403.179 246.24 403.153C246.49 403.125 246.672 403.078 246.785 403.013C246.902 402.947 246.96 402.834 246.96 402.672V402.638C246.96 402.217 246.845 401.89 246.615 401.657C246.388 401.424 246.042 401.308 245.579 401.308C245.099 401.308 244.723 401.413 244.45 401.623C244.177 401.834 243.986 402.058 243.875 402.297L242.92 401.956C243.091 401.558 243.318 401.248 243.602 401.027C243.889 400.802 244.202 400.646 244.54 400.558C244.881 400.467 245.216 400.422 245.545 400.422C245.756 400.422 245.997 400.447 246.27 400.498C246.545 400.547 246.811 400.647 247.067 400.801C247.325 400.954 247.54 401.186 247.71 401.495C247.881 401.805 247.966 402.22 247.966 402.74V407.052H246.96V406.166H246.909C246.841 406.308 246.727 406.46 246.568 406.622C246.409 406.784 246.197 406.922 245.933 407.035C245.669 407.149 245.346 407.206 244.966 407.206ZM245.119 406.302C245.517 406.302 245.852 406.224 246.125 406.068C246.4 405.912 246.608 405.71 246.747 405.463C246.889 405.216 246.96 404.956 246.96 404.683V403.763C246.917 403.814 246.824 403.861 246.679 403.903C246.537 403.943 246.372 403.978 246.184 404.01C246 404.038 245.819 404.064 245.643 404.086C245.47 404.106 245.329 404.123 245.221 404.138C244.96 404.172 244.716 404.227 244.488 404.304C244.264 404.378 244.082 404.49 243.943 404.64C243.807 404.788 243.738 404.99 243.738 405.245C243.738 405.595 243.868 405.859 244.126 406.038C244.388 406.214 244.719 406.302 245.119 406.302ZM250.215 409.507C250.044 409.507 249.892 409.493 249.759 409.464C249.625 409.439 249.533 409.413 249.482 409.388L249.737 408.501C249.982 408.564 250.198 408.586 250.385 408.569C250.573 408.552 250.739 408.469 250.884 408.318C251.031 408.17 251.166 407.93 251.289 407.598L251.476 407.086L249.056 400.507H250.146L251.953 405.723H252.021L253.828 400.507H254.919L252.141 408.007C252.016 408.345 251.861 408.625 251.676 408.846C251.492 409.071 251.277 409.237 251.033 409.345C250.791 409.453 250.519 409.507 250.215 409.507ZM258.757 407.189C258.126 407.189 257.582 407.049 257.124 406.771C256.67 406.49 256.319 406.098 256.072 405.595C255.828 405.089 255.705 404.501 255.705 403.831C255.705 403.16 255.828 402.569 256.072 402.058C256.319 401.544 256.663 401.143 257.103 400.856C257.546 400.567 258.063 400.422 258.654 400.422C258.995 400.422 259.332 400.478 259.664 400.592C259.997 400.706 260.299 400.89 260.572 401.146C260.845 401.399 261.062 401.734 261.224 402.152C261.386 402.569 261.467 403.084 261.467 403.694V404.12H256.421V403.251H260.444C260.444 402.882 260.37 402.552 260.222 402.263C260.078 401.973 259.87 401.744 259.6 401.576C259.333 401.409 259.018 401.325 258.654 401.325C258.254 401.325 257.907 401.424 257.615 401.623C257.325 401.819 257.102 402.075 256.945 402.39C256.789 402.706 256.711 403.044 256.711 403.405V403.984C256.711 404.478 256.796 404.897 256.967 405.241C257.14 405.582 257.38 405.842 257.687 406.021C257.994 406.197 258.35 406.285 258.757 406.285C259.021 406.285 259.259 406.248 259.472 406.174C259.688 406.098 259.874 405.984 260.031 405.834C260.187 405.68 260.308 405.49 260.393 405.263L261.365 405.535C261.262 405.865 261.09 406.155 260.849 406.405C260.607 406.652 260.309 406.845 259.954 406.984C259.599 407.12 259.2 407.189 258.757 407.189ZM262.997 407.052V400.507H263.968V401.495H264.036C264.156 401.172 264.372 400.909 264.684 400.707C264.997 400.505 265.349 400.405 265.741 400.405C265.815 400.405 265.907 400.406 266.018 400.409C266.129 400.412 266.213 400.416 266.269 400.422V401.444C266.235 401.436 266.157 401.423 266.035 401.406C265.916 401.386 265.789 401.376 265.656 401.376C265.338 401.376 265.053 401.443 264.803 401.576C264.556 401.707 264.36 401.889 264.215 402.122C264.073 402.352 264.002 402.615 264.002 402.91V407.052H262.997ZM274.518 398.325V407.052H273.496L268.74 400.2H268.655V407.052H267.598V398.325H268.621L273.393 405.194H273.479V398.325H274.518ZM279.156 407.189C278.565 407.189 278.046 407.048 277.6 406.767C277.157 406.486 276.811 406.092 276.561 405.586C276.313 405.081 276.19 404.49 276.19 403.814C276.19 403.132 276.313 402.537 276.561 402.028C276.811 401.52 277.157 401.125 277.6 400.844C278.046 400.562 278.565 400.422 279.156 400.422C279.747 400.422 280.264 400.562 280.707 400.844C281.153 401.125 281.499 401.52 281.747 402.028C281.997 402.537 282.122 403.132 282.122 403.814C282.122 404.49 281.997 405.081 281.747 405.586C281.499 406.092 281.153 406.486 280.707 406.767C280.264 407.048 279.747 407.189 279.156 407.189ZM279.156 406.285C279.605 406.285 279.974 406.17 280.264 405.94C280.553 405.71 280.768 405.407 280.907 405.032C281.046 404.657 281.116 404.251 281.116 403.814C281.116 403.376 281.046 402.969 280.907 402.591C280.768 402.213 280.553 401.907 280.264 401.674C279.974 401.442 279.605 401.325 279.156 401.325C278.707 401.325 278.338 401.442 278.048 401.674C277.758 401.907 277.544 402.213 277.404 402.591C277.265 402.969 277.195 403.376 277.195 403.814C277.195 404.251 277.265 404.657 277.404 405.032C277.544 405.407 277.758 405.71 278.048 405.94C278.338 406.17 278.707 406.285 279.156 406.285ZM283.657 407.052V400.507H284.628V401.495H284.697C284.816 401.172 285.032 400.909 285.344 400.707C285.657 400.505 286.009 400.405 286.401 400.405C286.475 400.405 286.567 400.406 286.678 400.409C286.789 400.412 286.873 400.416 286.93 400.422V401.444C286.895 401.436 286.817 401.423 286.695 401.406C286.576 401.386 286.449 401.376 286.316 401.376C285.998 401.376 285.714 401.443 285.464 401.576C285.216 401.707 285.02 401.889 284.876 402.122C284.733 402.352 284.662 402.615 284.662 402.91V407.052H283.657ZM288.122 407.052V400.507H289.093V401.53H289.178C289.315 401.18 289.535 400.909 289.839 400.716C290.143 400.52 290.508 400.422 290.934 400.422C291.366 400.422 291.725 400.52 292.012 400.716C292.302 400.909 292.528 401.18 292.69 401.53H292.758C292.926 401.192 293.177 400.923 293.512 400.724C293.847 400.522 294.249 400.422 294.718 400.422C295.303 400.422 295.782 400.605 296.154 400.971C296.526 401.335 296.713 401.902 296.713 402.672V407.052H295.707V402.672C295.707 402.189 295.575 401.844 295.311 401.636C295.046 401.429 294.735 401.325 294.377 401.325C293.917 401.325 293.561 401.464 293.308 401.743C293.055 402.018 292.928 402.368 292.928 402.791V407.052H291.906V402.569C291.906 402.197 291.785 401.897 291.544 401.67C291.302 401.44 290.991 401.325 290.61 401.325C290.349 401.325 290.105 401.395 289.877 401.534C289.653 401.673 289.471 401.866 289.332 402.113C289.195 402.358 289.127 402.64 289.127 402.961V407.052H288.122Z" fill="black"/>
<path d="M216 317.5H317C322.247 317.5 326.5 321.753 326.5 327V339.859C326.5 345.106 322.247 349.359 317 349.359H216C210.753 349.359 206.5 345.106 206.5 339.859V327C206.5 321.753 210.753 317.5 216 317.5Z" fill="white" stroke="black"/>
<path d="M242.046 338H240.938L244.142 329.273H245.233L248.438 338H247.33L244.722 330.653H244.654L242.046 338ZM242.455 334.591H246.921V335.528H242.455V334.591ZM252.097 331.455V332.307H248.705V331.455H252.097ZM249.694 329.886H250.699V336.125C250.699 336.409 250.741 336.622 250.823 336.764C250.908 336.903 251.016 336.997 251.147 337.045C251.28 337.091 251.421 337.114 251.569 337.114C251.68 337.114 251.77 337.108 251.841 337.097C251.912 337.082 251.969 337.071 252.012 337.062L252.216 337.966C252.148 337.991 252.053 338.017 251.931 338.043C251.809 338.071 251.654 338.085 251.466 338.085C251.182 338.085 250.904 338.024 250.631 337.902C250.361 337.78 250.137 337.594 249.958 337.344C249.782 337.094 249.694 336.778 249.694 336.398V329.886ZM256.456 331.455V332.307H253.064V331.455H256.456ZM254.053 329.886H255.059V336.125C255.059 336.409 255.1 336.622 255.182 336.764C255.268 336.903 255.376 336.997 255.506 337.045C255.64 337.091 255.78 337.114 255.928 337.114C256.039 337.114 256.13 337.108 256.201 337.097C256.272 337.082 256.329 337.071 256.371 337.062L256.576 337.966C256.508 337.991 256.412 338.017 256.29 338.043C256.168 338.071 256.013 338.085 255.826 338.085C255.542 338.085 255.263 338.024 254.991 337.902C254.721 337.78 254.496 337.594 254.317 337.344C254.141 337.094 254.053 336.778 254.053 336.398V329.886ZM260.643 338.136C260.013 338.136 259.469 337.997 259.011 337.719C258.557 337.438 258.206 337.045 257.959 336.543C257.714 336.037 257.592 335.449 257.592 334.778C257.592 334.108 257.714 333.517 257.959 333.006C258.206 332.491 258.55 332.091 258.99 331.804C259.433 331.514 259.95 331.369 260.541 331.369C260.882 331.369 261.219 331.426 261.551 331.54C261.883 331.653 262.186 331.838 262.459 332.094C262.731 332.347 262.949 332.682 263.111 333.099C263.273 333.517 263.354 334.031 263.354 334.642V335.068H258.308V334.199H262.331C262.331 333.83 262.257 333.5 262.109 333.21C261.964 332.92 261.757 332.692 261.487 332.524C261.22 332.357 260.905 332.273 260.541 332.273C260.14 332.273 259.794 332.372 259.501 332.571C259.211 332.767 258.988 333.023 258.832 333.338C258.676 333.653 258.598 333.991 258.598 334.352V334.932C258.598 335.426 258.683 335.845 258.854 336.189C259.027 336.53 259.267 336.79 259.574 336.969C259.881 337.145 260.237 337.233 260.643 337.233C260.907 337.233 261.146 337.196 261.359 337.122C261.575 337.045 261.761 336.932 261.917 336.781C262.074 336.628 262.194 336.437 262.28 336.21L263.251 336.483C263.149 336.812 262.977 337.102 262.736 337.352C262.494 337.599 262.196 337.793 261.841 337.932C261.486 338.068 261.086 338.136 260.643 338.136ZM265.889 334.062V338H264.883V331.455H265.855V332.477H265.94C266.094 332.145 266.327 331.878 266.639 331.676C266.952 331.472 267.355 331.369 267.849 331.369C268.292 331.369 268.68 331.46 269.013 331.642C269.345 331.821 269.604 332.094 269.788 332.46C269.973 332.824 270.065 333.284 270.065 333.841V338H269.059V333.909C269.059 333.395 268.926 332.994 268.659 332.707C268.392 332.418 268.025 332.273 267.559 332.273C267.238 332.273 266.952 332.342 266.699 332.482C266.449 332.621 266.251 332.824 266.106 333.091C265.961 333.358 265.889 333.682 265.889 334.062ZM274.749 331.455V332.307H271.357V331.455H274.749ZM272.346 329.886H273.352V336.125C273.352 336.409 273.393 336.622 273.475 336.764C273.561 336.903 273.669 336.997 273.799 337.045C273.933 337.091 274.073 337.114 274.221 337.114C274.332 337.114 274.423 337.108 274.494 337.097C274.565 337.082 274.622 337.071 274.664 337.062L274.869 337.966C274.801 337.991 274.705 338.017 274.583 338.043C274.461 338.071 274.306 338.085 274.119 338.085C273.835 338.085 273.556 338.024 273.284 337.902C273.014 337.78 272.789 337.594 272.61 337.344C272.434 337.094 272.346 336.778 272.346 336.398V329.886ZM276.262 338V331.455H277.268V338H276.262ZM276.774 330.364C276.578 330.364 276.409 330.297 276.267 330.163C276.127 330.03 276.058 329.869 276.058 329.682C276.058 329.494 276.127 329.334 276.267 329.2C276.409 329.067 276.578 329 276.774 329C276.97 329 277.137 329.067 277.276 329.2C277.419 329.334 277.49 329.494 277.49 329.682C277.49 329.869 277.419 330.03 277.276 330.163C277.137 330.297 276.97 330.364 276.774 330.364ZM281.769 338.136C281.178 338.136 280.66 337.996 280.214 337.714C279.77 337.433 279.424 337.04 279.174 336.534C278.927 336.028 278.803 335.437 278.803 334.761C278.803 334.08 278.927 333.484 279.174 332.976C279.424 332.467 279.77 332.072 280.214 331.791C280.66 331.51 281.178 331.369 281.769 331.369C282.36 331.369 282.877 331.51 283.32 331.791C283.766 332.072 284.113 332.467 284.36 332.976C284.61 333.484 284.735 334.08 284.735 334.761C284.735 335.437 284.61 336.028 284.36 336.534C284.113 337.04 283.766 337.433 283.32 337.714C282.877 337.996 282.36 338.136 281.769 338.136ZM281.769 337.233C282.218 337.233 282.587 337.118 282.877 336.888C283.167 336.658 283.381 336.355 283.52 335.98C283.66 335.605 283.729 335.199 283.729 334.761C283.729 334.324 283.66 333.916 283.52 333.538C283.381 333.161 283.167 332.855 282.877 332.622C282.587 332.389 282.218 332.273 281.769 332.273C281.32 332.273 280.951 332.389 280.661 332.622C280.371 332.855 280.157 333.161 280.018 333.538C279.878 333.916 279.809 334.324 279.809 334.761C279.809 335.199 279.878 335.605 280.018 335.98C280.157 336.355 280.371 336.658 280.661 336.888C280.951 337.118 281.32 337.233 281.769 337.233ZM287.276 334.062V338H286.27V331.455H287.242V332.477H287.327C287.48 332.145 287.713 331.878 288.026 331.676C288.338 331.472 288.742 331.369 289.236 331.369C289.679 331.369 290.067 331.46 290.399 331.642C290.732 331.821 290.99 332.094 291.175 332.46C291.36 332.824 291.452 333.284 291.452 333.841V338H290.446V333.909C290.446 333.395 290.313 332.994 290.046 332.707C289.779 332.418 289.412 332.273 288.946 332.273C288.625 332.273 288.338 332.342 288.085 332.482C287.835 332.621 287.638 332.824 287.493 333.091C287.348 333.358 287.276 333.682 287.276 334.062Z" fill="black"/>
<path d="M266 414L261.67 421.5H270.33L266 414ZM266 457H266.75V420.75H266H265.25V457H266Z" fill="black"/>
<path d="M266 457L258.783 469.5H273.217L266 457ZM266 500H267.25V468.25H266H264.75V500H266Z" fill="black"/>
<path d="M266 27L258.783 39.5H273.217L266 27ZM266 70H267.25V38.25H266H264.75V70H266Z" fill="black"/>
<path d="M266 291L261.67 298.5H270.33L266 291ZM266 317H266.75V297.75H266H265.25V317H266Z" fill="black"/>
<path d="M266 70L261.67 77.5H270.33L266 70ZM266 98H266.75V76.75H266H265.25V98H266Z" fill="black"/>
<path d="M273 284L280.5 288.33V279.67L273 284ZM348 427H348.75V294H348H347.25V427H348ZM338 284V283.25H279.75V284V284.75H338V284ZM266 437V437.75H307V437V436.25H266V437ZM307 437V437.75H338V437V436.25H307V437ZM348 294H348.75C348.75 288.063 343.937 283.25 338 283.25V284V284.75C343.109 284.75 347.25 288.891 347.25 294H348ZM348 427H347.25C347.25 432.109 343.109 436.25 338 436.25V437V437.75C343.937 437.75 348.75 432.937 348.75 427H348Z" fill="black"/>
<path d="M266 350L261.67 357.5H270.33L266 350ZM266 389H266.75V356.75H266H265.25V389H266Z" fill="black"/>
<path d="M296 350L291.67 357.5H300.33L296 350ZM236 350L231.67 357.5H240.33L236 350ZM265.748 366V366.75H286V366V365.25H265.748V366ZM265.748 366V365.25H246V366V366.75H265.748V366ZM246 366V365.25C240.891 365.25 236.75 361.109 236.75 356H236H235.25C235.25 361.937 240.063 366.75 246 366.75V366ZM286 366V366.75C291.937 366.75 296.75 361.937 296.75 356H296H295.25C295.25 361.109 291.109 365.25 286 365.25V366Z" fill="black"/>
<circle cx="266" cy="284" r="6.75" fill="#D9D9D9" stroke="black" stroke-width="0.5"/>
<path d="M265.522 287.403V281.778H266.477V287.403H265.522ZM263.187 285.068V284.114H268.812V285.068H263.187Z" fill="black"/>
<path d="M216 209.5H317C322.247 209.5 326.5 213.753 326.5 219V223.859C326.5 229.106 322.247 233.359 317 233.359H216C210.753 233.359 206.5 229.106 206.5 223.859V219C206.5 213.753 210.753 209.5 216 209.5Z" fill="white" stroke="black"/>
<path d="M236.426 227.052V218.325H237.483V226.115H241.54V227.052H236.426ZM244.966 227.206C244.551 227.206 244.175 227.128 243.836 226.971C243.498 226.812 243.23 226.584 243.031 226.285C242.832 225.984 242.733 225.62 242.733 225.194C242.733 224.819 242.807 224.515 242.954 224.282C243.102 224.047 243.3 223.862 243.547 223.728C243.794 223.595 244.067 223.495 244.365 223.43C244.666 223.362 244.969 223.308 245.273 223.268C245.67 223.217 245.993 223.179 246.24 223.153C246.49 223.125 246.672 223.078 246.785 223.013C246.902 222.947 246.96 222.834 246.96 222.672V222.638C246.96 222.217 246.845 221.89 246.615 221.657C246.388 221.424 246.042 221.308 245.579 221.308C245.099 221.308 244.723 221.413 244.45 221.623C244.177 221.834 243.986 222.058 243.875 222.297L242.92 221.956C243.091 221.558 243.318 221.248 243.602 221.027C243.889 220.802 244.202 220.646 244.54 220.558C244.881 220.467 245.216 220.422 245.545 220.422C245.756 220.422 245.997 220.447 246.27 220.498C246.545 220.547 246.811 220.647 247.067 220.801C247.325 220.954 247.54 221.186 247.71 221.495C247.881 221.805 247.966 222.22 247.966 222.74V227.052H246.96V226.166H246.909C246.841 226.308 246.727 226.46 246.568 226.622C246.409 226.784 246.197 226.922 245.933 227.035C245.669 227.149 245.346 227.206 244.966 227.206ZM245.119 226.302C245.517 226.302 245.852 226.224 246.125 226.068C246.4 225.912 246.608 225.71 246.747 225.463C246.889 225.216 246.96 224.956 246.96 224.683V223.763C246.917 223.814 246.824 223.861 246.679 223.903C246.537 223.943 246.372 223.978 246.184 224.01C246 224.038 245.819 224.064 245.643 224.086C245.47 224.106 245.329 224.123 245.221 224.138C244.96 224.172 244.716 224.227 244.488 224.304C244.264 224.378 244.082 224.49 243.943 224.64C243.807 224.788 243.738 224.99 243.738 225.245C243.738 225.595 243.868 225.859 244.126 226.038C244.388 226.214 244.719 226.302 245.119 226.302ZM250.215 229.507C250.044 229.507 249.892 229.493 249.759 229.464C249.625 229.439 249.533 229.413 249.482 229.388L249.737 228.501C249.982 228.564 250.198 228.586 250.385 228.569C250.573 228.552 250.739 228.469 250.884 228.318C251.031 228.17 251.166 227.93 251.289 227.598L251.476 227.086L249.056 220.507H250.146L251.953 225.723H252.021L253.828 220.507H254.919L252.141 228.007C252.016 228.345 251.861 228.625 251.676 228.846C251.492 229.071 251.277 229.237 251.033 229.345C250.791 229.453 250.519 229.507 250.215 229.507ZM258.757 227.189C258.126 227.189 257.582 227.049 257.124 226.771C256.67 226.49 256.319 226.098 256.072 225.595C255.828 225.089 255.705 224.501 255.705 223.831C255.705 223.16 255.828 222.569 256.072 222.058C256.319 221.544 256.663 221.143 257.103 220.856C257.546 220.567 258.063 220.422 258.654 220.422C258.995 220.422 259.332 220.478 259.664 220.592C259.997 220.706 260.299 220.89 260.572 221.146C260.845 221.399 261.062 221.734 261.224 222.152C261.386 222.569 261.467 223.084 261.467 223.694V224.12H256.421V223.251H260.444C260.444 222.882 260.37 222.552 260.222 222.263C260.078 221.973 259.87 221.744 259.6 221.576C259.333 221.409 259.018 221.325 258.654 221.325C258.254 221.325 257.907 221.424 257.615 221.623C257.325 221.819 257.102 222.075 256.945 222.39C256.789 222.706 256.711 223.044 256.711 223.405V223.984C256.711 224.478 256.796 224.897 256.967 225.241C257.14 225.582 257.38 225.842 257.687 226.021C257.994 226.197 258.35 226.285 258.757 226.285C259.021 226.285 259.259 226.248 259.472 226.174C259.688 226.098 259.874 225.984 260.031 225.834C260.187 225.68 260.308 225.49 260.393 225.263L261.365 225.535C261.262 225.865 261.09 226.155 260.849 226.405C260.607 226.652 260.309 226.845 259.954 226.984C259.599 227.12 259.2 227.189 258.757 227.189ZM262.997 227.052V220.507H263.968V221.495H264.036C264.156 221.172 264.372 220.909 264.684 220.707C264.997 220.505 265.349 220.405 265.741 220.405C265.815 220.405 265.907 220.406 266.018 220.409C266.129 220.412 266.213 220.416 266.269 220.422V221.444C266.235 221.436 266.157 221.423 266.035 221.406C265.916 221.386 265.789 221.376 265.656 221.376C265.338 221.376 265.053 221.443 264.803 221.576C264.556 221.707 264.36 221.889 264.215 222.122C264.073 222.352 264.002 222.615 264.002 222.91V227.052H262.997ZM274.518 218.325V227.052H273.496L268.74 220.2H268.655V227.052H267.598V218.325H268.621L273.393 225.194H273.479V218.325H274.518ZM279.156 227.189C278.565 227.189 278.046 227.048 277.6 226.767C277.157 226.486 276.811 226.092 276.561 225.586C276.313 225.081 276.19 224.49 276.19 223.814C276.19 223.132 276.313 222.537 276.561 222.028C276.811 221.52 277.157 221.125 277.6 220.844C278.046 220.562 278.565 220.422 279.156 220.422C279.747 220.422 280.264 220.562 280.707 220.844C281.153 221.125 281.499 221.52 281.747 222.028C281.997 222.537 282.122 223.132 282.122 223.814C282.122 224.49 281.997 225.081 281.747 225.586C281.499 226.092 281.153 226.486 280.707 226.767C280.264 227.048 279.747 227.189 279.156 227.189ZM279.156 226.285C279.605 226.285 279.974 226.17 280.264 225.94C280.553 225.71 280.768 225.407 280.907 225.032C281.046 224.657 281.116 224.251 281.116 223.814C281.116 223.376 281.046 222.969 280.907 222.591C280.768 222.213 280.553 221.907 280.264 221.674C279.974 221.442 279.605 221.325 279.156 221.325C278.707 221.325 278.338 221.442 278.048 221.674C277.758 221.907 277.544 222.213 277.404 222.591C277.265 222.969 277.195 223.376 277.195 223.814C277.195 224.251 277.265 224.657 277.404 225.032C277.544 225.407 277.758 225.71 278.048 225.94C278.338 226.17 278.707 226.285 279.156 226.285ZM283.657 227.052V220.507H284.628V221.495H284.697C284.816 221.172 285.032 220.909 285.344 220.707C285.657 220.505 286.009 220.405 286.401 220.405C286.475 220.405 286.567 220.406 286.678 220.409C286.789 220.412 286.873 220.416 286.93 220.422V221.444C286.895 221.436 286.817 221.423 286.695 221.406C286.576 221.386 286.449 221.376 286.316 221.376C285.998 221.376 285.714 221.443 285.464 221.576C285.216 221.707 285.02 221.889 284.876 222.122C284.733 222.352 284.662 222.615 284.662 222.91V227.052H283.657ZM288.122 227.052V220.507H289.093V221.53H289.178C289.315 221.18 289.535 220.909 289.839 220.716C290.143 220.52 290.508 220.422 290.934 220.422C291.366 220.422 291.725 220.52 292.012 220.716C292.302 220.909 292.528 221.18 292.69 221.53H292.758C292.926 221.192 293.177 220.923 293.512 220.724C293.847 220.522 294.249 220.422 294.718 220.422C295.303 220.422 295.782 220.605 296.154 220.971C296.526 221.335 296.713 221.902 296.713 222.672V227.052H295.707V222.672C295.707 222.189 295.575 221.844 295.311 221.636C295.046 221.429 294.735 221.325 294.377 221.325C293.917 221.325 293.561 221.464 293.308 221.743C293.055 222.018 292.928 222.368 292.928 222.791V227.052H291.906V222.569C291.906 222.197 291.785 221.897 291.544 221.67C291.302 221.44 290.991 221.325 290.61 221.325C290.349 221.325 290.105 221.395 289.877 221.534C289.653 221.673 289.471 221.866 289.332 222.113C289.195 222.358 289.127 222.64 289.127 222.961V227.052H288.122Z" fill="black"/>
<path d="M216 137.5H317C322.247 137.5 326.5 141.753 326.5 147V159.859C326.5 165.106 322.247 169.359 317 169.359H216C210.753 169.359 206.5 165.106 206.5 159.859V147C206.5 141.753 210.753 137.5 216 137.5Z" fill="white" stroke="black"/>
<path d="M255.035 149.273H256.297L259.263 156.517H259.365L262.331 149.273H263.592V158H262.604V151.369H262.518L259.791 158H258.836L256.109 151.369H256.024V158H255.035V149.273ZM265.711 158V149.273H266.768V157.062H270.825V158H265.711ZM272.461 158V149.273H275.41C276.095 149.273 276.654 149.396 277.089 149.643C277.526 149.888 277.85 150.219 278.061 150.636C278.271 151.054 278.376 151.52 278.376 152.034C278.376 152.548 278.271 153.016 278.061 153.436C277.853 153.857 277.532 154.192 277.097 154.442C276.663 154.689 276.106 154.812 275.427 154.812H273.313V153.875H275.393C275.862 153.875 276.238 153.794 276.522 153.632C276.806 153.47 277.012 153.251 277.14 152.976C277.271 152.697 277.336 152.384 277.336 152.034C277.336 151.685 277.271 151.372 277.14 151.097C277.012 150.821 276.805 150.605 276.518 150.449C276.231 150.29 275.85 150.21 275.376 150.21H273.518V158H272.461Z" fill="black"/>
<path d="M266 234L261.67 241.5H270.33L266 234ZM266 277H266.75V240.75H266H265.25V277H266Z" fill="black"/>
<path d="M266 111L261.67 118.5H270.33L266 111ZM266 137H266.75V117.75H266H265.25V137H266Z" fill="black"/>
<path d="M273 104L280.5 108.33V99.6699L273 104ZM348 248L348.75 248V114H348H347.25V248H348ZM338 104V103.25H279.75V104V104.75H338V104ZM266 258V258.75H307V258V257.25H266V258ZM307 258V258.75H338V258V257.25H307V258ZM348 114H348.75C348.75 108.063 343.937 103.25 338 103.25V104V104.75C343.109 104.75 347.25 108.891 347.25 114H348ZM348 248H347.25C347.25 253.109 343.109 257.25 338 257.25V258V258.75C343.937 258.75 348.75 253.937 348.75 248L348 248Z" fill="black"/>
<path d="M266 170L261.67 177.5H270.33L266 170ZM266 209H266.75V176.75H266H265.25V209H266Z" fill="black"/>
<path d="M296 170L291.67 177.5H300.33L296 170ZM236 170L231.67 177.5H240.33L236 170ZM265.748 186V186.75H286V186V185.25H265.748V186ZM265.748 186V185.25H246V186V186.75H265.748V186ZM246 186V185.25C240.891 185.25 236.75 181.109 236.75 176H236H235.25C235.25 181.937 240.063 186.75 246 186.75V186ZM286 186V186.75C291.937 186.75 296.75 181.937 296.75 176H296H295.25C295.25 181.109 291.109 185.25 286 185.25V186Z" fill="black"/>
<circle cx="266" cy="104" r="6.75" fill="#D9D9D9" stroke="black" stroke-width="0.5"/>
<path d="M265.522 107.403V101.778H266.477V107.403H265.522ZM263.187 105.068V104.114H268.812V105.068H263.187Z" fill="black"/>
<path d="M265 125L257.797 115.975L253.583 126.726L265 125ZM140 76L139.635 76.931L256.256 122.646L256.621 121.715L256.986 120.784L140.365 75.069L140 76Z" fill="black"/>
<path d="M264 304L252.814 301.137L255.927 312.256L264 304ZM139 339L139.27 339.963L255.603 307.39L255.333 306.427L255.064 305.464L138.73 338.037L139 339Z" fill="black"/>
<path d="M267 443L278.217 445.739L274.981 434.655L267 443ZM404 403L403.72 402.04L275.359 439.518L275.639 440.478L275.92 441.438L404.28 403.96L404 403Z" fill="black"/>
<path d="M267 249L275.315 257.012L278.096 245.805L267 249ZM404 283L404.241 282.029L275.976 250.197L275.735 251.168L275.494 252.138L403.759 283.971L404 283Z" fill="black"/>
<path d="M410.199 284.729V284.548C410.202 283.927 410.257 283.431 410.364 283.062C410.474 282.693 410.634 282.395 410.843 282.167C411.053 281.94 411.305 281.734 411.6 281.549C411.82 281.407 412.017 281.26 412.191 281.107C412.365 280.955 412.504 280.786 412.607 280.601C412.71 280.413 412.761 280.203 412.761 279.973C412.761 279.728 412.702 279.513 412.585 279.328C412.468 279.143 412.31 279.001 412.111 278.902C411.916 278.803 411.699 278.753 411.461 278.753C411.23 278.753 411.012 278.804 410.806 278.907C410.6 279.007 410.431 279.156 410.3 279.355C410.169 279.55 410.098 279.793 410.087 280.085H407.914C407.931 279.374 408.102 278.788 408.425 278.327C408.748 277.862 409.176 277.515 409.709 277.288C410.241 277.057 410.829 276.942 411.472 276.942C412.179 276.942 412.804 277.059 413.347 277.293C413.89 277.524 414.316 277.86 414.625 278.3C414.934 278.74 415.089 279.271 415.089 279.893C415.089 280.308 415.02 280.678 414.881 281.001C414.746 281.32 414.556 281.604 414.311 281.853C414.066 282.098 413.777 282.32 413.443 282.519C413.162 282.686 412.931 282.86 412.75 283.041C412.573 283.222 412.44 283.431 412.351 283.669C412.266 283.907 412.221 284.2 412.218 284.548V284.729H410.199ZM411.254 288.138C410.898 288.138 410.595 288.014 410.343 287.766C410.094 287.513 409.972 287.212 409.975 286.86C409.972 286.512 410.094 286.214 410.343 285.965C410.595 285.717 410.898 285.592 411.254 285.592C411.591 285.592 411.887 285.717 412.143 285.965C412.399 286.214 412.528 286.512 412.532 286.86C412.528 287.094 412.466 287.309 412.346 287.505C412.228 287.696 412.074 287.851 411.882 287.968C411.69 288.082 411.481 288.138 411.254 288.138ZM418.636 284.729V284.548C418.64 283.927 418.695 283.431 418.801 283.062C418.912 282.693 419.071 282.395 419.281 282.167C419.49 281.94 419.743 281.734 420.037 281.549C420.257 281.407 420.455 281.26 420.629 281.107C420.803 280.955 420.941 280.786 421.044 280.601C421.147 280.413 421.199 280.203 421.199 279.973C421.199 279.728 421.14 279.513 421.023 279.328C420.906 279.143 420.748 279.001 420.549 278.902C420.353 278.803 420.137 278.753 419.899 278.753C419.668 278.753 419.45 278.804 419.244 278.907C419.038 279.007 418.869 279.156 418.738 279.355C418.606 279.55 418.535 279.793 418.525 280.085H416.351C416.369 279.374 416.539 278.788 416.863 278.327C417.186 277.862 417.614 277.515 418.146 277.288C418.679 277.057 419.267 276.942 419.909 276.942C420.616 276.942 421.241 277.059 421.784 277.293C422.328 277.524 422.754 277.86 423.063 278.3C423.372 278.74 423.526 279.271 423.526 279.893C423.526 280.308 423.457 280.678 423.319 281.001C423.184 281.32 422.994 281.604 422.749 281.853C422.504 282.098 422.214 282.32 421.88 282.519C421.6 282.686 421.369 282.86 421.188 283.041C421.01 283.222 420.877 283.431 420.788 283.669C420.703 283.907 420.659 284.2 420.655 284.548V284.729H418.636ZM419.691 288.138C419.336 288.138 419.032 288.014 418.78 287.766C418.532 287.513 418.409 287.212 418.413 286.86C418.409 286.512 418.532 286.214 418.78 285.965C419.032 285.717 419.336 285.592 419.691 285.592C420.028 285.592 420.325 285.717 420.581 285.965C420.836 286.214 420.966 286.512 420.969 286.86C420.966 287.094 420.904 287.309 420.783 287.505C420.666 287.696 420.511 287.851 420.32 287.968C420.128 288.082 419.918 288.138 419.691 288.138ZM427.074 284.729V284.548C427.077 283.927 427.132 283.431 427.239 283.062C427.349 282.693 427.509 282.395 427.718 282.167C427.928 281.94 428.18 281.734 428.475 281.549C428.695 281.407 428.892 281.26 429.066 281.107C429.24 280.955 429.379 280.786 429.482 280.601C429.585 280.413 429.636 280.203 429.636 279.973C429.636 279.728 429.577 279.513 429.46 279.328C429.343 279.143 429.185 279.001 428.986 278.902C428.791 278.803 428.574 278.753 428.336 278.753C428.105 278.753 427.887 278.804 427.681 278.907C427.475 279.007 427.306 279.156 427.175 279.355C427.044 279.55 426.973 279.793 426.962 280.085H424.789C424.806 279.374 424.977 278.788 425.3 278.327C425.623 277.862 426.051 277.515 426.584 277.288C427.116 277.057 427.704 276.942 428.347 276.942C429.054 276.942 429.679 277.059 430.222 277.293C430.765 277.524 431.191 277.86 431.5 278.3C431.809 278.74 431.964 279.271 431.964 279.893C431.964 280.308 431.895 280.678 431.756 281.001C431.621 281.32 431.431 281.604 431.186 281.853C430.941 282.098 430.652 282.32 430.318 282.519C430.037 282.686 429.806 282.86 429.625 283.041C429.448 283.222 429.315 283.431 429.226 283.669C429.141 283.907 429.096 284.2 429.093 284.548V284.729H427.074ZM428.129 288.138C427.773 288.138 427.47 288.014 427.218 287.766C426.969 287.513 426.847 287.212 426.85 286.86C426.847 286.512 426.969 286.214 427.218 285.965C427.47 285.717 427.773 285.592 428.129 285.592C428.466 285.592 428.762 285.717 429.018 285.965C429.274 286.214 429.403 286.512 429.407 286.86C429.403 287.094 429.341 287.309 429.221 287.505C429.103 287.696 428.949 287.851 428.757 287.968C428.565 288.082 428.356 288.138 428.129 288.138Z" fill="black"/>
<path d="M116.199 76.7294V76.5483C116.202 75.9268 116.257 75.4315 116.364 75.0621C116.474 74.6928 116.634 74.3945 116.843 74.1673C117.053 73.94 117.305 73.734 117.6 73.5494C117.82 73.4073 118.017 73.2599 118.191 73.1072C118.365 72.9545 118.504 72.7859 118.607 72.6012C118.71 72.413 118.761 72.2035 118.761 71.9727C118.761 71.7276 118.702 71.5128 118.585 71.3281C118.468 71.1435 118.31 71.0014 118.111 70.902C117.916 70.8026 117.699 70.7528 117.461 70.7528C117.23 70.7528 117.012 70.8043 116.806 70.9073C116.6 71.0067 116.431 71.1559 116.3 71.3548C116.169 71.5501 116.098 71.7933 116.087 72.0845H113.914C113.931 71.3743 114.102 70.7884 114.425 70.3267C114.748 69.8615 115.176 69.5153 115.709 69.288C116.241 69.0572 116.829 68.9418 117.472 68.9418C118.179 68.9418 118.804 69.0589 119.347 69.2933C119.89 69.5241 120.316 69.8597 120.625 70.3001C120.934 70.7404 121.089 71.2713 121.089 71.8928C121.089 72.3082 121.02 72.6776 120.881 73.0007C120.746 73.3203 120.556 73.6044 120.311 73.853C120.066 74.098 119.777 74.32 119.443 74.5188C119.162 74.6857 118.931 74.8597 118.75 75.0408C118.573 75.2219 118.44 75.4315 118.351 75.6694C118.266 75.9073 118.221 76.2003 118.218 76.5483V76.7294H116.199ZM117.254 80.1385C116.898 80.1385 116.595 80.0142 116.343 79.7656C116.094 79.5135 115.972 79.2116 115.975 78.8601C115.972 78.5121 116.094 78.2138 116.343 77.9652C116.595 77.7166 116.898 77.5923 117.254 77.5923C117.591 77.5923 117.887 77.7166 118.143 77.9652C118.399 78.2138 118.528 78.5121 118.532 78.8601C118.528 79.0945 118.466 79.3093 118.346 79.5046C118.228 79.6964 118.074 79.8509 117.882 79.968C117.69 80.0817 117.481 80.1385 117.254 80.1385ZM124.636 76.7294V76.5483C124.64 75.9268 124.695 75.4315 124.801 75.0621C124.912 74.6928 125.071 74.3945 125.281 74.1673C125.49 73.94 125.743 73.734 126.037 73.5494C126.257 73.4073 126.455 73.2599 126.629 73.1072C126.803 72.9545 126.941 72.7859 127.044 72.6012C127.147 72.413 127.199 72.2035 127.199 71.9727C127.199 71.7276 127.14 71.5128 127.023 71.3281C126.906 71.1435 126.748 71.0014 126.549 70.902C126.353 70.8026 126.137 70.7528 125.899 70.7528C125.668 70.7528 125.45 70.8043 125.244 70.9073C125.038 71.0067 124.869 71.1559 124.738 71.3548C124.606 71.5501 124.535 71.7933 124.525 72.0845H122.351C122.369 71.3743 122.539 70.7884 122.863 70.3267C123.186 69.8615 123.614 69.5153 124.146 69.288C124.679 69.0572 125.267 68.9418 125.909 68.9418C126.616 68.9418 127.241 69.0589 127.784 69.2933C128.328 69.5241 128.754 69.8597 129.063 70.3001C129.372 70.7404 129.526 71.2713 129.526 71.8928C129.526 72.3082 129.457 72.6776 129.319 73.0007C129.184 73.3203 128.994 73.6044 128.749 73.853C128.504 74.098 128.214 74.32 127.88 74.5188C127.6 74.6857 127.369 74.8597 127.188 75.0408C127.01 75.2219 126.877 75.4315 126.788 75.6694C126.703 75.9073 126.659 76.2003 126.655 76.5483V76.7294H124.636ZM125.691 80.1385C125.336 80.1385 125.032 80.0142 124.78 79.7656C124.532 79.5135 124.409 79.2116 124.413 78.8601C124.409 78.5121 124.532 78.2138 124.78 77.9652C125.032 77.7166 125.336 77.5923 125.691 77.5923C126.028 77.5923 126.325 77.7166 126.581 77.9652C126.836 78.2138 126.966 78.5121 126.969 78.8601C126.966 79.0945 126.904 79.3093 126.783 79.5046C126.666 79.6964 126.511 79.8509 126.32 79.968C126.128 80.0817 125.918 80.1385 125.691 80.1385ZM133.074 76.7294V76.5483C133.077 75.9268 133.132 75.4315 133.239 75.0621C133.349 74.6928 133.509 74.3945 133.718 74.1673C133.928 73.94 134.18 73.734 134.475 73.5494C134.695 73.4073 134.892 73.2599 135.066 73.1072C135.24 72.9545 135.379 72.7859 135.482 72.6012C135.585 72.413 135.636 72.2035 135.636 71.9727C135.636 71.7276 135.577 71.5128 135.46 71.3281C135.343 71.1435 135.185 71.0014 134.986 70.902C134.791 70.8026 134.574 70.7528 134.336 70.7528C134.105 70.7528 133.887 70.8043 133.681 70.9073C133.475 71.0067 133.306 71.1559 133.175 71.3548C133.044 71.5501 132.973 71.7933 132.962 72.0845H130.789C130.806 71.3743 130.977 70.7884 131.3 70.3267C131.623 69.8615 132.051 69.5153 132.584 69.288C133.116 69.0572 133.704 68.9418 134.347 68.9418C135.054 68.9418 135.679 69.0589 136.222 69.2933C136.765 69.5241 137.191 69.8597 137.5 70.3001C137.809 70.7404 137.964 71.2713 137.964 71.8928C137.964 72.3082 137.895 72.6776 137.756 73.0007C137.621 73.3203 137.431 73.6044 137.186 73.853C136.941 74.098 136.652 74.32 136.318 74.5188C136.037 74.6857 135.806 74.8597 135.625 75.0408C135.448 75.2219 135.315 75.4315 135.226 75.6694C135.141 75.9073 135.096 76.2003 135.093 76.5483V76.7294H133.074ZM134.129 80.1385C133.773 80.1385 133.47 80.0142 133.218 79.7656C132.969 79.5135 132.847 79.2116 132.85 78.8601C132.847 78.5121 132.969 78.2138 133.218 77.9652C133.47 77.7166 133.773 77.5923 134.129 77.5923C134.466 77.5923 134.762 77.7166 135.018 77.9652C135.274 78.2138 135.403 78.5121 135.407 78.8601C135.403 79.0945 135.341 79.3093 135.221 79.5046C135.103 79.6964 134.949 79.8509 134.757 79.968C134.565 80.0817 134.356 80.1385 134.129 80.1385Z" fill="black"/>
<path d="M114.199 342.729V342.548C114.202 341.927 114.257 341.431 114.364 341.062C114.474 340.693 114.634 340.395 114.843 340.167C115.053 339.94 115.305 339.734 115.6 339.549C115.82 339.407 116.017 339.26 116.191 339.107C116.365 338.955 116.504 338.786 116.607 338.601C116.71 338.413 116.761 338.203 116.761 337.973C116.761 337.728 116.702 337.513 116.585 337.328C116.468 337.143 116.31 337.001 116.111 336.902C115.916 336.803 115.699 336.753 115.461 336.753C115.23 336.753 115.012 336.804 114.806 336.907C114.6 337.007 114.431 337.156 114.3 337.355C114.169 337.55 114.098 337.793 114.087 338.085H111.914C111.931 337.374 112.102 336.788 112.425 336.327C112.748 335.862 113.176 335.515 113.709 335.288C114.241 335.057 114.829 334.942 115.472 334.942C116.179 334.942 116.804 335.059 117.347 335.293C117.89 335.524 118.316 335.86 118.625 336.3C118.934 336.74 119.089 337.271 119.089 337.893C119.089 338.308 119.02 338.678 118.881 339.001C118.746 339.32 118.556 339.604 118.311 339.853C118.066 340.098 117.777 340.32 117.443 340.519C117.162 340.686 116.931 340.86 116.75 341.041C116.573 341.222 116.44 341.431 116.351 341.669C116.266 341.907 116.221 342.2 116.218 342.548V342.729H114.199ZM115.254 346.138C114.898 346.138 114.595 346.014 114.343 345.766C114.094 345.513 113.972 345.212 113.975 344.86C113.972 344.512 114.094 344.214 114.343 343.965C114.595 343.717 114.898 343.592 115.254 343.592C115.591 343.592 115.887 343.717 116.143 343.965C116.399 344.214 116.528 344.512 116.532 344.86C116.528 345.094 116.466 345.309 116.346 345.505C116.228 345.696 116.074 345.851 115.882 345.968C115.69 346.082 115.481 346.138 115.254 346.138ZM122.636 342.729V342.548C122.64 341.927 122.695 341.431 122.801 341.062C122.912 340.693 123.071 340.395 123.281 340.167C123.49 339.94 123.743 339.734 124.037 339.549C124.257 339.407 124.455 339.26 124.629 339.107C124.803 338.955 124.941 338.786 125.044 338.601C125.147 338.413 125.199 338.203 125.199 337.973C125.199 337.728 125.14 337.513 125.023 337.328C124.906 337.143 124.748 337.001 124.549 336.902C124.353 336.803 124.137 336.753 123.899 336.753C123.668 336.753 123.45 336.804 123.244 336.907C123.038 337.007 122.869 337.156 122.738 337.355C122.606 337.55 122.535 337.793 122.525 338.085H120.351C120.369 337.374 120.539 336.788 120.863 336.327C121.186 335.862 121.614 335.515 122.146 335.288C122.679 335.057 123.267 334.942 123.909 334.942C124.616 334.942 125.241 335.059 125.784 335.293C126.328 335.524 126.754 335.86 127.063 336.3C127.372 336.74 127.526 337.271 127.526 337.893C127.526 338.308 127.457 338.678 127.319 339.001C127.184 339.32 126.994 339.604 126.749 339.853C126.504 340.098 126.214 340.32 125.88 340.519C125.6 340.686 125.369 340.86 125.188 341.041C125.01 341.222 124.877 341.431 124.788 341.669C124.703 341.907 124.659 342.2 124.655 342.548V342.729H122.636ZM123.691 346.138C123.336 346.138 123.032 346.014 122.78 345.766C122.532 345.513 122.409 345.212 122.413 344.86C122.409 344.512 122.532 344.214 122.78 343.965C123.032 343.717 123.336 343.592 123.691 343.592C124.028 343.592 124.325 343.717 124.581 343.965C124.836 344.214 124.966 344.512 124.969 344.86C124.966 345.094 124.904 345.309 124.783 345.505C124.666 345.696 124.511 345.851 124.32 345.968C124.128 346.082 123.918 346.138 123.691 346.138ZM131.074 342.729V342.548C131.077 341.927 131.132 341.431 131.239 341.062C131.349 340.693 131.509 340.395 131.718 340.167C131.928 339.94 132.18 339.734 132.475 339.549C132.695 339.407 132.892 339.26 133.066 339.107C133.24 338.955 133.379 338.786 133.482 338.601C133.585 338.413 133.636 338.203 133.636 337.973C133.636 337.728 133.577 337.513 133.46 337.328C133.343 337.143 133.185 337.001 132.986 336.902C132.791 336.803 132.574 336.753 132.336 336.753C132.105 336.753 131.887 336.804 131.681 336.907C131.475 337.007 131.306 337.156 131.175 337.355C131.044 337.55 130.973 337.793 130.962 338.085H128.789C128.806 337.374 128.977 336.788 129.3 336.327C129.623 335.862 130.051 335.515 130.584 335.288C131.116 335.057 131.704 334.942 132.347 334.942C133.054 334.942 133.679 335.059 134.222 335.293C134.765 335.524 135.191 335.86 135.5 336.3C135.809 336.74 135.964 337.271 135.964 337.893C135.964 338.308 135.895 338.678 135.756 339.001C135.621 339.32 135.431 339.604 135.186 339.853C134.941 340.098 134.652 340.32 134.318 340.519C134.037 340.686 133.806 340.86 133.625 341.041C133.448 341.222 133.315 341.431 133.226 341.669C133.141 341.907 133.096 342.2 133.093 342.548V342.729H131.074ZM132.129 346.138C131.773 346.138 131.47 346.014 131.218 345.766C130.969 345.513 130.847 345.212 130.85 344.86C130.847 344.512 130.969 344.214 131.218 343.965C131.47 343.717 131.773 343.592 132.129 343.592C132.466 343.592 132.762 343.717 133.018 343.965C133.274 344.214 133.403 344.512 133.407 344.86C133.403 345.094 133.341 345.309 133.221 345.505C133.103 345.696 132.949 345.851 132.757 345.968C132.565 346.082 132.356 346.138 132.129 346.138Z" fill="black"/>
<path d="M410.199 402.729V402.548C410.202 401.927 410.257 401.431 410.364 401.062C410.474 400.693 410.634 400.395 410.843 400.167C411.053 399.94 411.305 399.734 411.6 399.549C411.82 399.407 412.017 399.26 412.191 399.107C412.365 398.955 412.504 398.786 412.607 398.601C412.71 398.413 412.761 398.203 412.761 397.973C412.761 397.728 412.702 397.513 412.585 397.328C412.468 397.143 412.31 397.001 412.111 396.902C411.916 396.803 411.699 396.753 411.461 396.753C411.23 396.753 411.012 396.804 410.806 396.907C410.6 397.007 410.431 397.156 410.3 397.355C410.169 397.55 410.098 397.793 410.087 398.085H407.914C407.931 397.374 408.102 396.788 408.425 396.327C408.748 395.862 409.176 395.515 409.709 395.288C410.241 395.057 410.829 394.942 411.472 394.942C412.179 394.942 412.804 395.059 413.347 395.293C413.89 395.524 414.316 395.86 414.625 396.3C414.934 396.74 415.089 397.271 415.089 397.893C415.089 398.308 415.02 398.678 414.881 399.001C414.746 399.32 414.556 399.604 414.311 399.853C414.066 400.098 413.777 400.32 413.443 400.519C413.162 400.686 412.931 400.86 412.75 401.041C412.573 401.222 412.44 401.431 412.351 401.669C412.266 401.907 412.221 402.2 412.218 402.548V402.729H410.199ZM411.254 406.138C410.898 406.138 410.595 406.014 410.343 405.766C410.094 405.513 409.972 405.212 409.975 404.86C409.972 404.512 410.094 404.214 410.343 403.965C410.595 403.717 410.898 403.592 411.254 403.592C411.591 403.592 411.887 403.717 412.143 403.965C412.399 404.214 412.528 404.512 412.532 404.86C412.528 405.094 412.466 405.309 412.346 405.505C412.228 405.696 412.074 405.851 411.882 405.968C411.69 406.082 411.481 406.138 411.254 406.138ZM418.636 402.729V402.548C418.64 401.927 418.695 401.431 418.801 401.062C418.912 400.693 419.071 400.395 419.281 400.167C419.49 399.94 419.743 399.734 420.037 399.549C420.257 399.407 420.455 399.26 420.629 399.107C420.803 398.955 420.941 398.786 421.044 398.601C421.147 398.413 421.199 398.203 421.199 397.973C421.199 397.728 421.14 397.513 421.023 397.328C420.906 397.143 420.748 397.001 420.549 396.902C420.353 396.803 420.137 396.753 419.899 396.753C419.668 396.753 419.45 396.804 419.244 396.907C419.038 397.007 418.869 397.156 418.738 397.355C418.606 397.55 418.535 397.793 418.525 398.085H416.351C416.369 397.374 416.539 396.788 416.863 396.327C417.186 395.862 417.614 395.515 418.146 395.288C418.679 395.057 419.267 394.942 419.909 394.942C420.616 394.942 421.241 395.059 421.784 395.293C422.328 395.524 422.754 395.86 423.063 396.3C423.372 396.74 423.526 397.271 423.526 397.893C423.526 398.308 423.457 398.678 423.319 399.001C423.184 399.32 422.994 399.604 422.749 399.853C422.504 400.098 422.214 400.32 421.88 400.519C421.6 400.686 421.369 400.86 421.188 401.041C421.01 401.222 420.877 401.431 420.788 401.669C420.703 401.907 420.659 402.2 420.655 402.548V402.729H418.636ZM419.691 406.138C419.336 406.138 419.032 406.014 418.78 405.766C418.532 405.513 418.409 405.212 418.413 404.86C418.409 404.512 418.532 404.214 418.78 403.965C419.032 403.717 419.336 403.592 419.691 403.592C420.028 403.592 420.325 403.717 420.581 403.965C420.836 404.214 420.966 404.512 420.969 404.86C420.966 405.094 420.904 405.309 420.783 405.505C420.666 405.696 420.511 405.851 420.32 405.968C420.128 406.082 419.918 406.138 419.691 406.138ZM427.074 402.729V402.548C427.077 401.927 427.132 401.431 427.239 401.062C427.349 400.693 427.509 400.395 427.718 400.167C427.928 399.94 428.18 399.734 428.475 399.549C428.695 399.407 428.892 399.26 429.066 399.107C429.24 398.955 429.379 398.786 429.482 398.601C429.585 398.413 429.636 398.203 429.636 397.973C429.636 397.728 429.577 397.513 429.46 397.328C429.343 397.143 429.185 397.001 428.986 396.902C428.791 396.803 428.574 396.753 428.336 396.753C428.105 396.753 427.887 396.804 427.681 396.907C427.475 397.007 427.306 397.156 427.175 397.355C427.044 397.55 426.973 397.793 426.962 398.085H424.789C424.806 397.374 424.977 396.788 425.3 396.327C425.623 395.862 426.051 395.515 426.584 395.288C427.116 395.057 427.704 394.942 428.347 394.942C429.054 394.942 429.679 395.059 430.222 395.293C430.765 395.524 431.191 395.86 431.5 396.3C431.809 396.74 431.964 397.271 431.964 397.893C431.964 398.308 431.895 398.678 431.756 399.001C431.621 399.32 431.431 399.604 431.186 399.853C430.941 400.098 430.652 400.32 430.318 400.519C430.037 400.686 429.806 400.86 429.625 401.041C429.448 401.222 429.315 401.431 429.226 401.669C429.141 401.907 429.096 402.2 429.093 402.548V402.729H427.074ZM428.129 406.138C427.773 406.138 427.47 406.014 427.218 405.766C426.969 405.513 426.847 405.212 426.85 404.86C426.847 404.512 426.969 404.214 427.218 403.965C427.47 403.717 427.773 403.592 428.129 403.592C428.466 403.592 428.762 403.717 429.018 403.965C429.274 404.214 429.403 404.512 429.407 404.86C429.403 405.094 429.341 405.309 429.221 405.505C429.103 405.696 428.949 405.851 428.757 405.968C428.565 406.082 428.356 406.138 428.129 406.138Z" fill="black"/>
<path d="M179.359 82.6733L175.757 79.0888C175.54 78.8727 175.504 78.8367 175.36 78.8367C175.18 78.8367 175 78.9988 175 79.1969C175 79.323 175.036 79.359 175.234 79.5572L178.837 83.1777L175.234 86.7982C175.036 86.9963 175 87.0323 175 87.1584C175 87.3565 175.18 87.5187 175.36 87.5187C175.504 87.5187 175.54 87.4826 175.757 87.2665L179.341 83.682L183.07 87.4106C183.106 87.4286 183.232 87.5187 183.34 87.5187C183.556 87.5187 183.7 87.3565 183.7 87.1584C183.7 87.1224 183.7 87.0503 183.646 86.9603C183.628 86.9242 180.764 84.0963 179.863 83.1777L183.16 79.8814C183.25 79.7733 183.52 79.5391 183.61 79.4311C183.628 79.395 183.7 79.323 183.7 79.1969C183.7 78.9988 183.556 78.8367 183.34 78.8367C183.196 78.8367 183.124 78.9087 182.925 79.1068L179.359 82.6733Z" fill="black"/>
<path d="M188.019 84.6186C186.884 85.7354 186.596 86.0056 186.596 86.0777C186.596 86.1497 186.668 86.2758 186.794 86.2758C186.884 86.2758 187.911 85.2851 188.055 85.123C188.163 86.3298 188.613 87.8969 190.018 87.8969C190.739 87.8969 191.387 87.4466 191.676 87.2305C191.91 87.0503 192.774 86.3118 192.774 86.1497C192.774 86.0596 192.684 85.9516 192.594 85.9516C192.522 85.9516 192.252 86.2218 192.18 86.2938C191.549 86.9062 190.757 87.5367 190.036 87.5367C189.064 87.5367 188.938 86.1317 188.938 85.159C188.938 84.9789 188.938 84.2224 189.064 84.0783C190.127 82.9795 193.459 79.5391 193.459 76.3509C193.459 75.6304 193.189 75 192.414 75C190.739 75 189.28 78.7106 189.028 79.395C188.956 79.5752 187.911 82.3491 188.019 84.6186ZM189.1 83.5019C189.118 83.3938 189.928 78.6745 191.441 76.1528C191.748 75.6665 192.054 75.3602 192.414 75.3602C193.027 75.3602 193.063 75.9366 193.063 76.3329C193.063 76.9634 192.882 78.5845 191.315 80.854C190.847 81.5205 190.127 82.4211 189.1 83.5019Z" fill="black"/>
</svg>
